<svg width="300" height="300" viewBox="0 0 300 300" fill="none" xmlns="http://www.w3.org/2000/svg">
<path d="M233.012 243.319C256.28 220.051 256.28 182.326 233.012 159.058C209.744 135.789 172.019 135.789 148.751 159.058C125.483 182.326 125.483 220.051 148.751 243.319C172.019 266.587 209.744 266.587 233.012 243.319Z" fill="#F9A140"/>
<path d="M190.447 129.579C150.898 129.82 119.033 162.075 119.273 201.623C119.513 241.172 151.768 273.037 191.316 272.797C230.865 272.557 262.731 240.302 262.49 200.754C262.25 161.205 229.995 129.339 190.447 129.579ZM191.243 260.769C158.338 260.969 131.501 234.456 131.301 201.55C131.101 168.645 157.614 141.807 190.52 141.608C223.425 141.408 250.262 167.921 250.462 200.827C250.662 233.732 224.149 260.569 191.243 260.769Z" fill="#FFE247"/>
<path d="M171.431 219.254C169.928 216.746 169.631 212.575 174.003 212.051C177.644 211.614 181.373 214.379 184.679 215.95C187.492 217.264 190.566 217.926 193.67 217.888C197.18 217.888 199.995 217.033 202.115 215.324C204.234 213.616 205.294 211.37 205.295 208.587C205.295 205.766 204.442 203.759 202.736 202.566C201.03 201.374 198.108 200.777 193.968 200.777H191.236C184.48 200.777 179.331 199.366 175.787 196.545C172.243 193.723 170.471 189.629 170.472 184.263C170.472 179.017 172.202 174.943 175.663 172.041C179.123 169.14 183.983 167.69 190.243 167.689C192.894 167.706 195.526 168.138 198.043 168.971C203.553 170.75 212.269 175.078 210.741 180.682C208.329 189.525 198.9 177.881 195.507 176.423C193.52 175.569 191.186 175.142 188.504 175.141C185.391 175.141 182.882 175.966 180.978 177.615C180.06 178.382 179.326 179.345 178.832 180.434C178.337 181.523 178.095 182.71 178.122 183.905C178.122 186.409 179.099 188.198 181.053 189.271C183.006 190.344 187.212 190.96 193.67 191.119C200.558 191.319 205.592 192.759 208.772 195.442C211.951 198.124 213.541 202.268 213.541 207.872C213.541 213.238 211.786 217.53 208.275 220.75C204.764 223.969 200.029 225.579 194.068 225.579C191.951 225.557 189.84 225.347 187.76 224.953C182.944 224.086 175.71 224.129 172.224 220.317C171.924 219.99 171.659 219.634 171.431 219.254Z" fill="#F4D242"/>
<path d="M192.114 239.716H192.038C189.981 239.716 188.313 237.787 188.313 235.407V161.951C188.313 159.571 189.981 157.642 192.038 157.642H192.114C194.171 157.642 195.839 159.571 195.839 161.951V235.407C195.839 237.787 194.171 239.716 192.114 239.716Z" fill="#F4D242"/>
<path opacity="0.08" d="M157.051 160.48C185.016 132.514 185.016 87.173 157.051 59.2075C129.085 31.242 83.7443 31.242 55.7788 59.2075C27.8133 87.173 27.8133 132.514 55.7788 160.48C83.7443 188.445 129.085 188.445 157.051 160.48Z" fill="#272525"/>
<path d="M145.965 148.221C169.233 124.952 169.233 87.2273 145.965 63.9592C122.697 40.691 84.9714 40.691 61.7033 63.9592C38.4352 87.2273 38.4352 124.952 61.7033 148.221C84.9714 171.489 122.697 171.489 145.965 148.221Z" fill="#F9A140"/>
<path d="M103.399 34.4806C63.8506 34.7207 31.9848 66.9758 32.225 106.524C32.4651 146.073 64.7201 177.938 104.269 177.698C143.817 177.458 175.683 145.203 175.443 105.655C175.203 66.1062 142.948 34.2405 103.399 34.4806ZM104.196 165.67C71.2901 165.87 44.4529 139.357 44.2531 106.451C44.0533 73.5458 70.5666 46.7086 103.472 46.5088C136.378 46.309 163.215 72.8222 163.415 105.728C163.614 138.633 137.101 165.47 104.196 165.67Z" fill="#FFE247"/>
<path d="M127.652 109.555C125.887 107.231 123.2 105.43 119.59 104.15C121.817 102.87 123.491 101.242 124.613 99.2668C125.735 97.2929 126.288 94.9883 126.272 92.3532C126.241 87.1177 124.365 83.1354 120.646 80.4063C116.928 77.6769 111.533 76.3336 104.463 76.3765L101.913 76.3919C101.898 74.0202 101.884 71.6484 101.869 69.2765C101.856 67.0961 97.9107 67.1199 97.9239 69.3004C97.9382 71.6723 97.9527 74.0442 97.9671 76.4159L95.4025 76.4315C95.3881 74.0597 95.3737 71.6879 95.3592 69.3161C95.346 67.1356 91.4004 67.1596 91.4137 69.34C91.428 71.7118 91.4424 74.0836 91.4569 76.4554L81.1007 76.5183C79.9663 76.5252 79.101 76.8392 78.5047 77.4604C77.9084 78.0807 77.6136 78.9746 77.6204 80.1421C77.6287 81.5103 78.0014 82.4502 78.7385 82.9619C79.4753 83.4751 81.1278 83.7233 83.696 83.7066L85.347 83.6966L85.6206 128.771L83.9697 128.781C81.2011 128.797 79.4514 129.05 78.7207 129.537C77.99 130.026 77.6289 130.937 77.6374 132.271C77.6447 133.471 77.9418 134.37 78.5288 134.967C79.1158 135.563 79.993 135.858 81.1604 135.851L91.8171 135.787C91.8315 138.159 91.8459 140.53 91.8603 142.902C91.8736 145.083 95.8191 145.059 95.8059 142.878L95.7627 135.763L98.3273 135.747C98.3417 138.119 98.3561 140.491 98.3705 142.863C98.3838 145.043 102.329 145.019 102.316 142.839C102.302 140.467 102.287 138.095 102.273 135.723L103.572 135.715L107.875 135.689C111.543 135.667 114.376 135.441 116.375 135.012C118.286 134.617 120.122 133.922 121.815 132.953C124.414 131.461 126.588 129.329 128.131 126.761C129.619 124.245 130.381 121.366 130.333 118.443C130.311 114.841 129.417 111.879 127.652 109.555ZM105.607 83.5736C109.475 83.5501 112.448 84.3243 114.526 85.8963C116.603 87.4679 117.651 89.7379 117.669 92.7061C117.688 95.8409 116.56 98.1656 114.285 99.6802C112.009 101.195 108.504 101.966 103.768 101.995L102.068 102.005C102.031 95.8689 101.994 89.7324 101.956 83.5958L105.607 83.5736ZM98.0108 83.6198C98.0481 89.7563 98.0853 95.8928 98.1226 102.029L95.558 102.045C95.5207 95.9084 95.4834 89.7718 95.4462 83.6353L98.0108 83.6198ZM95.7199 128.709C95.6784 121.873 95.6369 115.036 95.5953 108.199L98.16 108.183C98.2015 115.02 98.243 121.857 98.2845 128.694L95.7199 128.709ZM117.822 126.198C115.264 127.799 110.85 128.618 104.58 128.656L102.23 128.67C102.189 121.833 102.147 114.996 102.106 108.159L104.956 108.142C111.125 108.105 115.441 108.862 117.902 110.415C120.363 111.967 121.605 114.595 121.627 118.296C121.65 121.966 120.381 124.6 117.822 126.198Z" fill="#F4D242"/>
<path d="M109.314 251.417L94.2607 234.868C94.1557 234.753 94.0176 234.673 93.8652 234.639C93.7129 234.605 93.5538 234.619 93.4099 234.679C93.2659 234.74 93.144 234.843 93.0611 234.975C92.9781 235.107 92.938 235.262 92.9464 235.417L93.4492 244.793C80.2995 241.023 69.0835 232.945 61.6033 221.77C53.6433 209.877 50.8426 195.862 53.6827 182.222C53.7243 182.027 53.6874 181.824 53.58 181.656C53.4727 181.488 53.3035 181.369 53.1092 181.325L48.7662 180.356C48.6687 180.334 48.5677 180.331 48.4693 180.349C48.3708 180.366 48.2768 180.403 48.1926 180.456C48.1083 180.51 48.0356 180.58 47.9787 180.662C47.9217 180.745 47.8816 180.837 47.8606 180.935C44.6659 196.178 47.7744 211.828 56.6485 225.086C64.9892 237.547 77.5129 246.52 92.1787 250.63L87.4 260.345C87.3319 260.483 87.3078 260.639 87.3308 260.791C87.3539 260.944 87.423 261.086 87.5289 261.198C87.6348 261.31 87.7724 261.387 87.9233 261.418C88.0742 261.45 88.2312 261.435 88.3732 261.375L109.05 252.622C109.161 252.575 109.259 252.502 109.337 252.409C109.414 252.316 109.468 252.206 109.494 252.088C109.52 251.97 109.517 251.848 109.486 251.731C109.454 251.614 109.396 251.507 109.314 251.417Z" fill="#95AFF1"/>
<path d="M237.747 91.1383C228.413 79.4026 215.196 71.4865 200.243 68.5916L204.228 58.4716C204.283 58.3317 204.294 58.1783 204.259 58.032C204.225 57.8856 204.146 57.7533 204.035 57.6529C203.923 57.5524 203.783 57.4885 203.633 57.4698C203.484 57.4511 203.333 57.4785 203.2 57.5483L183.242 68.0011C183.137 68.0558 183.048 68.1347 182.98 68.2312C182.912 68.3277 182.869 68.439 182.853 68.5558C182.837 68.6725 182.85 68.7914 182.89 68.9024C182.929 69.0133 182.995 69.1132 183.081 69.1936L199.498 84.5072C199.609 84.611 199.75 84.6778 199.901 84.6985C200.051 84.7192 200.205 84.6927 200.34 84.6228C200.475 84.5528 200.585 84.4427 200.655 84.3076C200.726 84.1725 200.752 84.0191 200.732 83.8683L199.455 74.5134C212.869 77.1931 224.71 84.3245 233.081 94.8496C241.992 106.054 245.932 119.801 244.213 133.634C244.188 133.827 244.24 134.021 244.358 134.176C244.476 134.33 244.65 134.432 244.842 134.459L249.287 135.075C249.384 135.089 249.482 135.083 249.576 135.058C249.67 135.033 249.759 134.99 249.836 134.931C249.914 134.872 249.979 134.798 250.028 134.714C250.077 134.629 250.108 134.536 250.121 134.44C252.062 118.979 247.682 103.629 237.747 91.1383Z" fill="#376AEF"/>
</svg>
