<svg width="250" height="240" viewBox="0 0 250 240" fill="none" xmlns="http://www.w3.org/2000/svg">
<g clip-path="url(#clip0_126_34966)">
<path d="M113.976 232C187.97 232 247.953 228.508 247.953 224.199C247.953 219.891 187.97 216.399 113.976 216.399C39.9833 216.399 -20 219.891 -20 224.199C-20 228.508 39.9833 232 113.976 232Z" fill="#F5F5F5"/>
<path d="M140.669 13H40.2446C35.6841 13 32.1323 16.7201 32.3521 21.2669L41.7655 215.933C41.9852 220.479 45.897 224.199 50.4569 224.199H150.881C155.442 224.199 158.994 220.479 158.773 215.933L149.36 21.2669C149.141 16.7201 145.23 13 140.669 13Z" fill="black"/>
<path d="M144.355 13H43.9304C39.3698 13 35.8181 16.7201 36.0385 21.2669L45.452 215.933C45.6717 220.479 49.5834 224.199 54.144 224.199H154.568C159.129 224.199 162.681 220.479 162.46 215.933L153.047 21.2669C152.826 16.7201 148.915 13 144.355 13Z" fill="#263238"/>
<path d="M53.8768 218.688C52.3787 218.688 51.052 217.426 50.9795 215.933L41.566 21.2671C41.4935 19.7736 42.6986 18.5115 44.1967 18.5115H144.621C146.119 18.5115 147.446 19.7736 147.518 21.2671L156.932 215.933C157.004 217.426 155.799 218.688 154.301 218.688H53.8768Z" fill="#376AEF"/>
<path opacity="0.1" d="M53.8097 217.31C53.0731 217.31 52.3966 216.666 52.3614 215.933L42.9479 21.267C42.9127 20.5333 43.527 19.8892 44.2636 19.8892H144.688C145.424 19.8892 146.101 20.5333 146.136 21.267L155.55 215.933C155.585 216.666 154.971 217.31 154.234 217.31H53.8097Z" fill="black"/>
<g opacity="0.3">
<path d="M84.1199 206.095H64.1964C63.0783 206.095 62.1248 205.188 62.0709 204.074L60.6149 173.959C60.5887 173.411 60.7787 172.895 61.1505 172.507C61.5215 172.118 62.028 171.905 62.5767 171.905H82.5002C83.6182 171.905 84.5718 172.811 84.6257 173.926L86.0816 204.041C86.1078 204.588 85.9178 205.104 85.5461 205.493C85.175 205.882 84.6685 206.095 84.1199 206.095ZM62.576 172.593C62.2181 172.593 61.8891 172.731 61.6501 172.982C61.4103 173.233 61.2873 173.568 61.3046 173.926L62.7612 204.041C62.7978 204.794 63.4411 205.406 64.1964 205.406H84.1199C84.4778 205.406 84.8067 205.268 85.0458 205.018C85.2856 204.767 85.4086 204.431 85.3913 204.074L83.9354 173.959C83.8987 173.206 83.2554 172.593 82.5002 172.593H62.576Z" fill="#95AFF1"/>
<path d="M82.2427 179.615H63.5132C63.3225 179.615 63.1677 179.461 63.1677 179.27C63.1677 179.079 63.3225 178.925 63.5132 178.925H82.2427C82.4334 178.925 82.5882 179.079 82.5882 179.27C82.5882 179.461 82.4334 179.615 82.2427 179.615Z" fill="#95AFF1"/>
<path d="M82.431 183.507H63.7016C63.5109 183.507 63.3561 183.353 63.3561 183.162C63.3561 182.972 63.5109 182.817 63.7016 182.817H82.431C82.6217 182.817 82.7765 182.972 82.7765 183.162C82.7765 183.353 82.6217 183.507 82.431 183.507Z" fill="#95AFF1"/>
<path d="M82.6188 187.399H63.8894C63.6987 187.399 63.5439 187.244 63.5439 187.054C63.5439 186.863 63.6987 186.709 63.8894 186.709H82.6188C82.8095 186.709 82.9643 186.863 82.9643 187.054C82.9643 187.245 82.8095 187.399 82.6188 187.399Z" fill="#95AFF1"/>
<path d="M82.8072 191.291H64.0777C63.887 191.291 63.7322 191.137 63.7322 190.946C63.7322 190.756 63.887 190.601 64.0777 190.601H82.8072C82.9979 190.601 83.1527 190.756 83.1527 190.946C83.1527 191.137 82.9979 191.291 82.8072 191.291Z" fill="#95AFF1"/>
<path d="M82.9953 195.183H64.2658C64.0751 195.183 63.9203 195.028 63.9203 194.837C63.9203 194.647 64.0751 194.492 64.2658 194.492H82.9953C83.186 194.492 83.3408 194.647 83.3408 194.837C83.3408 195.028 83.186 195.183 82.9953 195.183Z" fill="#95AFF1"/>
<path d="M79.3428 199.076H64.4539C64.2632 199.076 64.1084 198.921 64.1084 198.73C64.1084 198.54 64.2632 198.385 64.4539 198.385H79.3428C79.5335 198.385 79.6883 198.54 79.6883 198.73C79.6883 198.921 79.5335 199.076 79.3428 199.076Z" fill="#95AFF1"/>
</g>
<g opacity="0.3">
<path d="M96.6581 95.644L82.9971 97.821C82.2218 96.0746 81.5405 94.8635 80.9525 94.187C80.3644 93.5105 79.4122 92.8285 78.0966 92.1396L78.6128 102.813C86.2082 104.807 91.3188 106.912 93.9425 109.127C97.4168 112.106 99.2645 115.884 99.4863 120.461C99.6162 123.144 99.1367 125.605 98.0484 127.846C96.9594 130.086 95.5207 131.956 93.731 133.458C91.9407 134.959 90.0135 136.048 87.9495 136.725C85.8848 137.402 83.3392 137.801 80.3105 137.924L80.401 139.8C80.4729 141.288 79.3217 142.493 77.8298 142.493C76.338 142.493 75.07 141.288 74.9982 139.8L74.9076 137.924C71.2654 137.605 68.2955 137.021 65.9972 136.172C63.699 135.323 61.693 134.149 59.98 132.649C58.2664 131.149 56.9245 129.531 55.9522 127.797C54.98 126.063 54.213 123.967 53.6498 121.507L68.5159 119.773C69.0777 122.208 69.7604 123.966 70.5661 125.049C71.3704 126.131 72.6564 127.091 74.4246 127.926L73.7944 114.889C68.7439 113.511 65.1522 112.317 63.0191 111.307C60.8853 110.299 59.0002 108.68 57.3633 106.452C55.7256 104.225 54.8301 101.511 54.6753 98.3115C54.4631 93.9307 55.8223 90.2692 58.7515 87.3282C61.6806 84.3873 66.1721 82.7566 72.2252 82.4363L72.1789 81.4773C72.107 79.99 73.2582 78.7837 74.7501 78.7837C76.2419 78.7837 77.5099 79.9893 77.5818 81.4773L77.6281 82.4363C83.1706 82.7807 87.4589 84.0842 90.4917 86.3472C93.5237 88.6103 95.5795 91.709 96.6581 95.644ZM72.6847 91.9549C71.1306 92.4744 70.0638 93.1171 69.4847 93.8832C68.905 94.6493 68.6403 95.5517 68.6907 96.5892C68.7433 97.677 69.1019 98.6222 69.7666 99.4255C70.4314 100.229 71.557 100.901 73.1442 101.442L72.6847 91.9549ZM79.8448 128.295C81.9185 127.826 83.4172 127.055 84.3404 125.982C85.2629 124.908 85.692 123.705 85.6277 122.373C85.5718 121.213 85.1081 120.146 84.2361 119.172C83.3647 118.198 81.7105 117.292 79.2726 116.455L79.8448 128.295Z" fill="#95AFF1"/>
</g>
<path opacity="0.2" d="M132.771 38.4124H64.3866L71.0526 176.271C71.6144 187.891 81.5185 197.311 93.1742 197.311H161.559L154.893 59.4523C154.331 47.8325 144.427 38.4124 132.771 38.4124Z" fill="black"/>
<path d="M149.528 38.4124H85.491H64.3866C76.0416 38.4124 85.9464 47.8325 86.5081 59.453L91.9345 171.669C92.4963 183.289 102.4 192.709 114.056 192.709H156.989C168.645 192.709 177.638 183.289 177.076 171.669L171.649 59.453C171.087 47.8332 161.183 38.4124 149.528 38.4124Z" fill="#FAFAFA"/>
<path d="M134.144 171.669C134.705 183.289 125.712 192.71 114.056 192.71H135.161H199.197C210.853 192.71 219.846 183.289 219.285 171.669H134.144Z" fill="#E6E6E6"/>
<path d="M161.518 108.069H101.342C100.48 108.069 99.74 107.365 99.6985 106.505C99.6571 105.645 100.329 104.941 101.191 104.941H161.366C162.229 104.941 162.969 105.645 163.01 106.505C163.052 107.365 162.38 108.069 161.518 108.069Z" fill="#376AEF"/>
<path d="M161.989 117.833H101.813C100.951 117.833 100.211 117.129 100.169 116.269C100.128 115.409 100.8 114.706 101.663 114.706H161.838C162.701 114.706 163.44 115.41 163.482 116.269C163.524 117.129 162.852 117.833 161.989 117.833Z" fill="#376AEF"/>
<path d="M162.462 127.597H102.286C101.424 127.597 100.684 126.894 100.642 126.033C100.601 125.173 101.273 124.469 102.135 124.469H162.31C163.173 124.469 163.913 125.173 163.954 126.033C163.996 126.894 163.325 127.597 162.462 127.597Z" fill="#376AEF"/>
<path d="M162.934 137.361H102.758C101.895 137.361 101.156 136.657 101.115 135.797C101.073 134.936 101.745 134.233 102.608 134.233H162.784C163.646 134.233 164.386 134.936 164.428 135.797C164.468 136.657 163.797 137.361 162.934 137.361Z" fill="#376AEF"/>
<path d="M139.483 147.125H103.23C102.368 147.125 101.628 146.421 101.586 145.561C101.545 144.701 102.216 143.997 103.08 143.997H139.332C140.194 143.997 140.934 144.7 140.976 145.561C141.017 146.421 140.346 147.125 139.483 147.125Z" fill="#376AEF"/>
<path d="M143.654 87.818C150.773 80.5469 150.339 68.6146 142.686 61.1667C135.033 53.7187 123.057 53.5754 115.938 60.8466C108.819 68.1178 109.253 80.05 116.906 87.4979C124.56 94.9459 136.535 95.0892 143.654 87.818Z" fill="#376AEF"/>
<path d="M145.4 74.3378C145.53 77.0246 144.968 79.546 143.873 81.747C141.476 86.5949 136.481 89.8927 130.551 89.8927C124.619 89.8927 119.307 86.5956 116.44 81.747C115.132 79.546 114.327 77.0246 114.197 74.3378C113.782 65.7458 120.428 58.783 129.046 58.783C137.664 58.783 144.985 65.7458 145.4 74.3378Z" fill="white"/>
<path opacity="0.4" d="M143.873 81.7469C141.476 86.5947 136.482 89.8925 130.551 89.8925C124.62 89.8925 119.307 86.5954 116.441 81.7469C120.242 79.1311 124.882 77.6038 129.957 77.6038C135.031 77.6038 139.819 79.1304 143.873 81.7469Z" fill="#95AFF1"/>
<path opacity="0.4" d="M134.635 73.9859C137.253 71.3131 137.094 66.9264 134.281 64.1879C131.468 61.4494 127.065 61.396 124.448 64.0688C121.83 66.7415 121.989 71.1282 124.802 73.8668C127.615 76.6053 132.018 76.6586 134.635 73.9859Z" fill="#95AFF1"/>
<path d="M187.748 219.032H182.672L182.166 207.312H187.242L187.748 219.032Z" fill="#B55B52"/>
<path opacity="0.2" d="M182.168 207.315L182.427 213.356H187.506L187.246 207.315H182.168Z" fill="black"/>
<path d="M230.955 205.299L226.129 206.867L220.061 196.511L224.888 194.944L230.955 205.299Z" fill="#B55B52"/>
<path opacity="0.2" d="M224.891 194.946L220.062 196.515L223.192 201.852L228.021 200.283L224.891 194.946Z" fill="black"/>
<path d="M204.908 49.6846C205.539 50.4527 206.075 51.1368 206.617 51.8822C207.156 52.6131 207.683 53.3496 208.199 54.095C209.225 55.5885 210.204 57.1186 211.121 58.6948C212.947 61.8569 214.605 65.1637 215.778 68.8328L215.89 69.1745L215.948 69.3543L216.024 69.6361L216.162 70.2017L216.239 70.7176C216.334 71.4079 216.336 72.0087 216.312 72.586C216.252 73.7316 216.07 74.7395 215.855 75.7095C215.427 77.6432 214.786 79.3834 214.12 81.0912C212.739 84.4889 211.098 87.6276 209.179 90.7029L205.745 89.0557C206.781 85.8302 207.789 82.5173 208.576 79.3021C208.978 77.6997 209.293 76.0856 209.47 74.5914C209.554 73.8487 209.591 73.1261 209.55 72.5315C209.53 72.2408 209.501 71.9673 209.448 71.8006L209.417 71.6738C209.402 71.6532 209.39 71.6318 209.381 71.6105L209.37 71.5781L209.316 71.4513L209.2 71.1813L208.741 70.1024L208.221 69.0257C207.878 68.3078 207.497 67.5893 207.114 66.8763C206.33 65.4523 205.476 64.04 204.595 62.6395C203.701 61.2438 202.77 59.8598 201.817 58.4888C200.883 57.1282 199.844 55.7387 198.911 54.4904L204.908 49.6846Z" fill="#B55B52"/>
<path d="M206.038 88.2352L204.052 92.6125H209.728C209.728 92.6125 210.632 89.2913 208.574 87.95L206.038 88.2352Z" fill="#B55B52"/>
<path d="M204.716 97.5316L209.983 96.5154L209.728 92.6121H204.052L204.716 97.5316Z" fill="#B55B52"/>
<path d="M179.776 27.4857C179.776 27.8938 179.559 28.2253 179.292 28.2253C179.024 28.2253 178.807 27.8945 178.807 27.4857C178.807 27.077 179.024 26.7461 179.292 26.7461C179.559 26.7461 179.776 27.0776 179.776 27.4857Z" fill="#263238"/>
<path d="M179.597 28.2244C179.597 28.2244 178.666 30.5791 177.641 31.7158C178.365 32.3902 179.597 32.0816 179.597 32.0816V28.2244Z" fill="#A02724"/>
<path d="M181.227 25.2242C181.178 25.2242 181.129 25.2097 181.086 25.1787C180.216 24.5535 179.387 24.8623 179.378 24.8658C179.255 24.9133 179.115 24.852 179.067 24.7286C179.02 24.6052 179.081 24.466 179.205 24.4184C179.248 24.4019 180.288 24.0138 181.368 24.7899C181.475 24.8671 181.5 25.0174 181.422 25.1249C181.375 25.1897 181.301 25.2242 181.227 25.2242Z" fill="#263238"/>
<path d="M192.991 32.1921C192.262 35.8943 191.536 42.6787 194.134 45.1491C194.134 45.1491 193.119 48.9051 186.219 48.9051C178.631 48.9051 182.593 45.1498 182.593 45.1498C186.734 44.164 186.627 41.1004 185.905 38.2242L192.991 32.1921Z" fill="#B55B52"/>
<path d="M195.128 46.4381C195.672 45.2491 196.271 43.8885 195.032 43.4627C193.67 42.9936 186.21 42.5155 183.638 43.3959C181.066 44.2763 181.795 46.6875 181.795 46.6875L195.128 46.4381Z" fill="#263238"/>
<path d="M225.089 208.072C224.713 208.431 224.294 208.722 223.976 208.672C223.842 208.651 223.666 208.562 223.585 208.258C223.542 208.098 223.568 207.942 223.664 207.795C224.079 207.157 225.756 206.884 225.827 206.873C225.874 206.865 225.921 206.886 225.946 206.926C225.973 206.965 225.973 207.017 225.947 207.056C225.803 207.28 225.468 207.711 225.089 208.072ZM223.961 207.812C223.923 207.849 223.891 207.887 223.865 207.926C223.808 208.014 223.792 208.103 223.817 208.196C223.875 208.413 223.979 208.43 224.013 208.436C224.367 208.491 225.119 207.78 225.58 207.164C225.077 207.271 224.295 207.495 223.961 207.812Z" fill="#407BFF"/>
<path d="M225.928 207.079C225.915 207.093 225.897 207.103 225.877 207.108C225.3 207.265 223.797 207.163 223.484 206.681C223.427 206.594 223.359 206.414 223.542 206.19C223.661 206.045 223.822 205.964 224.019 205.949C224.779 205.889 225.879 206.862 225.925 206.903C225.958 206.933 225.972 206.978 225.962 207.021C225.957 207.043 225.945 207.063 225.928 207.079ZM223.766 206.302C223.753 206.314 223.74 206.327 223.728 206.342C223.629 206.463 223.668 206.524 223.686 206.55C223.871 206.835 224.919 206.995 225.571 206.921C225.232 206.653 224.524 206.149 224.037 206.187C223.927 206.196 223.837 206.234 223.766 206.302Z" fill="#407BFF"/>
<path d="M180.632 219.292C179.981 219.292 179.351 219.203 179.141 218.911C179.067 218.809 179.009 218.635 179.15 218.387C179.23 218.247 179.358 218.153 179.532 218.106C180.376 217.877 182.151 218.886 182.226 218.929C182.27 218.953 182.293 219.003 182.285 219.052C182.276 219.102 182.239 219.14 182.189 219.15C181.865 219.215 181.239 219.292 180.632 219.292ZM179.828 218.31C179.743 218.31 179.664 218.318 179.595 218.338C179.484 218.368 179.407 218.423 179.36 218.506C179.275 218.655 179.305 218.729 179.336 218.771C179.573 219.099 180.856 219.106 181.8 218.973C181.328 218.731 180.42 218.31 179.828 218.31Z" fill="#407BFF"/>
<path d="M182.166 219.152C182.149 219.152 182.133 219.149 182.117 219.142C181.505 218.868 180.29 217.774 180.383 217.201C180.404 217.067 180.501 216.899 180.831 216.866C181.076 216.841 181.301 216.91 181.498 217.072C182.144 217.6 182.281 218.963 182.285 219.021C182.29 219.064 182.27 219.105 182.236 219.13C182.215 219.144 182.191 219.152 182.166 219.152ZM180.928 217.101C180.904 217.101 180.88 217.102 180.856 217.104C180.639 217.126 180.626 217.211 180.621 217.239C180.565 217.582 181.39 218.442 182.015 218.817C181.95 218.419 181.769 217.603 181.345 217.257C181.217 217.152 181.08 217.101 180.928 217.101Z" fill="#407BFF"/>
<path d="M225.712 206.307L229.834 202.376C229.984 202.233 230.213 202.213 230.386 202.328L234.229 204.888C234.628 205.153 234.668 205.727 234.316 206.051C232.853 207.398 232.074 207.981 230.261 209.709C229.146 210.772 225.811 214.394 224.271 215.862C222.765 217.299 221.074 216.004 221.573 215.266C223.808 211.954 225.206 208.774 225.333 207.099C225.356 206.798 225.493 206.516 225.712 206.307Z" fill="#343434"/>
<path d="M182.705 218.446H188.249C188.456 218.446 188.636 218.59 188.681 218.792L189.684 223.29C189.787 223.757 189.432 224.199 188.953 224.191C186.953 224.157 184.064 224.04 181.551 224.04C178.612 224.04 176.074 224.2 172.627 224.2C170.543 224.2 169.965 222.099 170.837 221.909C174.808 221.043 178.051 220.95 181.482 218.841C181.855 218.611 182.267 218.446 182.705 218.446Z" fill="#343434"/>
<path d="M175.46 56.6477C173.446 59.6066 171.364 62.3753 169.124 65.1144C166.887 67.839 164.532 70.492 161.935 73.0196L160.936 73.9579L160.686 74.1921L160.508 74.354L160.254 74.5724C159.912 74.8445 159.559 75.0815 159.213 75.2675C157.814 76.0219 156.564 76.2127 155.446 76.3181C153.209 76.4924 151.31 76.192 149.463 75.8269C145.793 75.0367 142.481 73.8064 139.202 72.2315L140.467 68.6471C143.725 69.2527 147.112 69.7941 150.272 69.9808C151.838 70.069 153.409 70.0442 154.603 69.8003C155.188 69.6839 155.653 69.4662 155.751 69.3553C155.781 69.3291 155.778 69.3119 155.769 69.3119C155.763 69.3112 155.758 69.3126 155.754 69.314C155.756 69.3112 155.742 69.325 155.757 69.3085L155.808 69.252L156.013 69.0267L156.831 68.1291C158.99 65.6752 161.082 63.0601 163.115 60.3843C165.151 57.7265 167.182 54.9702 169.124 52.2952L175.46 56.6477Z" fill="#B55B52"/>
<path d="M203.223 46.2929C207.981 47.3807 213.438 60.3129 213.438 60.3129L203.882 66.8424C203.882 66.8424 200.262 61.7934 197.57 56.1443C194.75 50.2252 198.359 45.181 203.223 46.2929Z" fill="#376AEF"/>
<path opacity="0.3" d="M199.814 54.54L204.333 66.5333L203.884 66.8433C203.884 66.8433 201.928 64.1083 199.814 60.4157V54.54Z" fill="black"/>
<path d="M174.784 46.5536C174.784 46.5536 169.381 52.6381 174.484 90.2973C182.664 90.2973 197.654 90.2973 201.635 90.2973C201.822 86.1418 199.203 65.8713 203.223 46.2925C203.223 46.2925 198.569 45.3611 194.133 45.1482C190.664 44.9815 185.642 44.8713 182.592 45.1489C178.572 45.5147 174.784 46.5536 174.784 46.5536Z" fill="#376AEF"/>
<path opacity="0.3" d="M177.799 57.4409C177.709 57.5511 177.115 63.6618 172.436 69.0284C172.326 66.6034 172.284 64.4265 172.291 62.4768L177.799 57.4409Z" fill="black"/>
<path d="M180.14 50.6573C180.809 55.4494 171.339 67.6913 171.339 67.6913L161.822 61.1611C161.822 61.1611 164.46 54.4146 168.906 49.9939C173.98 44.9463 179.412 45.4416 180.14 50.6573Z" fill="#376AEF"/>
<path d="M141.146 69.0111L137.424 65.1711L133.451 70.2801C133.451 70.2801 136.475 73.1907 140.078 72.3682L141.146 69.0111Z" fill="#B55B52"/>
<path d="M132.306 63.0569L130.606 68.4187L133.451 70.2787L137.424 65.1698L132.306 63.0569Z" fill="#B55B52"/>
<path d="M193.433 26.6206C193.124 31.6338 193.199 34.5837 190.659 37.1568C186.839 41.0271 180.632 38.7316 179.432 33.7274C178.352 29.2233 179.039 21.781 183.961 19.7859C188.81 17.8205 193.742 21.6074 193.433 26.6206Z" fill="#B55B52"/>
<path d="M197.813 16.1575C199.365 17.5801 198.705 19.1619 197.9 19.4588C200.405 19.9755 200.775 21.9657 199.455 26.166C198.191 30.1885 195.145 35.582 191.339 35.9127C185.619 36.4101 183.945 30.4689 183.907 24.5719C180.668 24.7661 182.065 21.9065 178.095 22.5692C174.664 23.1417 175.935 20.4529 173.002 19.2824C169.597 17.9239 170.281 12.7027 173.456 14.1976C173.456 14.1976 171.982 15.1662 173.699 16.0707C175.416 16.9753 175.249 14.8817 178.638 14.6282C182.027 14.3739 182.423 17.2681 186.391 15.5258C191.386 13.3323 194.638 13.2455 197.813 16.1575Z" fill="#263238"/>
<path d="M195.909 19.412C195.909 19.412 196.558 18.2188 198.111 18.5483C199.663 18.8784 199.794 19.5602 200.768 19.4719C201.743 19.3837 201.389 20.4183 201.389 20.4183C201.389 20.4183 201.127 19.638 199.951 20.0723C198.775 20.5066 198.009 19.4416 197.504 19.92C196.998 20.397 195.909 19.412 195.909 19.412Z" fill="#263238"/>
<path d="M186.617 27.9829C186.398 29.2801 185.658 30.4437 184.84 31.1691C183.609 32.2597 182.542 31.3848 182.505 29.8919C182.472 28.5478 183.073 26.3612 184.491 25.839C185.886 25.3237 186.867 26.499 186.617 27.9829Z" fill="#B55B52"/>
<path d="M184.115 90.2974C184.115 90.2974 189.876 128.974 193.039 143.464C196.502 159.332 220.578 201.469 220.578 201.469L229.418 198.598C229.418 198.598 210.244 160.612 208.267 144.902C206.123 127.852 201.635 90.2974 201.635 90.2974H184.115Z" fill="#343434"/>
<path d="M218.105 198.681C218.067 198.694 220.124 201.769 220.124 201.769L230.071 198.538L228.901 195.577L218.105 198.681Z" fill="#376AEF"/>
<path opacity="0.3" d="M187.757 104.078C194.418 105.38 193.713 130.146 192.911 142.884C190.991 133.88 188.178 116.554 186.257 104.257C186.699 104.037 187.197 103.968 187.757 104.078Z" fill="black"/>
<path d="M174.483 90.2974C174.483 90.2974 173.784 128.137 174.336 143.571C174.911 159.624 180.535 212.187 180.535 212.187H189.134C189.134 212.187 189.45 160.562 189.832 144.796C190.249 127.609 192.331 90.2981 192.331 90.2981H174.483V90.2974Z" fill="#343434"/>
<path d="M178.88 208.771C178.841 208.771 179.365 212.331 179.365 212.331H189.826L190.108 209.155L178.88 208.771Z" fill="#376AEF"/>
</g>
<defs>
<clipPath id="clip0_126_34966">
<rect width="250" height="240" fill="white"/>
</clipPath>
</defs>
</svg>
