<svg width="200" height="200" viewBox="0 0 200 200" fill="none" xmlns="http://www.w3.org/2000/svg">
<g clip-path="url(#clip0_1018_2477)">
<path d="M94.7118 192.899C153.095 192.899 200.424 190.143 200.424 186.744C200.424 183.345 153.095 180.589 94.7118 180.589C36.3288 180.589 -11 183.345 -11 186.744C-11 190.143 36.3288 192.899 94.7118 192.899Z" fill="#F5F5F5"/>
<path d="M115.773 20.1008H36.535C32.9365 20.1008 30.1341 23.0361 30.3075 26.6237L37.735 180.221C37.9084 183.809 40.9949 186.744 44.5928 186.744H123.831C127.429 186.744 130.232 183.809 130.058 180.221L122.63 26.6237C122.458 23.0361 119.372 20.1008 115.773 20.1008Z" fill="black"/>
<path d="M118.681 20.1008H39.4431C35.8447 20.1008 33.0422 23.0361 33.2162 26.6237L40.6437 180.221C40.8171 183.809 43.9035 186.744 47.502 186.744H126.74C130.339 186.744 133.141 183.809 132.967 180.221L125.54 26.6237C125.366 23.0361 122.28 20.1008 118.681 20.1008Z" fill="#263238"/>
<path d="M47.2913 182.396C46.1092 182.396 45.0624 181.4 45.0052 180.221L37.5777 26.6237C37.5204 25.4453 38.4713 24.4495 39.6533 24.4495H118.891C120.073 24.4495 121.12 25.4453 121.178 26.6237L128.605 180.221C128.662 181.4 127.711 182.396 126.529 182.396H47.2913Z" fill="#376AEF"/>
<path opacity="0.1" d="M47.2382 181.309C46.657 181.309 46.1233 180.8 46.0955 180.222L38.6679 26.624C38.6401 26.0451 39.1248 25.5369 39.706 25.5369H118.944C119.525 25.5369 120.059 26.0451 120.087 26.624L127.514 180.222C127.542 180.8 127.058 181.309 126.476 181.309H47.2382Z" fill="black"/>
<g opacity="0.3">
<path d="M71.154 172.459H55.4337C54.5516 172.459 53.7991 171.744 53.7566 170.864L52.6078 147.103C52.5871 146.67 52.7371 146.263 53.0304 145.957C53.3232 145.65 53.7228 145.482 54.1557 145.482H69.876C70.7582 145.482 71.5106 146.197 71.5531 147.077L72.7019 170.838C72.7226 171.27 72.5726 171.677 72.2793 171.984C71.9865 172.291 71.5869 172.459 71.154 172.459ZM54.1552 146.025C53.8728 146.025 53.6132 146.134 53.4246 146.332C53.2354 146.53 53.1383 146.794 53.152 147.077L54.3013 170.838C54.3302 171.432 54.8378 171.916 55.4337 171.916H71.154C71.4364 171.916 71.6959 171.807 71.8846 171.609C72.0738 171.411 72.1708 171.146 72.1572 170.864L71.0084 147.103C70.9795 146.508 70.4719 146.025 69.876 146.025H54.1552Z" fill="#95AFF1"/>
<path d="M69.6728 151.566H54.8947C54.7442 151.566 54.6221 151.444 54.6221 151.293C54.6221 151.143 54.7442 151.021 54.8947 151.021H69.6728C69.8233 151.021 69.9454 151.143 69.9454 151.293C69.9454 151.444 69.8233 151.566 69.6728 151.566Z" fill="#95AFF1"/>
<path d="M69.8214 154.637H55.0433C54.8928 154.637 54.7707 154.515 54.7707 154.364C54.7707 154.214 54.8928 154.092 55.0433 154.092H69.8214C69.9719 154.092 70.094 154.214 70.094 154.364C70.094 154.515 69.9719 154.637 69.8214 154.637Z" fill="#95AFF1"/>
<path d="M69.9696 157.708H55.1914C55.041 157.708 54.9188 157.586 54.9188 157.435C54.9188 157.285 55.041 157.163 55.1914 157.163H69.9696C70.12 157.163 70.2422 157.285 70.2422 157.435C70.2422 157.586 70.12 157.708 69.9696 157.708Z" fill="#95AFF1"/>
<path d="M70.1182 160.779H55.3401C55.1896 160.779 55.0674 160.657 55.0674 160.506C55.0674 160.356 55.1896 160.234 55.3401 160.234H70.1182C70.2687 160.234 70.3908 160.356 70.3908 160.506C70.3908 160.657 70.2687 160.779 70.1182 160.779Z" fill="#95AFF1"/>
<path d="M70.2666 163.849H55.4885C55.338 163.849 55.2159 163.727 55.2159 163.576C55.2159 163.426 55.338 163.304 55.4885 163.304H70.2666C70.4171 163.304 70.5392 163.426 70.5392 163.576C70.5392 163.727 70.4171 163.849 70.2666 163.849Z" fill="#95AFF1"/>
<path d="M67.3847 166.92H55.6369C55.4864 166.92 55.3643 166.798 55.3643 166.648C55.3643 166.498 55.4864 166.376 55.6369 166.376H67.3847C67.5352 166.376 67.6573 166.498 67.6573 166.648C67.6573 166.798 67.5352 166.92 67.3847 166.92Z" fill="#95AFF1"/>
</g>
<g opacity="0.3">
<path d="M81.047 85.3097L70.2681 87.0274C69.6563 85.6495 69.1187 84.6939 68.6548 84.1601C68.1908 83.6263 67.4395 83.0881 66.4014 82.5446L66.8087 90.9661C72.8017 92.5398 76.8341 94.2004 78.9043 95.948C81.6457 98.2984 83.1036 101.279 83.2786 104.891C83.3811 107.008 83.0027 108.95 82.144 110.718C81.2847 112.486 80.1496 113.961 78.7375 115.146C77.3248 116.33 75.8042 117.19 74.1756 117.724C72.5465 118.258 70.538 118.573 68.1483 118.67L68.2197 120.15C68.2764 121.324 67.3681 122.275 66.1909 122.275C65.0138 122.275 64.0133 121.324 63.9566 120.15L63.8852 118.67C61.0114 118.418 58.668 117.957 56.8546 117.287C55.0412 116.618 53.4585 115.692 52.1069 114.508C50.7547 113.324 49.6959 112.048 48.9288 110.68C48.1617 109.312 47.5565 107.658 47.1121 105.716L58.8419 104.348C59.2852 106.269 59.8239 107.657 60.4596 108.511C61.0942 109.365 62.1089 110.122 63.5041 110.781L63.0069 100.495C59.0219 99.4072 56.1878 98.4652 54.5047 97.6684C52.8211 96.8726 51.3337 95.5952 50.0421 93.8378C48.75 92.0804 48.0434 89.9393 47.9212 87.4144C47.7538 83.9579 48.8263 81.0688 51.1375 78.7483C53.4486 76.4278 56.9926 75.1411 61.7687 74.8884L61.7321 74.1317C61.6754 72.9581 62.5838 72.0063 63.7609 72.0063C64.938 72.0063 65.9385 72.9576 65.9952 74.1317L66.0317 74.8884C70.4049 75.1602 73.7885 76.1886 76.1815 77.9742C78.5739 79.7599 80.1959 82.2048 81.047 85.3097ZM62.1312 82.3989C60.905 82.8087 60.0632 83.3159 59.6063 83.9203C59.1489 84.5248 58.9401 85.2369 58.9799 86.0555C59.0213 86.9138 59.3043 87.6596 59.8288 88.2934C60.3533 88.9272 61.2414 89.4577 62.4938 89.8844L62.1312 82.3989ZM67.7808 111.072C69.417 110.703 70.5996 110.094 71.328 109.247C72.0558 108.4 72.3944 107.451 72.3437 106.4C72.2996 105.484 71.9337 104.643 71.2457 103.874C70.5581 103.105 69.2529 102.39 67.3293 101.73L67.7808 111.072Z" fill="#95AFF1"/>
</g>
<path opacity="0.2" d="M109.541 40.1521H55.5838L60.8435 148.927C61.2868 158.096 69.1014 165.529 78.2981 165.529H132.256L126.996 56.7533C126.553 47.5849 118.738 40.1521 109.541 40.1521Z" fill="black"/>
<path d="M122.763 40.1521H72.2359H55.5838C64.78 40.1521 72.5952 47.5849 73.0384 56.7539L77.32 145.296C77.7633 154.465 85.5779 161.897 94.7746 161.897H128.65C137.847 161.897 144.943 154.465 144.499 145.296L140.217 56.7539C139.774 47.5854 131.96 40.1521 122.763 40.1521Z" fill="#FAFAFA"/>
<path d="M110.624 145.296C111.068 154.465 103.972 161.898 94.7748 161.898H111.427H161.954C171.151 161.898 178.247 154.465 177.803 145.296H110.624Z" fill="#E6E6E6"/>
<path d="M132.223 95.1133H84.7431C84.0627 95.1133 83.4787 94.5583 83.446 93.8794C83.4133 93.201 83.9432 92.6455 84.6237 92.6455H132.104C132.785 92.6455 133.368 93.2005 133.401 93.8794C133.434 94.5578 132.904 95.1133 132.223 95.1133Z" fill="#376AEF"/>
<path d="M132.595 102.818H85.1146C84.4342 102.818 83.8503 102.262 83.8175 101.584C83.7848 100.905 84.3148 100.35 84.9958 100.35H132.476C133.157 100.35 133.74 100.905 133.773 101.584C133.806 102.262 133.276 102.818 132.595 102.818Z" fill="#376AEF"/>
<path d="M132.968 110.522H85.4879C84.8075 110.522 84.2235 109.967 84.1908 109.288C84.1581 108.609 84.6881 108.054 85.3685 108.054H132.849C133.529 108.054 134.113 108.609 134.146 109.288C134.179 109.967 133.649 110.522 132.968 110.522Z" fill="#376AEF"/>
<path d="M133.341 118.225H85.8604C85.1794 118.225 84.596 117.67 84.5633 116.991C84.5306 116.313 85.0606 115.758 85.7415 115.758H133.222C133.903 115.758 134.487 116.313 134.519 116.991C134.552 117.67 134.022 118.225 133.341 118.225Z" fill="#376AEF"/>
<path d="M114.837 125.93H86.2326C85.5522 125.93 84.9682 125.375 84.9355 124.696C84.9028 124.017 85.4328 123.462 86.1137 123.462H114.718C115.398 123.462 115.982 124.017 116.015 124.696C116.048 125.375 115.518 125.93 114.837 125.93Z" fill="#376AEF"/>
<path d="M118.128 79.1347C123.745 73.3975 123.403 63.9826 117.365 58.1059C111.326 52.2293 101.877 52.1162 96.2598 57.8534C90.6428 63.5905 90.9846 73.0054 97.0234 78.8821C103.062 84.7588 112.511 84.8719 118.128 79.1347Z" fill="#376AEF"/>
<path d="M119.506 68.4986C119.609 70.6186 119.165 72.608 118.301 74.3448C116.41 78.1699 112.469 80.7719 107.789 80.7719C103.109 80.7719 98.9175 78.1704 96.656 74.3448C95.6233 72.608 94.9882 70.6186 94.8856 68.4986C94.558 61.7192 99.8024 56.2253 106.602 56.2253C113.402 56.2253 119.178 61.7192 119.506 68.4986Z" fill="white"/>
<path opacity="0.4" d="M118.301 74.3442C116.41 78.1693 112.469 80.7714 107.79 80.7714C103.11 80.7714 98.9179 78.1699 96.6563 74.3442C99.6556 72.2803 103.317 71.0752 107.321 71.0752C111.325 71.0752 115.102 72.2797 118.301 74.3442Z" fill="#95AFF1"/>
<path opacity="0.4" d="M111.012 68.2208C113.078 66.1119 112.952 62.6507 110.733 60.4899C108.513 58.3291 105.039 58.287 102.974 60.3959C100.908 62.5048 101.034 65.966 103.253 68.1268C105.473 70.2876 108.947 70.3297 111.012 68.2208Z" fill="#95AFF1"/>
<path d="M152.92 182.666H148.915L148.516 173.419H152.521L152.92 182.666Z" fill="#B55B52"/>
<path opacity="0.2" d="M148.517 173.421L148.721 178.188H152.729L152.524 173.421H148.517Z" fill="black"/>
<path d="M187.012 171.831L183.204 173.068L178.416 164.897L182.224 163.66L187.012 171.831Z" fill="#B55B52"/>
<path opacity="0.2" d="M182.227 163.662L178.417 164.9L180.887 169.111L184.697 167.873L182.227 163.662Z" fill="black"/>
<path d="M166.46 49.0459C166.958 49.652 167.38 50.1917 167.808 50.7799C168.234 51.3566 168.649 51.9377 169.056 52.5258C169.866 53.7043 170.638 54.9116 171.362 56.1553C172.803 58.6503 174.111 61.2594 175.036 64.1545L175.125 64.4241L175.171 64.5659L175.231 64.7883L175.339 65.2345L175.401 65.6417C175.475 66.1863 175.477 66.6603 175.458 67.1158C175.41 68.0198 175.267 68.815 175.097 69.5804C174.76 71.1062 174.253 72.4793 173.728 73.8268C172.638 76.5077 171.344 78.9842 169.829 81.4107L167.12 80.111C167.938 77.566 168.733 74.952 169.354 72.4151C169.671 71.1508 169.92 69.8772 170.06 68.6982C170.126 68.1122 170.155 67.542 170.122 67.0729C170.106 66.8435 170.084 66.6277 170.042 66.4962L170.018 66.3962C170.006 66.3798 169.996 66.363 169.989 66.3461L169.981 66.3206L169.938 66.2206L169.846 66.0075L169.484 65.1563L169.074 64.3067C168.803 63.7403 168.502 63.1733 168.2 62.6107C167.582 61.4872 166.908 60.3728 166.213 59.2678C165.507 58.1665 164.773 57.0744 164.021 55.9927C163.284 54.9192 162.464 53.8228 161.728 52.8379L166.46 49.0459Z" fill="#B55B52"/>
<path d="M167.352 79.4636L165.784 82.9174H170.263C170.263 82.9174 170.976 80.2969 169.352 79.2385L167.352 79.4636Z" fill="#B55B52"/>
<path d="M166.308 86.7989L170.464 85.9971L170.263 82.9172H165.784L166.308 86.7989Z" fill="#B55B52"/>
<path d="M146.63 31.5304C146.63 31.8523 146.459 32.114 146.248 32.114C146.037 32.114 145.866 31.8529 145.866 31.5304C145.866 31.2078 146.037 30.9468 146.248 30.9468C146.459 30.9468 146.63 31.2084 146.63 31.5304Z" fill="#263238"/>
<path d="M146.489 32.1133C146.489 32.1133 145.754 33.9712 144.945 34.8681C145.516 35.4003 146.489 35.1567 146.489 35.1567V32.1133Z" fill="#A02724"/>
<path d="M147.774 29.746C147.736 29.746 147.697 29.7346 147.664 29.7101C146.977 29.2168 146.322 29.4605 146.316 29.4632C146.218 29.5007 146.108 29.4523 146.071 29.355C146.033 29.2576 146.081 29.1477 146.179 29.1102C146.213 29.0972 147.034 28.791 147.886 29.4034C147.971 29.4643 147.99 29.5829 147.929 29.6677C147.892 29.7188 147.833 29.746 147.774 29.746Z" fill="#263238"/>
<path d="M157.057 35.2439C156.482 38.165 155.909 43.5181 157.959 45.4674C157.959 45.4674 157.158 48.4309 151.713 48.4309C145.726 48.4309 148.852 45.4679 148.852 45.4679C152.12 44.6901 152.035 42.2728 151.466 40.0034L157.057 35.2439Z" fill="#B55B52"/>
<path d="M158.743 46.4842C159.172 45.546 159.645 44.4725 158.667 44.1365C157.592 43.7664 151.706 43.3891 149.677 44.0838C147.647 44.7785 148.223 46.681 148.223 46.681L158.743 46.4842Z" fill="#263238"/>
<path d="M182.383 174.019C182.087 174.302 181.756 174.531 181.505 174.492C181.4 174.476 181.261 174.406 181.196 174.165C181.162 174.039 181.183 173.916 181.259 173.8C181.587 173.297 182.909 173.081 182.965 173.073C183.003 173.067 183.04 173.083 183.06 173.114C183.081 173.145 183.081 173.186 183.06 173.217C182.946 173.394 182.682 173.734 182.383 174.019ZM181.493 173.814C181.463 173.843 181.438 173.873 181.418 173.904C181.372 173.973 181.36 174.043 181.379 174.117C181.425 174.288 181.507 174.301 181.534 174.305C181.813 174.349 182.407 173.788 182.77 173.303C182.374 173.387 181.757 173.563 181.493 173.814Z" fill="#407BFF"/>
<path d="M183.046 173.235C183.035 173.246 183.021 173.254 183.005 173.258C182.549 173.382 181.364 173.302 181.117 172.922C181.072 172.852 181.018 172.71 181.163 172.534C181.257 172.42 181.383 172.355 181.539 172.343C182.138 172.297 183.006 173.064 183.043 173.097C183.068 173.12 183.08 173.155 183.072 173.189C183.068 173.207 183.059 173.223 183.046 173.235ZM181.339 172.622C181.329 172.632 181.319 172.642 181.31 172.653C181.231 172.749 181.262 172.798 181.276 172.818C181.422 173.043 182.249 173.169 182.763 173.11C182.496 172.899 181.938 172.502 181.553 172.532C181.466 172.539 181.395 172.569 181.339 172.622Z" fill="#407BFF"/>
<path d="M147.305 182.872C146.791 182.872 146.295 182.802 146.128 182.571C146.07 182.491 146.024 182.353 146.136 182.158C146.199 182.048 146.3 181.973 146.437 181.936C147.103 181.755 148.503 182.551 148.563 182.585C148.597 182.605 148.616 182.644 148.609 182.682C148.603 182.722 148.573 182.752 148.534 182.76C148.278 182.811 147.784 182.872 147.305 182.872ZM146.67 182.097C146.604 182.097 146.542 182.104 146.487 182.119C146.399 182.143 146.338 182.186 146.301 182.252C146.234 182.369 146.258 182.427 146.283 182.461C146.469 182.719 147.482 182.725 148.227 182.62C147.855 182.429 147.138 182.097 146.67 182.097Z" fill="#407BFF"/>
<path d="M148.515 182.761C148.502 182.761 148.489 182.759 148.477 182.753C147.994 182.537 147.036 181.674 147.109 181.222C147.126 181.116 147.201 180.984 147.462 180.958C147.656 180.938 147.833 180.993 147.988 181.12C148.498 181.537 148.606 182.612 148.61 182.658C148.613 182.692 148.598 182.724 148.57 182.744C148.554 182.755 148.535 182.761 148.515 182.761ZM147.538 181.143C147.52 181.143 147.501 181.144 147.482 181.145C147.311 181.163 147.3 181.23 147.296 181.252C147.252 181.523 147.903 182.201 148.397 182.497C148.345 182.183 148.202 181.539 147.868 181.266C147.767 181.183 147.658 181.143 147.538 181.143Z" fill="#407BFF"/>
<path d="M182.875 172.626L186.127 169.525C186.245 169.412 186.426 169.396 186.562 169.487L189.595 171.507C189.91 171.716 189.941 172.168 189.664 172.424C188.509 173.487 187.894 173.947 186.464 175.311C185.584 176.149 182.953 179.007 181.738 180.166C180.55 181.299 179.215 180.278 179.609 179.695C181.373 177.082 182.476 174.572 182.576 173.251C182.594 173.013 182.702 172.791 182.875 172.626Z" fill="#343434"/>
<path d="M148.941 182.204H153.315C153.479 182.204 153.621 182.318 153.656 182.477L154.447 186.027C154.529 186.395 154.249 186.743 153.871 186.737C152.293 186.71 150.013 186.618 148.03 186.618C145.711 186.618 143.709 186.744 140.989 186.744C139.345 186.744 138.888 185.087 139.576 184.937C142.71 184.253 145.268 184.18 147.976 182.516C148.27 182.335 148.595 182.204 148.941 182.204Z" fill="#343434"/>
<path d="M143.224 54.5402C141.635 56.8749 139.992 59.0595 138.225 61.2207C136.46 63.3706 134.602 65.4639 132.553 67.4582L131.764 68.1986L131.568 68.3834L131.427 68.5111L131.226 68.6834C130.956 68.8981 130.678 69.0851 130.405 69.2319C129.301 69.8271 128.315 69.9777 127.433 70.0608C125.668 70.1984 124.169 69.9614 122.712 69.6733C119.816 69.0498 117.203 68.079 114.616 66.8364L115.614 64.0082C118.185 64.486 120.857 64.9132 123.35 65.0605C124.585 65.1301 125.825 65.1105 126.767 64.9181C127.229 64.8262 127.596 64.6545 127.674 64.567C127.697 64.5463 127.694 64.5327 127.687 64.5327C127.683 64.5322 127.678 64.5333 127.676 64.5344C127.677 64.5322 127.666 64.543 127.678 64.53L127.718 64.4854L127.88 64.3077L128.525 63.5994C130.229 61.6632 131.879 59.5998 133.484 57.4886C135.09 55.3915 136.693 53.2166 138.225 51.106L143.224 54.5402Z" fill="#B55B52"/>
<path d="M165.131 46.3699C168.884 47.2282 173.19 57.4321 173.19 57.4321L165.65 62.5841C165.65 62.5841 162.794 58.6003 160.67 54.143C158.445 49.4726 161.292 45.4926 165.131 46.3699Z" fill="#376AEF"/>
<path opacity="0.3" d="M162.44 52.8772L166.006 62.3402L165.652 62.5848C165.652 62.5848 164.109 60.4269 162.44 57.5133V52.8772Z" fill="black"/>
<path d="M142.691 46.5755C142.691 46.5755 138.428 51.3764 142.454 81.0907C148.909 81.0907 160.736 81.0907 163.877 81.0907C164.025 77.8119 161.959 61.8178 165.13 46.3695C165.13 46.3695 161.458 45.6346 157.958 45.4666C155.221 45.3351 151.258 45.2481 148.852 45.4672C145.679 45.7558 142.691 46.5755 142.691 46.5755Z" fill="#376AEF"/>
<path opacity="0.3" d="M145.07 55.166C144.999 55.253 144.53 60.0745 140.839 64.3089C140.751 62.3955 140.719 60.6778 140.724 59.1395L145.07 55.166Z" fill="black"/>
<path d="M146.917 49.8136C147.445 53.5946 139.972 63.2539 139.972 63.2539L132.464 58.1014C132.464 58.1014 134.545 52.7782 138.053 49.2901C142.057 45.3074 146.342 45.6982 146.917 49.8136Z" fill="#376AEF"/>
<path d="M116.149 64.2953L113.213 61.2654L110.078 65.2965C110.078 65.2965 112.464 67.5931 115.307 66.9441L116.149 64.2953Z" fill="#B55B52"/>
<path d="M109.174 59.5972L107.833 63.8278L110.078 65.2954L113.213 61.2643L109.174 59.5972Z" fill="#B55B52"/>
<path d="M157.405 30.8477C157.162 34.8032 157.221 37.1308 155.217 39.1611C152.202 42.2148 147.305 40.4037 146.358 36.4552C145.506 32.9013 146.048 27.0291 149.932 25.4549C153.758 23.9041 157.649 26.8921 157.405 30.8477Z" fill="#B55B52"/>
<path d="M160.862 22.5921C162.086 23.7146 161.566 24.9626 160.93 25.1969C162.906 25.6046 163.199 27.1749 162.157 30.4891C161.16 33.663 158.756 37.9186 155.754 38.1795C151.24 38.572 149.919 33.8842 149.889 29.2313C147.334 29.3845 148.436 27.1282 145.303 27.6511C142.596 28.1028 143.599 25.9812 141.285 25.0577C138.598 23.9858 139.138 19.8661 141.643 21.0456C141.643 21.0456 140.48 21.8099 141.835 22.5236C143.19 23.2373 143.058 21.5854 145.732 21.3853C148.406 21.1848 148.719 23.4683 151.849 22.0936C155.791 20.3629 158.356 20.2944 160.862 22.5921Z" fill="#263238"/>
<path d="M159.359 25.16C159.359 25.16 159.871 24.2185 161.096 24.4785C162.322 24.739 162.425 25.2769 163.193 25.2073C163.962 25.1377 163.683 25.9541 163.683 25.9541C163.683 25.9541 163.476 25.3384 162.548 25.681C161.621 26.0237 161.016 25.1834 160.618 25.5608C160.219 25.9372 159.359 25.16 159.359 25.16Z" fill="#263238"/>
<path d="M152.027 31.9229C151.855 32.9464 151.271 33.8645 150.625 34.4369C149.654 35.2973 148.812 34.607 148.783 33.4291C148.757 32.3686 149.232 30.6433 150.35 30.2313C151.451 29.8247 152.225 30.752 152.027 31.9229Z" fill="#B55B52"/>
<path d="M150.053 81.0908C150.053 81.0908 154.599 111.608 157.094 123.041C159.827 135.561 178.824 168.809 178.824 168.809L185.799 166.544C185.799 166.544 170.67 136.572 169.11 124.176C167.418 110.723 163.877 81.0908 163.877 81.0908H150.053Z" fill="#343434"/>
<path d="M176.873 166.609C176.843 166.619 178.466 169.046 178.466 169.046L186.314 166.496L185.391 164.16L176.873 166.609Z" fill="#376AEF"/>
<path opacity="0.3" d="M152.927 91.9641C158.183 92.9915 157.627 112.533 156.994 122.584C155.478 115.479 153.259 101.808 151.744 92.1055C152.093 91.9315 152.485 91.8772 152.927 91.9641Z" fill="black"/>
<path d="M142.454 81.0908C142.454 81.0908 141.902 110.948 142.338 123.125C142.791 135.792 147.228 177.265 147.228 177.265H154.014C154.014 177.265 154.263 136.532 154.564 124.092C154.893 110.531 156.536 81.0914 156.536 81.0914H142.454V81.0908Z" fill="#343434"/>
<path d="M145.923 174.571C145.892 174.571 146.306 177.379 146.306 177.379H154.559L154.782 174.873L145.923 174.571Z" fill="#376AEF"/>
</g>
<defs>
<clipPath id="clip0_1018_2477">
<rect width="200" height="200" fill="white"/>
</clipPath>
</defs>
</svg>
