<svg width="18" height="18" viewBox="0 0 18 18" fill="none" xmlns="http://www.w3.org/2000/svg">
<path d="M6.64028 11.9159L3.51247 8.85425C3.43068 8.77321 3.33327 8.70887 3.22588 8.66496C3.1185 8.62105 3.00328 8.59844 2.88691 8.59844C2.77053 8.59844 2.65531 8.62105 2.54793 8.66496C2.44054 8.70887 2.34313 8.77321 2.26134 8.85425C2.17855 8.93431 2.11282 9.02966 2.06796 9.13477C2.0231 9.23988 2 9.35266 2 9.46658C2 9.58049 2.0231 9.69327 2.06796 9.79839C2.11282 9.9035 2.17855 9.99885 2.26134 10.0789L6.00578 13.7441C6.35431 14.0853 6.91732 14.0853 7.26585 13.7441L16.7387 4.48047C16.8214 4.40041 16.8872 4.30506 16.932 4.19995C16.9769 4.09484 17 3.98206 17 3.86814C17 3.75423 16.9769 3.64144 16.932 3.53633C16.8872 3.43122 16.8214 3.33587 16.7387 3.25581C16.6569 3.17478 16.5595 3.11044 16.4521 3.06652C16.3447 3.02261 16.2295 3 16.1131 3C15.9967 3 15.8815 3.02261 15.7741 3.06652C15.6667 3.11044 15.5693 3.17478 15.4875 3.25581L6.64028 11.9159Z" fill="#3AEF78"/>
</svg>
