<svg width="350" height="350" viewBox="0 0 350 350" fill="none" xmlns="http://www.w3.org/2000/svg">
<g clip-path="url(#clip0_304_9317)">
<mask id="mask0_304_9317" style="mask-type:luminance" maskUnits="userSpaceOnUse" x="55" y="-24" width="239" height="397">
<path d="M270.175 373H78.8253C65.6663 373 55 362.235 55 348.955V0.0447693C55 -13.2354 65.6663 -24 78.8253 -24H270.175C283.334 -24 294 -13.2354 294 0.0447693V348.955C294 362.234 283.334 373 270.175 373Z" fill="white"/>
</mask>
<g mask="url(#mask0_304_9317)">
<path d="M272.326 161.705L231.541 178.176C224.807 180.945 221.57 188.698 224.314 195.495C227.057 202.293 234.741 205.558 241.475 202.789L282.26 186.318C288.994 183.549 292.231 175.794 289.487 168.998C286.744 162.202 279.06 158.936 272.326 161.705Z" fill="#FFC8AF"/>
<path d="M257.926 318.125V34.5217C257.926 25.868 250.975 18.8525 242.401 18.8525H103.466C94.8914 18.8525 87.9399 25.868 87.9399 34.5217V318.125C87.9399 326.779 94.8914 333.794 103.466 333.794H242.398C250.975 333.796 257.926 326.78 257.926 318.125Z" fill="#79797C"/>
<path d="M90.001 317.981V34.6662C90.001 27.0811 96.0933 20.9326 103.609 20.9326H242.258C249.774 20.9326 255.867 27.0811 255.867 34.6662V317.981C255.867 325.566 249.774 331.714 242.258 331.714H103.609C96.0933 331.714 90.001 325.566 90.001 317.981Z" fill="#59595B"/>
<path d="M103.826 328.55H242.04C247.944 328.55 252.731 323.719 252.731 317.761V34.8848C252.731 28.9263 247.944 24.0952 242.04 24.0952H103.826C97.9222 24.0952 93.1353 28.9263 93.1353 34.8848V317.761C93.1353 323.721 97.9222 328.55 103.826 328.55Z" fill="#111B28"/>
<path d="M248.677 40.4946H97.1899V312.151H248.677V40.4946Z" fill="#376AEF"/>
<path d="M224.654 119.747H121.212V224.141H224.654V119.747Z" fill="white"/>
<path d="M136.886 132.401H133.751V135.565H136.886V132.401Z" fill="#343434"/>
<path d="M136.886 135.564H133.751V138.728H136.886V135.564Z" fill="#343434"/>
<path d="M136.886 138.728H133.751V141.891H136.886V138.728Z" fill="#343434"/>
<path d="M136.886 141.891H133.751V145.054H136.886V141.891Z" fill="#343434"/>
<path d="M136.886 145.054H133.751V148.217H136.886V145.054Z" fill="#343434"/>
<path d="M136.886 148.218H133.751V151.381H136.886V148.218Z" fill="#343434"/>
<path d="M136.886 151.381H133.751V154.544H136.886V151.381Z" fill="#343434"/>
<path d="M136.886 157.708H133.751V160.871H136.886V157.708Z" fill="#343434"/>
<path d="M136.886 164.036H133.751V167.199H136.886V164.036Z" fill="#343434"/>
<path d="M136.886 189.341H133.751V192.504H136.886V189.341Z" fill="#343434"/>
<path d="M136.886 192.505H133.751V195.669H136.886V192.505Z" fill="#343434"/>
<path d="M136.886 195.67H133.751V198.833H136.886V195.67Z" fill="#343434"/>
<path d="M136.886 198.833H133.751V201.996H136.886V198.833Z" fill="#343434"/>
<path d="M136.886 201.996H133.751V205.159H136.886V201.996Z" fill="#343434"/>
<path d="M136.886 205.16H133.751V208.323H136.886V205.16Z" fill="#343434"/>
<path d="M136.886 208.323H133.751V211.486H136.886V208.323Z" fill="#343434"/>
<path d="M140.02 132.401H136.885V135.565H140.02V132.401Z" fill="#343434"/>
<path d="M140.02 151.381H136.885V154.544H140.02V151.381Z" fill="#343434"/>
<path d="M140.02 157.708H136.885V160.871H140.02V157.708Z" fill="#343434"/>
<path d="M140.02 160.871H136.885V164.034H140.02V160.871Z" fill="#343434"/>
<path d="M140.02 164.036H136.885V167.199H140.02V164.036Z" fill="#343434"/>
<path d="M140.02 167.199H136.885V170.362H140.02V167.199Z" fill="#343434"/>
<path d="M140.02 179.852H136.885V183.015H140.02V179.852Z" fill="#343434"/>
<path d="M140.02 183.015H136.885V186.178H140.02V183.015Z" fill="#343434"/>
<path d="M140.02 189.341H136.885V192.504H140.02V189.341Z" fill="#343434"/>
<path d="M140.02 208.323H136.885V211.486H140.02V208.323Z" fill="#343434"/>
<path d="M143.154 132.401H140.02V135.565H143.154V132.401Z" fill="#343434"/>
<path d="M143.154 138.728H140.02V141.891H143.154V138.728Z" fill="#343434"/>
<path d="M143.154 141.891H140.02V145.054H143.154V141.891Z" fill="#343434"/>
<path d="M143.154 145.054H140.02V148.217H143.154V145.054Z" fill="#343434"/>
<path d="M143.154 151.381H140.02V154.544H143.154V151.381Z" fill="#343434"/>
<path d="M143.154 160.871H140.02V164.034H143.154V160.871Z" fill="#343434"/>
<path d="M143.154 170.362H140.02V173.525H143.154V170.362Z" fill="#343434"/>
<path d="M143.154 179.852H140.02V183.015H143.154V179.852Z" fill="#343434"/>
<path d="M143.154 183.015H140.02V186.178H143.154V183.015Z" fill="#343434"/>
<path d="M143.154 189.341H140.02V192.504H143.154V189.341Z" fill="#343434"/>
<path d="M143.154 195.67H140.02V198.833H143.154V195.67Z" fill="#343434"/>
<path d="M143.154 198.833H140.02V201.996H143.154V198.833Z" fill="#343434"/>
<path d="M143.154 201.996H140.02V205.159H143.154V201.996Z" fill="#343434"/>
<path d="M143.154 208.323H140.02V211.486H143.154V208.323Z" fill="#343434"/>
<path d="M146.289 132.401H143.154V135.565H146.289V132.401Z" fill="#343434"/>
<path d="M146.289 138.728H143.154V141.891H146.289V138.728Z" fill="#343434"/>
<path d="M146.289 141.891H143.154V145.054H146.289V141.891Z" fill="#343434"/>
<path d="M146.289 145.054H143.154V148.217H146.289V145.054Z" fill="#343434"/>
<path d="M146.289 151.381H143.154V154.544H146.289V151.381Z" fill="#343434"/>
<path d="M146.289 157.708H143.154V160.871H146.289V157.708Z" fill="#343434"/>
<path d="M146.289 164.036H143.154V167.199H146.289V164.036Z" fill="#343434"/>
<path d="M146.289 167.199H143.154V170.362H146.289V167.199Z" fill="#343434"/>
<path d="M146.289 170.362H143.154V173.525H146.289V170.362Z" fill="#343434"/>
<path d="M146.289 173.525H143.154V176.689H146.289V173.525Z" fill="#343434"/>
<path d="M146.289 176.688H143.154V179.852H146.289V176.688Z" fill="#343434"/>
<path d="M146.289 179.852H143.154V183.015H146.289V179.852Z" fill="#343434"/>
<path d="M146.289 189.341H143.154V192.504H146.289V189.341Z" fill="#343434"/>
<path d="M146.289 195.67H143.154V198.833H146.289V195.67Z" fill="#343434"/>
<path d="M146.289 198.833H143.154V201.996H146.289V198.833Z" fill="#343434"/>
<path d="M146.289 201.996H143.154V205.159H146.289V201.996Z" fill="#343434"/>
<path d="M146.289 208.323H143.154V211.486H146.289V208.323Z" fill="#343434"/>
<path d="M149.423 132.401H146.289V135.565H149.423V132.401Z" fill="#343434"/>
<path d="M149.423 138.728H146.289V141.891H149.423V138.728Z" fill="#343434"/>
<path d="M149.423 141.891H146.289V145.054H149.423V141.891Z" fill="#343434"/>
<path d="M149.423 145.054H146.289V148.217H149.423V145.054Z" fill="#343434"/>
<path d="M149.423 151.381H146.289V154.544H149.423V151.381Z" fill="#343434"/>
<path d="M149.423 157.708H146.289V160.871H149.423V157.708Z" fill="#343434"/>
<path d="M149.423 167.199H146.289V170.362H149.423V167.199Z" fill="#343434"/>
<path d="M149.423 176.688H146.289V179.852H149.423V176.688Z" fill="#343434"/>
<path d="M149.423 179.852H146.289V183.015H149.423V179.852Z" fill="#343434"/>
<path d="M149.423 189.341H146.289V192.504H149.423V189.341Z" fill="#343434"/>
<path d="M149.423 195.67H146.289V198.833H149.423V195.67Z" fill="#343434"/>
<path d="M149.423 198.833H146.289V201.996H149.423V198.833Z" fill="#343434"/>
<path d="M149.423 201.996H146.289V205.159H149.423V201.996Z" fill="#343434"/>
<path d="M149.423 208.323H146.289V211.486H149.423V208.323Z" fill="#343434"/>
<path d="M152.558 132.401H149.423V135.565H152.558V132.401Z" fill="#343434"/>
<path d="M152.558 151.381H149.423V154.544H152.558V151.381Z" fill="#343434"/>
<path d="M152.558 160.871H149.423V164.034H152.558V160.871Z" fill="#343434"/>
<path d="M152.558 164.036H149.423V167.199H152.558V164.036Z" fill="#343434"/>
<path d="M152.558 170.362H149.423V173.525H152.558V170.362Z" fill="#343434"/>
<path d="M152.558 176.688H149.423V179.852H152.558V176.688Z" fill="#343434"/>
<path d="M152.558 179.852H149.423V183.015H152.558V179.852Z" fill="#343434"/>
<path d="M152.558 183.015H149.423V186.178H152.558V183.015Z" fill="#343434"/>
<path d="M152.558 189.341H149.423V192.504H152.558V189.341Z" fill="#343434"/>
<path d="M152.558 208.323H149.423V211.486H152.558V208.323Z" fill="#343434"/>
<path d="M155.692 132.401H152.558V135.565H155.692V132.401Z" fill="#343434"/>
<path d="M155.692 135.564H152.558V138.728H155.692V135.564Z" fill="#343434"/>
<path d="M155.692 138.728H152.558V141.891H155.692V138.728Z" fill="#343434"/>
<path d="M155.692 141.891H152.558V145.054H155.692V141.891Z" fill="#343434"/>
<path d="M155.692 145.054H152.558V148.217H155.692V145.054Z" fill="#343434"/>
<path d="M155.692 148.218H152.558V151.381H155.692V148.218Z" fill="#343434"/>
<path d="M155.692 151.381H152.558V154.544H155.692V151.381Z" fill="#343434"/>
<path d="M155.692 157.708H152.558V160.871H155.692V157.708Z" fill="#343434"/>
<path d="M155.692 164.036H152.558V167.199H155.692V164.036Z" fill="#343434"/>
<path d="M155.692 170.362H152.558V173.525H155.692V170.362Z" fill="#343434"/>
<path d="M155.692 176.688H152.558V179.852H155.692V176.688Z" fill="#343434"/>
<path d="M155.692 183.015H152.558V186.178H155.692V183.015Z" fill="#343434"/>
<path d="M155.692 189.341H152.558V192.504H155.692V189.341Z" fill="#343434"/>
<path d="M155.692 192.505H152.558V195.669H155.692V192.505Z" fill="#343434"/>
<path d="M155.692 195.67H152.558V198.833H155.692V195.67Z" fill="#343434"/>
<path d="M155.692 198.833H152.558V201.996H155.692V198.833Z" fill="#343434"/>
<path d="M155.692 201.996H152.558V205.159H155.692V201.996Z" fill="#343434"/>
<path d="M155.692 205.16H152.558V208.323H155.692V205.16Z" fill="#343434"/>
<path d="M155.692 208.323H152.558V211.486H155.692V208.323Z" fill="#343434"/>
<path d="M158.828 160.871H155.694V164.034H158.828V160.871Z" fill="#343434"/>
<path d="M158.828 170.362H155.694V173.525H158.828V170.362Z" fill="#343434"/>
<path d="M158.828 173.525H155.694V176.689H158.828V173.525Z" fill="#343434"/>
<path d="M158.828 183.015H155.694V186.178H158.828V183.015Z" fill="#343434"/>
<path d="M161.962 132.401H158.828V135.565H161.962V132.401Z" fill="#343434"/>
<path d="M161.962 151.381H158.828V154.544H161.962V151.381Z" fill="#343434"/>
<path d="M161.962 154.544H158.828V157.707H161.962V154.544Z" fill="#343434"/>
<path d="M161.962 160.871H158.828V164.034H161.962V160.871Z" fill="#343434"/>
<path d="M161.962 164.036H158.828V167.199H161.962V164.036Z" fill="#343434"/>
<path d="M161.962 167.199H158.828V170.362H161.962V167.199Z" fill="#343434"/>
<path d="M161.962 173.525H158.828V176.689H161.962V173.525Z" fill="#343434"/>
<path d="M161.962 179.852H158.828V183.015H161.962V179.852Z" fill="#343434"/>
<path d="M161.962 186.179H158.828V189.342H161.962V186.179Z" fill="#343434"/>
<path d="M161.962 195.67H158.828V198.833H161.962V195.67Z" fill="#343434"/>
<path d="M161.962 198.833H158.828V201.996H161.962V198.833Z" fill="#343434"/>
<path d="M161.962 205.16H158.828V208.323H161.962V205.16Z" fill="#343434"/>
<path d="M161.962 208.323H158.828V211.486H161.962V208.323Z" fill="#343434"/>
<path d="M165.097 132.401H161.962V135.565H165.097V132.401Z" fill="#343434"/>
<path d="M165.097 138.728H161.962V141.891H165.097V138.728Z" fill="#343434"/>
<path d="M165.097 148.218H161.962V151.381H165.097V148.218Z" fill="#343434"/>
<path d="M165.097 154.544H161.962V157.707H165.097V154.544Z" fill="#343434"/>
<path d="M165.097 157.708H161.962V160.871H165.097V157.708Z" fill="#343434"/>
<path d="M165.097 164.036H161.962V167.199H165.097V164.036Z" fill="#343434"/>
<path d="M165.097 170.362H161.962V173.525H165.097V170.362Z" fill="#343434"/>
<path d="M165.097 179.852H161.962V183.015H165.097V179.852Z" fill="#343434"/>
<path d="M165.097 189.341H161.962V192.504H165.097V189.341Z" fill="#343434"/>
<path d="M165.097 195.67H161.962V198.833H165.097V195.67Z" fill="#343434"/>
<path d="M165.097 201.996H161.962V205.159H165.097V201.996Z" fill="#343434"/>
<path d="M165.097 205.16H161.962V208.323H165.097V205.16Z" fill="#343434"/>
<path d="M168.231 132.401H165.097V135.565H168.231V132.401Z" fill="#343434"/>
<path d="M168.231 141.891H165.097V145.054H168.231V141.891Z" fill="#343434"/>
<path d="M168.231 145.054H165.097V148.217H168.231V145.054Z" fill="#343434"/>
<path d="M168.231 151.381H165.097V154.544H168.231V151.381Z" fill="#343434"/>
<path d="M168.231 160.871H165.097V164.034H168.231V160.871Z" fill="#343434"/>
<path d="M168.231 170.362H165.097V173.525H168.231V170.362Z" fill="#343434"/>
<path d="M168.231 173.525H165.097V176.689H168.231V173.525Z" fill="#343434"/>
<path d="M168.231 176.688H165.097V179.852H168.231V176.688Z" fill="#343434"/>
<path d="M168.231 179.852H165.097V183.015H168.231V179.852Z" fill="#343434"/>
<path d="M168.231 186.179H165.097V189.342H168.231V186.179Z" fill="#343434"/>
<path d="M168.231 189.341H165.097V192.504H168.231V189.341Z" fill="#343434"/>
<path d="M168.231 195.67H165.097V198.833H168.231V195.67Z" fill="#343434"/>
<path d="M168.231 205.16H165.097V208.323H168.231V205.16Z" fill="#343434"/>
<path d="M168.231 208.323H165.097V211.486H168.231V208.323Z" fill="#343434"/>
<path d="M171.366 132.401H168.231V135.565H171.366V132.401Z" fill="#343434"/>
<path d="M171.366 135.564H168.231V138.728H171.366V135.564Z" fill="#343434"/>
<path d="M171.366 138.728H168.231V141.891H171.366V138.728Z" fill="#343434"/>
<path d="M171.366 141.891H168.231V145.054H171.366V141.891Z" fill="#343434"/>
<path d="M171.366 145.054H168.231V148.217H171.366V145.054Z" fill="#343434"/>
<path d="M171.366 148.218H168.231V151.381H171.366V148.218Z" fill="#343434"/>
<path d="M171.366 183.015H168.231V186.178H171.366V183.015Z" fill="#343434"/>
<path d="M171.366 186.179H168.231V189.342H171.366V186.179Z" fill="#343434"/>
<path d="M171.366 192.505H168.231V195.669H171.366V192.505Z" fill="#343434"/>
<path d="M171.366 195.67H168.231V198.833H171.366V195.67Z" fill="#343434"/>
<path d="M171.366 201.996H168.231V205.159H171.366V201.996Z" fill="#343434"/>
<path d="M171.366 205.16H168.231V208.323H171.366V205.16Z" fill="#343434"/>
<path d="M171.366 208.323H168.231V211.486H171.366V208.323Z" fill="#343434"/>
<path d="M174.5 135.564H171.366V138.728H174.5V135.564Z" fill="#343434"/>
<path d="M174.5 145.054H171.366V148.217H174.5V145.054Z" fill="#343434"/>
<path d="M174.5 151.381H171.366V154.544H174.5V151.381Z" fill="#343434"/>
<path d="M174.5 154.544H171.366V157.707H174.5V154.544Z" fill="#343434"/>
<path d="M174.5 157.708H171.366V160.871H174.5V157.708Z" fill="#343434"/>
<path d="M174.5 164.036H171.366V167.199H174.5V164.036Z" fill="#343434"/>
<path d="M174.5 173.525H171.366V176.689H174.5V173.525Z" fill="#343434"/>
<path d="M174.5 179.852H171.366V183.015H174.5V179.852Z" fill="#343434"/>
<path d="M174.5 183.015H171.366V186.178H174.5V183.015Z" fill="#343434"/>
<path d="M174.5 189.341H171.366V192.504H174.5V189.341Z" fill="#343434"/>
<path d="M174.5 198.833H171.366V201.996H174.5V198.833Z" fill="#343434"/>
<path d="M174.5 205.16H171.366V208.323H174.5V205.16Z" fill="#343434"/>
<path d="M174.5 208.323H171.366V211.486H174.5V208.323Z" fill="#343434"/>
<path d="M177.634 138.728H174.5V141.891H177.634V138.728Z" fill="#343434"/>
<path d="M177.634 141.891H174.5V145.054H177.634V141.891Z" fill="#343434"/>
<path d="M177.634 145.054H174.5V148.217H177.634V145.054Z" fill="#343434"/>
<path d="M177.634 148.218H174.5V151.381H177.634V148.218Z" fill="#343434"/>
<path d="M177.634 154.544H174.5V157.707H177.634V154.544Z" fill="#343434"/>
<path d="M177.634 164.036H174.5V167.199H177.634V164.036Z" fill="#343434"/>
<path d="M177.634 183.015H174.5V186.178H177.634V183.015Z" fill="#343434"/>
<path d="M177.634 186.179H174.5V189.342H177.634V186.179Z" fill="#343434"/>
<path d="M177.634 189.341H174.5V192.504H177.634V189.341Z" fill="#343434"/>
<path d="M177.634 192.505H174.5V195.669H177.634V192.505Z" fill="#343434"/>
<path d="M177.634 195.67H174.5V198.833H177.634V195.67Z" fill="#343434"/>
<path d="M177.634 198.833H174.5V201.996H177.634V198.833Z" fill="#343434"/>
<path d="M177.634 201.996H174.5V205.159H177.634V201.996Z" fill="#343434"/>
<path d="M177.634 205.16H174.5V208.323H177.634V205.16Z" fill="#343434"/>
<path d="M177.634 208.323H174.5V211.486H177.634V208.323Z" fill="#343434"/>
<path d="M180.769 132.401H177.634V135.565H180.769V132.401Z" fill="#343434"/>
<path d="M180.769 135.564H177.634V138.728H180.769V135.564Z" fill="#343434"/>
<path d="M180.769 138.728H177.634V141.891H180.769V138.728Z" fill="#343434"/>
<path d="M180.769 141.891H177.634V145.054H180.769V141.891Z" fill="#343434"/>
<path d="M180.769 145.054H177.634V148.217H180.769V145.054Z" fill="#343434"/>
<path d="M180.769 148.218H177.634V151.381H180.769V148.218Z" fill="#343434"/>
<path d="M180.769 151.381H177.634V154.544H180.769V151.381Z" fill="#343434"/>
<path d="M180.769 154.544H177.634V157.707H180.769V154.544Z" fill="#343434"/>
<path d="M180.769 157.708H177.634V160.871H180.769V157.708Z" fill="#343434"/>
<path d="M180.769 160.871H177.634V164.034H180.769V160.871Z" fill="#343434"/>
<path d="M180.769 164.036H177.634V167.199H180.769V164.036Z" fill="#343434"/>
<path d="M180.769 167.199H177.634V170.362H180.769V167.199Z" fill="#343434"/>
<path d="M180.769 173.525H177.634V176.689H180.769V173.525Z" fill="#343434"/>
<path d="M180.769 176.688H177.634V179.852H180.769V176.688Z" fill="#343434"/>
<path d="M180.769 198.833H177.634V201.996H180.769V198.833Z" fill="#343434"/>
<path d="M183.903 138.728H180.769V141.891H183.903V138.728Z" fill="#343434"/>
<path d="M183.903 141.891H180.769V145.054H183.903V141.891Z" fill="#343434"/>
<path d="M183.903 157.708H180.769V160.871H183.903V157.708Z" fill="#343434"/>
<path d="M183.903 160.871H180.769V164.034H183.903V160.871Z" fill="#343434"/>
<path d="M183.903 164.036H180.769V167.199H183.903V164.036Z" fill="#343434"/>
<path d="M183.903 170.362H180.769V173.525H183.903V170.362Z" fill="#343434"/>
<path d="M183.903 173.525H180.769V176.689H183.903V173.525Z" fill="#343434"/>
<path d="M183.903 176.688H180.769V179.852H183.903V176.688Z" fill="#343434"/>
<path d="M183.903 183.015H180.769V186.178H183.903V183.015Z" fill="#343434"/>
<path d="M183.903 192.505H180.769V195.669H183.903V192.505Z" fill="#343434"/>
<path d="M183.903 195.67H180.769V198.833H183.903V195.67Z" fill="#343434"/>
<path d="M183.903 201.996H180.769V205.159H183.903V201.996Z" fill="#343434"/>
<path d="M183.903 205.16H180.769V208.323H183.903V205.16Z" fill="#343434"/>
<path d="M187.039 135.564H183.905V138.728H187.039V135.564Z" fill="#343434"/>
<path d="M187.039 138.728H183.905V141.891H187.039V138.728Z" fill="#343434"/>
<path d="M187.039 141.891H183.905V145.054H187.039V141.891Z" fill="#343434"/>
<path d="M187.039 145.054H183.905V148.217H187.039V145.054Z" fill="#343434"/>
<path d="M187.039 148.218H183.905V151.381H187.039V148.218Z" fill="#343434"/>
<path d="M187.039 151.381H183.905V154.544H187.039V151.381Z" fill="#343434"/>
<path d="M187.039 164.036H183.905V167.199H187.039V164.036Z" fill="#343434"/>
<path d="M187.039 170.362H183.905V173.525H187.039V170.362Z" fill="#343434"/>
<path d="M187.039 173.525H183.905V176.689H187.039V173.525Z" fill="#343434"/>
<path d="M187.039 183.015H183.905V186.178H187.039V183.015Z" fill="#343434"/>
<path d="M187.039 186.179H183.905V189.342H187.039V186.179Z" fill="#343434"/>
<path d="M187.039 189.341H183.905V192.504H187.039V189.341Z" fill="#343434"/>
<path d="M187.039 192.505H183.905V195.669H187.039V192.505Z" fill="#343434"/>
<path d="M187.039 195.67H183.905V198.833H187.039V195.67Z" fill="#343434"/>
<path d="M187.039 208.323H183.905V211.486H187.039V208.323Z" fill="#343434"/>
<path d="M190.173 160.871H187.039V164.034H190.173V160.871Z" fill="#343434"/>
<path d="M190.173 170.362H187.039V173.525H190.173V170.362Z" fill="#343434"/>
<path d="M190.173 176.688H187.039V179.852H190.173V176.688Z" fill="#343434"/>
<path d="M190.173 183.015H187.039V186.178H190.173V183.015Z" fill="#343434"/>
<path d="M190.173 195.67H187.039V198.833H190.173V195.67Z" fill="#343434"/>
<path d="M190.173 198.833H187.039V201.996H190.173V198.833Z" fill="#343434"/>
<path d="M190.173 201.996H187.039V205.159H190.173V201.996Z" fill="#343434"/>
<path d="M190.173 208.323H187.039V211.486H190.173V208.323Z" fill="#343434"/>
<path d="M193.308 132.401H190.174V135.565H193.308V132.401Z" fill="#343434"/>
<path d="M193.308 135.564H190.174V138.728H193.308V135.564Z" fill="#343434"/>
<path d="M193.308 138.728H190.174V141.891H193.308V138.728Z" fill="#343434"/>
<path d="M193.308 141.891H190.174V145.054H193.308V141.891Z" fill="#343434"/>
<path d="M193.308 145.054H190.174V148.217H193.308V145.054Z" fill="#343434"/>
<path d="M193.308 148.218H190.174V151.381H193.308V148.218Z" fill="#343434"/>
<path d="M193.308 151.381H190.174V154.544H193.308V151.381Z" fill="#343434"/>
<path d="M193.308 157.708H190.174V160.871H193.308V157.708Z" fill="#343434"/>
<path d="M193.308 164.036H190.174V167.199H193.308V164.036Z" fill="#343434"/>
<path d="M193.308 170.362H190.174V173.525H193.308V170.362Z" fill="#343434"/>
<path d="M193.308 183.015H190.174V186.178H193.308V183.015Z" fill="#343434"/>
<path d="M193.308 189.341H190.174V192.504H193.308V189.341Z" fill="#343434"/>
<path d="M193.308 195.67H190.174V198.833H193.308V195.67Z" fill="#343434"/>
<path d="M193.308 198.833H190.174V201.996H193.308V198.833Z" fill="#343434"/>
<path d="M193.308 205.16H190.174V208.323H193.308V205.16Z" fill="#343434"/>
<path d="M196.442 132.401H193.308V135.565H196.442V132.401Z" fill="#343434"/>
<path d="M196.442 151.381H193.308V154.544H196.442V151.381Z" fill="#343434"/>
<path d="M196.442 160.871H193.308V164.034H196.442V160.871Z" fill="#343434"/>
<path d="M196.442 164.036H193.308V167.199H196.442V164.036Z" fill="#343434"/>
<path d="M196.442 167.199H193.308V170.362H196.442V167.199Z" fill="#343434"/>
<path d="M196.442 179.852H193.308V183.015H196.442V179.852Z" fill="#343434"/>
<path d="M196.442 183.015H193.308V186.178H196.442V183.015Z" fill="#343434"/>
<path d="M196.442 195.67H193.308V198.833H196.442V195.67Z" fill="#343434"/>
<path d="M196.442 198.833H193.308V201.996H196.442V198.833Z" fill="#343434"/>
<path d="M196.442 201.996H193.308V205.159H196.442V201.996Z" fill="#343434"/>
<path d="M196.442 205.16H193.308V208.323H196.442V205.16Z" fill="#343434"/>
<path d="M199.577 132.401H196.442V135.565H199.577V132.401Z" fill="#343434"/>
<path d="M199.577 138.728H196.442V141.891H199.577V138.728Z" fill="#343434"/>
<path d="M199.577 141.891H196.442V145.054H199.577V141.891Z" fill="#343434"/>
<path d="M199.577 145.054H196.442V148.217H199.577V145.054Z" fill="#343434"/>
<path d="M199.577 151.381H196.442V154.544H199.577V151.381Z" fill="#343434"/>
<path d="M199.577 160.871H196.442V164.034H199.577V160.871Z" fill="#343434"/>
<path d="M199.577 173.525H196.442V176.689H199.577V173.525Z" fill="#343434"/>
<path d="M199.577 176.688H196.442V179.852H199.577V176.688Z" fill="#343434"/>
<path d="M199.577 179.852H196.442V183.015H199.577V179.852Z" fill="#343434"/>
<path d="M199.577 183.015H196.442V186.178H199.577V183.015Z" fill="#343434"/>
<path d="M199.577 186.179H196.442V189.342H199.577V186.179Z" fill="#343434"/>
<path d="M199.577 189.341H196.442V192.504H199.577V189.341Z" fill="#343434"/>
<path d="M199.577 192.505H196.442V195.669H199.577V192.505Z" fill="#343434"/>
<path d="M199.577 195.67H196.442V198.833H199.577V195.67Z" fill="#343434"/>
<path d="M199.577 201.996H196.442V205.159H199.577V201.996Z" fill="#343434"/>
<path d="M199.577 205.16H196.442V208.323H199.577V205.16Z" fill="#343434"/>
<path d="M202.711 132.401H199.577V135.565H202.711V132.401Z" fill="#343434"/>
<path d="M202.711 138.728H199.577V141.891H202.711V138.728Z" fill="#343434"/>
<path d="M202.711 141.891H199.577V145.054H202.711V141.891Z" fill="#343434"/>
<path d="M202.711 145.054H199.577V148.217H202.711V145.054Z" fill="#343434"/>
<path d="M202.711 151.381H199.577V154.544H202.711V151.381Z" fill="#343434"/>
<path d="M202.711 160.871H199.577V164.034H202.711V160.871Z" fill="#343434"/>
<path d="M202.711 164.036H199.577V167.199H202.711V164.036Z" fill="#343434"/>
<path d="M202.711 167.199H199.577V170.362H202.711V167.199Z" fill="#343434"/>
<path d="M202.711 176.688H199.577V179.852H202.711V176.688Z" fill="#343434"/>
<path d="M202.711 189.341H199.577V192.504H202.711V189.341Z" fill="#343434"/>
<path d="M202.711 195.67H199.577V198.833H202.711V195.67Z" fill="#343434"/>
<path d="M202.711 198.833H199.577V201.996H202.711V198.833Z" fill="#343434"/>
<path d="M202.711 208.323H199.577V211.486H202.711V208.323Z" fill="#343434"/>
<path d="M205.846 132.401H202.711V135.565H205.846V132.401Z" fill="#343434"/>
<path d="M205.846 138.728H202.711V141.891H205.846V138.728Z" fill="#343434"/>
<path d="M205.846 141.891H202.711V145.054H205.846V141.891Z" fill="#343434"/>
<path d="M205.846 145.054H202.711V148.217H205.846V145.054Z" fill="#343434"/>
<path d="M205.846 151.381H202.711V154.544H205.846V151.381Z" fill="#343434"/>
<path d="M205.846 160.871H202.711V164.034H205.846V160.871Z" fill="#343434"/>
<path d="M205.846 167.199H202.711V170.362H205.846V167.199Z" fill="#343434"/>
<path d="M205.846 176.688H202.711V179.852H205.846V176.688Z" fill="#343434"/>
<path d="M205.846 179.852H202.711V183.015H205.846V179.852Z" fill="#343434"/>
<path d="M205.846 183.015H202.711V186.178H205.846V183.015Z" fill="#343434"/>
<path d="M205.846 201.996H202.711V205.159H205.846V201.996Z" fill="#343434"/>
<path d="M205.846 205.16H202.711V208.323H205.846V205.16Z" fill="#343434"/>
<path d="M208.98 132.401H205.845V135.565H208.98V132.401Z" fill="#343434"/>
<path d="M208.98 151.381H205.846V154.544H208.98V151.381Z" fill="#343434"/>
<path d="M208.98 160.871H205.846V164.034H208.98V160.871Z" fill="#343434"/>
<path d="M208.98 167.199H205.846V170.362H208.98V167.199Z" fill="#343434"/>
<path d="M208.98 173.525H205.846V176.689H208.98V173.525Z" fill="#343434"/>
<path d="M208.98 176.688H205.846V179.852H208.98V176.688Z" fill="#343434"/>
<path d="M208.98 183.015H205.846V186.178H208.98V183.015Z" fill="#343434"/>
<path d="M208.98 186.179H205.846V189.342H208.98V186.179Z" fill="#343434"/>
<path d="M208.98 195.67H205.846V198.833H208.98V195.67Z" fill="#343434"/>
<path d="M208.98 198.833H205.846V201.996H208.98V198.833Z" fill="#343434"/>
<path d="M208.98 201.996H205.846V205.159H208.98V201.996Z" fill="#343434"/>
<path d="M208.98 205.16H205.846V208.323H208.98V205.16Z" fill="#343434"/>
<path d="M212.114 132.401H208.98V135.565H212.114V132.401Z" fill="#343434"/>
<path d="M212.114 135.564H208.98V138.728H212.114V135.564Z" fill="#343434"/>
<path d="M212.114 138.728H208.98V141.891H212.114V138.728Z" fill="#343434"/>
<path d="M212.114 141.891H208.98V145.054H212.114V141.891Z" fill="#343434"/>
<path d="M212.114 145.054H208.98V148.217H212.114V145.054Z" fill="#343434"/>
<path d="M212.114 148.218H208.98V151.381H212.114V148.218Z" fill="#343434"/>
<path d="M212.114 151.381H208.98V154.544H212.114V151.381Z" fill="#343434"/>
<path d="M212.114 157.708H208.98V160.871H212.114V157.708Z" fill="#343434"/>
<path d="M212.114 164.036H208.98V167.199H212.114V164.036Z" fill="#343434"/>
<path d="M212.114 167.199H208.98V170.362H212.114V167.199Z" fill="#343434"/>
<path d="M212.114 170.362H208.98V173.525H212.114V170.362Z" fill="#343434"/>
<path d="M212.114 176.688H208.98V179.852H212.114V176.688Z" fill="#343434"/>
<path d="M212.114 179.852H208.98V183.015H212.114V179.852Z" fill="#343434"/>
<path d="M212.114 189.341H208.98V192.504H212.114V189.341Z" fill="#343434"/>
<path d="M212.114 195.67H208.98V198.833H212.114V195.67Z" fill="#343434"/>
<path d="M212.114 198.833H208.98V201.996H212.114V198.833Z" fill="#343434"/>
<path d="M212.114 201.996H208.98V205.159H212.114V201.996Z" fill="#343434"/>
<path d="M212.114 205.16H208.98V208.323H212.114V205.16Z" fill="#343434"/>
<path d="M212.114 208.323H208.98V211.486H212.114V208.323Z" fill="#343434"/>
<path d="M112.901 140.565V111.275H141.923" stroke="#95AFF1" stroke-width="2" stroke-miterlimit="10"/>
<path d="M232.965 140.565V111.275H203.942" stroke="#95AFF1" stroke-width="2" stroke-miterlimit="10"/>
<path d="M112.901 203.321V232.609H141.923" stroke="#95AFF1" stroke-width="2" stroke-miterlimit="10"/>
<path d="M232.965 203.321V232.609H203.942" stroke="#95AFF1" stroke-width="2" stroke-miterlimit="10"/>
<path d="M105.93 333.767C104.639 333.767 103.393 333.588 102.194 333.283L64.9752 346.708L-49.1982 503.367L34.1197 576.416L138.996 401.172C189.207 393.253 207.164 380.493 227.652 333.767H105.93Z" fill="#FFC8AF"/>
<path d="M227.651 333.768C227.651 333.768 225.138 339.264 221.163 346.707C192.283 336.276 152.521 331.627 123.577 341.691C121.277 336.47 112.007 337.225 107.852 333.768H227.651Z" fill="#EFAE95"/>
<path d="M255.794 267.536C245.843 272.423 219.759 276.274 226.687 293.198C229.379 299.868 236.919 303.074 243.529 300.357C253.46 295.479 279.574 291.613 272.635 274.694C269.943 268.023 262.404 264.819 255.794 267.536Z" fill="#FFC8AF"/>
<path d="M266.431 281.468C268.035 273.377 262.332 267.408 252.979 268.644C269.164 258.995 282.799 283.753 265.542 291.692C260.007 293.122 241.441 303.246 235.69 300.962C248.542 298.034 265.192 287.715 266.431 281.468Z" fill="#EFAE95"/>
<path d="M237.08 279.129C222.685 283.334 231.821 303.457 244.567 295.656C245.323 291.615 244.964 284.956 237.08 279.129Z" fill="#F9D5C7"/>
<path d="M271.925 224.131L231.512 240.791C215.216 247.212 225.574 272.907 241.688 266.002L282.1 249.342C288.999 246.507 292.313 238.564 289.504 231.602C286.693 224.641 278.823 221.296 271.925 224.131Z" fill="#FFC8AF"/>
<path d="M281.067 241.537C284.703 238.61 286.882 224.939 276.111 223.163C290.783 221.68 296.166 244.042 282.098 249.344C276.705 250.704 239.157 269.363 233.993 266.747C251.135 258.919 267.735 252.264 281.067 241.537Z" fill="#EFAE95"/>
<path d="M234.957 243.849C219.932 248.238 229.468 269.241 242.772 261.098C243.559 256.88 243.184 249.931 234.957 243.849Z" fill="#F9D5C7"/>
<path d="M261.966 199.061C251.615 205.149 216.622 209.839 224.703 228.918C227.514 235.881 235.383 239.225 242.282 236.39C252.605 230.315 287.642 225.602 279.545 206.531C276.734 199.57 268.864 196.224 261.966 199.061Z" fill="#FFC8AF"/>
<path d="M273.811 215.07C278 207.136 270.773 198.634 261.351 199.309C277.53 191.537 288.823 217.624 272.14 224.271C266.015 225.798 240.044 239.864 233.774 236.935C248.699 232.548 269.228 223.75 273.811 215.07Z" fill="#EFAE95"/>
<path d="M235.552 214.235C220.526 218.625 230.062 239.628 243.367 231.485C244.155 227.266 243.78 220.317 235.552 214.235Z" fill="#F9D5C7"/>
<path d="M125.791 202.499C125.379 216.093 104.001 242.929 104.879 241.847C104.879 241.847 117.098 269.473 122.653 298.986C136.897 358.844 101.286 373.392 67.2592 366.148C67.2592 366.148 58.6232 295.704 60.2072 288.398C61.8043 281.078 64.5828 236.604 64.9708 232.595C65.6315 229.969 92.4104 200.668 100.317 189.733C108.292 180.097 113.304 172.577 116.349 172.419C120.926 172.899 126.885 189.007 125.791 202.499Z" fill="#FFC8AF"/>
<path d="M123.575 211.665C116.236 227.744 104.879 241.847 104.879 241.847C104.879 241.847 117.098 269.473 122.653 298.986C118.739 287.425 101.728 237.939 101.728 237.939C101.728 237.939 113.602 228.208 125.791 202.514C125.503 205.811 124.812 208.948 123.575 211.665Z" fill="#EFAE95"/>
<path d="M116.984 176.907C116.192 178.912 105.068 191.329 104.074 191.532C103.383 191.678 101.426 190.473 100.319 189.731C108.298 180.088 113.303 172.58 116.351 172.418C116.911 174.075 117.372 175.934 116.984 176.907Z" fill="#F9D5C7"/>
</g>
</g>
<defs>
<clipPath id="clip0_304_9317">
<rect width="350" height="350" fill="white"/>
</clipPath>
</defs>
</svg>
