<svg width="350" height="350" viewBox="0 0 350 350" fill="none" xmlns="http://www.w3.org/2000/svg">
<g clip-path="url(#clip0_304_10048)">
<path d="M261 320.079V31.9209C261 23.1281 253.925 16 245.2 16H103.802C95.0747 16 88 23.1281 88 31.9209V320.079C88 328.872 95.0747 336 103.802 336H245.197C253.925 336.001 261 328.873 261 320.079Z" fill="#79797C"/>
<path d="M90.0973 319.933V32.0679C90.0973 24.361 96.2977 18.1138 103.947 18.1138H245.054C252.704 18.1138 258.904 24.361 258.904 32.0679V319.933C258.904 327.64 252.704 333.887 245.054 333.887H103.947C96.2977 333.887 90.0973 327.64 90.0973 319.933Z" fill="#59595B"/>
<path d="M104.168 330.672H244.832C250.841 330.672 255.713 325.764 255.713 319.709V32.2901C255.713 26.2358 250.841 21.3271 244.832 21.3271H104.168C98.1593 21.3271 93.2875 26.2358 93.2875 32.2901V319.709C93.2875 325.765 98.1593 330.672 104.168 330.672Z" fill="#111B28"/>
<path d="M251.587 37.9902H97.4141V314.01H251.587V37.9902Z" fill="#F9FBFC"/>
<path d="M235.952 172.523H113.034V181.238H235.952V172.523Z" fill="#95AFF1"/>
<path d="M235.952 192.692H113.034V201.407H235.952V192.692Z" fill="#95AFF1"/>
<path d="M235.952 212.862H113.034V221.577H235.952V212.862Z" fill="#95AFF1"/>
<path d="M235.952 233.031H113.034V241.746H235.952V233.031Z" fill="#95AFF1"/>
<path d="M214.083 253.203H134.903V261.918H214.083V253.203Z" fill="#95AFF1"/>
<path d="M136.79 81.2173C136.79 81.7492 136.662 82.2479 136.406 82.7134C136.159 83.1788 135.764 83.554 135.223 83.839C134.691 84.124 134.017 84.2664 133.2 84.2664H131.533V88.085H129.538V78.1397H133.2C133.969 78.1397 134.624 78.2727 135.166 78.5386C135.707 78.8046 136.111 79.1703 136.377 79.6358C136.652 80.1012 136.79 80.6284 136.79 81.2173ZM133.114 82.6564C133.665 82.6564 134.074 82.5329 134.34 82.2859C134.605 82.0295 134.738 81.6733 134.738 81.2173C134.738 80.2484 134.197 79.764 133.114 79.764H131.533V82.6564H133.114ZM137.409 84.1097C137.409 83.3118 137.565 82.6041 137.879 81.9867C138.202 81.3693 138.634 80.8944 139.175 80.5619C139.726 80.2294 140.339 80.0632 141.013 80.0632C141.602 80.0632 142.115 80.1819 142.552 80.4194C142.999 80.6569 143.355 80.9561 143.621 81.3171V80.1914H145.63V88.085H143.621V86.9309C143.364 87.3013 143.008 87.61 142.552 87.857C142.106 88.0945 141.588 88.2132 140.999 88.2132C140.334 88.2132 139.726 88.0422 139.175 87.7003C138.634 87.3583 138.202 86.8786 137.879 86.2612C137.565 85.6343 137.409 84.9171 137.409 84.1097ZM143.621 84.1382C143.621 83.6538 143.526 83.2406 143.336 82.8986C143.146 82.5471 142.889 82.2812 142.566 82.1007C142.243 81.9107 141.897 81.8157 141.526 81.8157C141.156 81.8157 140.814 81.906 140.5 82.0865C140.187 82.2669 139.931 82.5329 139.731 82.8844C139.541 83.2263 139.446 83.6348 139.446 84.1097C139.446 84.5846 139.541 85.0026 139.731 85.3635C139.931 85.715 140.187 85.9857 140.5 86.1757C140.823 86.3657 141.165 86.4607 141.526 86.4607C141.897 86.4607 142.243 86.3704 142.566 86.1899C142.889 86 143.146 85.734 143.336 85.392C143.526 85.0406 143.621 84.6226 143.621 84.1382ZM154.845 80.1914L149.957 91.818H147.834L149.544 87.8855L146.381 80.1914H148.618L150.656 85.7055L152.722 80.1914H154.845ZM165.438 80.0775C166.407 80.0775 167.186 80.3767 167.774 80.9751C168.373 81.564 168.672 82.3904 168.672 83.4543V88.085H166.677V83.725C166.677 83.1076 166.521 82.6374 166.207 82.3144C165.894 81.982 165.466 81.8157 164.925 81.8157C164.383 81.8157 163.951 81.982 163.628 82.3144C163.315 82.6374 163.158 83.1076 163.158 83.725V88.085H161.163V83.725C161.163 83.1076 161.007 82.6374 160.693 82.3144C160.38 81.982 159.952 81.8157 159.411 81.8157C158.86 81.8157 158.423 81.982 158.1 82.3144C157.786 82.6374 157.63 83.1076 157.63 83.725V88.085H155.635V80.1914H157.63V81.1461C157.886 80.8136 158.214 80.5524 158.613 80.3624C159.021 80.1724 159.468 80.0775 159.952 80.0775C160.57 80.0775 161.121 80.2104 161.605 80.4764C162.089 80.7329 162.465 81.1033 162.731 81.5878C162.987 81.1318 163.357 80.7661 163.842 80.4907C164.336 80.2152 164.868 80.0775 165.438 80.0775ZM177.618 83.9672C177.618 84.2522 177.599 84.5087 177.561 84.7366H171.79C171.838 85.3066 172.037 85.753 172.389 86.076C172.74 86.3989 173.172 86.5604 173.685 86.5604C174.426 86.5604 174.953 86.2422 175.267 85.6058H177.418C177.19 86.3657 176.753 86.9926 176.108 87.4865C175.462 87.971 174.668 88.2132 173.728 88.2132C172.968 88.2132 172.284 88.047 171.676 87.7145C171.078 87.3725 170.608 86.8929 170.266 86.2754C169.933 85.658 169.767 84.9456 169.767 84.1382C169.767 83.3213 169.933 82.6041 170.266 81.9867C170.598 81.3693 171.064 80.8944 171.662 80.5619C172.261 80.2294 172.949 80.0632 173.728 80.0632C174.478 80.0632 175.148 80.2247 175.737 80.5476C176.336 80.8706 176.796 81.3313 177.119 81.9297C177.452 82.5187 177.618 83.1978 177.618 83.9672ZM175.552 83.3973C175.542 82.8844 175.357 82.4759 174.996 82.1719C174.635 81.8585 174.194 81.7018 173.671 81.7018C173.177 81.7018 172.759 81.8537 172.417 82.1577C172.085 82.4522 171.881 82.8654 171.805 83.3973H175.552ZM183.163 80.0775C184.103 80.0775 184.863 80.3767 185.443 80.9751C186.022 81.564 186.312 82.3904 186.312 83.4543V88.085H184.317V83.725C184.317 83.0981 184.16 82.6184 183.847 82.2859C183.534 81.944 183.106 81.773 182.565 81.773C182.014 81.773 181.577 81.944 181.254 82.2859C180.94 82.6184 180.784 83.0981 180.784 83.725V88.085H178.789V80.1914H180.784V81.1746C181.05 80.8326 181.387 80.5666 181.795 80.3767C182.213 80.1772 182.669 80.0775 183.163 80.0775ZM190.246 81.83V85.6485C190.246 85.9145 190.308 86.1092 190.432 86.2327C190.565 86.3467 190.783 86.4037 191.087 86.4037H192.013V88.085H190.759C189.078 88.085 188.237 87.2681 188.237 85.6343V81.83H187.297V80.1914H188.237V78.2394H190.246V80.1914H192.013V81.83H190.246ZM197.285 79.2511C196.933 79.2511 196.639 79.1418 196.401 78.9233C196.173 78.6954 196.059 78.4152 196.059 78.0827C196.059 77.7502 196.173 77.4748 196.401 77.2563C196.639 77.0283 196.933 76.9143 197.285 76.9143C197.636 76.9143 197.926 77.0283 198.154 77.2563C198.391 77.4748 198.51 77.7502 198.51 78.0827C198.51 78.4152 198.391 78.6954 198.154 78.9233C197.926 79.1418 197.636 79.2511 197.285 79.2511ZM198.268 80.1914V88.085H196.273V80.1914H198.268ZM204.328 80.0775C205.268 80.0775 206.028 80.3767 206.608 80.9751C207.187 81.564 207.477 82.3904 207.477 83.4543V88.085H205.482V83.725C205.482 83.0981 205.325 82.6184 205.012 82.2859C204.698 81.944 204.271 81.773 203.729 81.773C203.178 81.773 202.742 81.944 202.419 82.2859C202.105 82.6184 201.948 83.0981 201.948 83.725V88.085H199.954V80.1914H201.948V81.1746C202.214 80.8326 202.552 80.5666 202.96 80.3767C203.378 80.1772 203.834 80.0775 204.328 80.0775ZM212.708 81.83H211.326V88.085H209.302V81.83H208.405V80.1914H209.302V79.7925C209.302 78.8236 209.578 78.1112 210.129 77.6553C210.68 77.1993 211.511 76.9856 212.622 77.0141V78.6954C212.138 78.6859 211.801 78.7666 211.611 78.9376C211.421 79.1086 211.326 79.4173 211.326 79.8637V80.1914H212.708V81.83ZM217.22 88.2132C216.461 88.2132 215.777 88.047 215.169 87.7145C214.561 87.3725 214.081 86.8929 213.73 86.2754C213.388 85.658 213.217 84.9456 213.217 84.1382C213.217 83.3308 213.392 82.6184 213.744 82.001C214.105 81.3835 214.594 80.9086 215.211 80.5761C215.829 80.2342 216.518 80.0632 217.277 80.0632C218.037 80.0632 218.726 80.2342 219.343 80.5761C219.961 80.9086 220.445 81.3835 220.797 82.001C221.158 82.6184 221.338 83.3308 221.338 84.1382C221.338 84.9456 221.153 85.658 220.783 86.2754C220.422 86.8929 219.928 87.3725 219.301 87.7145C218.683 88.047 217.99 88.2132 217.22 88.2132ZM217.22 86.4749C217.581 86.4749 217.919 86.3894 218.232 86.2184C218.555 86.038 218.812 85.772 219.002 85.4205C219.191 85.0691 219.286 84.6416 219.286 84.1382C219.286 83.3878 219.087 82.8131 218.688 82.4142C218.299 82.0057 217.819 81.8015 217.249 81.8015C216.679 81.8015 216.199 82.0057 215.81 82.4142C215.43 82.8131 215.24 83.3878 215.24 84.1382C215.24 84.8886 215.425 85.468 215.796 85.8765C216.176 86.2754 216.651 86.4749 217.22 86.4749Z" fill="#343434"/>
<path d="M228.933 408.126C225.709 410.981 223.259 412.615 223.259 412.615C211.952 403.795 180.022 378.749 176.833 374.139C173.674 369.239 151.09 343.691 148.873 341.035C147.791 339.238 146.35 308.311 144.687 297.937C143.759 288.237 142.384 281.337 143.943 279.553C146.714 277.256 158.777 282.732 165.573 290.695V290.71C172.792 298.358 175.823 324.904 175.71 323.828C184.546 327.099 205.151 336.948 216.695 345.083C216.71 345.083 216.71 345.083 216.724 345.083C245.484 362.836 254.195 387.294 228.933 408.126Z" fill="#FFC8AF"/>
<path d="M355.811 649.154C341.153 650.687 245.83 660.65 233.731 661.916C225.35 621.191 232.211 370.745 193.767 349.97C192.847 344.453 158.972 192.214 156.722 180.994C154.737 173.338 159.987 165.699 167.79 164.875C173.741 164.256 179.328 167.877 181.238 173.588L212.67 267.439C213.948 272.445 276.111 268.372 306.54 269.619C312.215 269.617 320.661 302.147 320.661 302.147C321.842 326.919 320.983 335.289 320.768 348.966C320.237 382.717 311.136 393.039 312.026 399.618L355.811 649.154Z" fill="#FFC8AF"/>
<path d="M216.057 280.375L213.724 260.641C211.246 243.418 236.866 237.012 242.693 253.342L252.587 279.027L216.057 280.375Z" fill="#FFC8AF"/>
<path d="M247.847 278.895C247.856 265.559 243.397 240.629 263.555 240.558C281.608 239.581 280.734 265.834 283.657 277.695L247.847 278.895Z" fill="#FFC8AF"/>
<path d="M281.322 283.758L282.168 256.033C282.178 241.387 303.445 237.198 308.976 250.685C316.102 261.008 321.654 300.092 320.77 304.425L281.322 283.758Z" fill="#FFC8AF"/>
<path d="M253.859 659.811L233.731 661.916C233.374 657.031 218.114 413.002 217.673 408.258C205.873 398.985 179.269 377.907 176.833 374.139C173.712 369.282 151.09 343.7 148.917 341.08C164.634 354.509 206.404 393.329 229.924 408.862L253.859 659.811Z" fill="#EFAE95"/>
<path d="M179.822 179.17C179.822 179.17 178.464 172.013 175.899 169.424C173.333 166.835 158.999 167.45 159 173.992C159.001 182.52 161.264 185.259 161.264 185.259C162.686 186.225 179.59 183.662 179.822 179.17Z" fill="#F9D5C7"/>
</g>
<defs>
<clipPath id="clip0_304_10048">
<rect width="350" height="350" fill="white"/>
</clipPath>
</defs>
</svg>
