<svg width="350" height="350" viewBox="0 0 350 350" fill="none" xmlns="http://www.w3.org/2000/svg">
<path d="M333 319.54C333 309.294 262.256 301.039 175.008 301.039C87.7296 301.039 17 309.365 17 319.54C17 329.715 87.7296 338.039 175.008 338.039C262.256 338.039 333 329.787 333 319.54Z" fill="#DEDEDE"/>
<path d="M169.061 320.053L123.515 320.33L126.493 275.066L164.148 275.036L169.061 320.053Z" fill="#EBEBEB"/>
<path d="M157.108 275.323C157.071 275.325 157.061 274.824 156.937 273.933C156.809 273.046 156.592 271.754 156.026 270.254C155.476 268.762 154.572 267.025 153.046 265.575C151.549 264.102 149.28 263.171 146.855 263.181C144.437 263.201 142.155 264.106 140.635 265.546C139.093 266.983 138.23 268.744 137.708 270.245C137.183 271.759 136.967 273.051 136.825 273.938C136.694 274.828 136.643 275.325 136.613 275.323C136.601 275.322 136.599 275.197 136.608 274.959C136.613 274.72 136.64 274.37 136.682 273.919C136.781 273.021 136.958 271.712 137.46 270.162C137.959 268.626 138.815 266.803 140.402 265.296C141.975 263.782 144.345 262.829 146.855 262.81C149.368 262.796 151.743 263.784 153.282 265.327C154.849 266.844 155.745 268.636 156.274 270.165C156.817 271.703 156.997 273.017 157.081 273.917C157.12 274.369 157.134 274.72 157.128 274.959C157.128 275.198 157.121 275.322 157.108 275.323Z" fill="#E0E0E0"/>
<path d="M134.745 275.323C134.848 275.328 134.503 285.394 133.976 297.805C133.449 310.221 132.939 320.278 132.837 320.274C132.734 320.27 133.079 310.205 133.606 297.79C134.133 285.379 134.643 275.319 134.745 275.323Z" fill="#E0E0E0"/>
<path d="M38.0803 266.542C35.6096 264.991 32.7794 264.017 29.8766 263.718C28.5359 263.581 27.0713 263.62 25.9962 264.432C25.7684 264.604 25.5455 264.859 25.5968 265.14C25.6345 265.347 25.809 265.497 25.9763 265.625C29.3141 268.172 34.3629 268.493 38.0803 266.542Z" fill="#E0E0E0"/>
<path d="M37.8702 266.31C36.0133 264.86 34.145 263.401 32.5715 261.647C30.998 259.894 29.7199 257.813 29.2493 255.504C29.1069 254.804 29.0628 254.004 29.512 253.449C33.7356 256.747 37.0535 261.014 37.8702 266.31Z" fill="#E0E0E0"/>
<path d="M38.0367 266.51C37.7185 264.199 37.6046 261.824 38.135 259.554C38.6654 257.282 39.9008 255.109 41.8402 253.813C42.57 255.519 42.2561 257.485 41.742 259.267C40.9474 262.022 39.7007 264.647 38.0681 267.003" fill="#E0E0E0"/>
<path d="M42.177 273.929C39.6636 274.234 37.475 275.559 35.5981 277.258C33.7213 278.958 32.3877 281.247 31.8352 283.718C34.3001 283.566 36.392 281.827 37.9086 279.878C39.4251 277.929 40.476 275.79 42.1428 273.967" fill="#E0E0E0"/>
<path d="M43.0764 275.115C41.0522 270.129 41.7856 264.12 44.9497 259.767C46.3815 264.86 45.8561 270.614 43.0764 275.115Z" fill="#E0E0E0"/>
<path d="M48.5467 281.629C46.2662 281.487 43.9472 282.031 41.9664 283.17C39.9856 284.31 38.3516 286.043 37.3285 288.087C37.1896 288.365 37.0664 288.718 37.253 288.967C37.4146 289.183 37.7272 289.203 37.997 289.185C40.2078 289.042 42.1679 287.712 43.7842 286.197C45.4011 284.683 46.8094 282.933 48.5966 281.623" fill="#E0E0E0"/>
<path d="M48.3722 281.275C47.196 277.51 47.1227 273.407 48.1636 269.603C48.5751 268.101 49.2651 266.519 50.6542 265.814C50.7724 265.754 50.9105 265.7 51.0351 265.747C51.1533 265.792 51.2216 265.913 51.2758 266.027C51.7699 267.059 51.9137 268.232 51.8631 269.375C51.8126 270.519 51.5748 271.645 51.3384 272.765C50.9012 274.837 50.6684 277.063 49.5321 278.85C49.2622 279.274 49.0251 279.732 48.8094 280.186C48.5944 280.64 48.5929 280.8 48.3957 281.162" fill="#E0E0E0"/>
<path d="M62.8529 283.432C61.7799 279.351 62.9191 274.404 65.4902 271.058C65.6796 270.812 65.9302 270.548 66.2399 270.577C66.7134 270.62 66.8359 271.252 66.8152 271.727C66.6287 275.897 65.2381 280.007 62.8529 283.432Z" fill="#E0E0E0"/>
<path d="M64.158 284.324C69.1156 285.614 74.8038 284.36 78.927 281.32C76.4834 280.081 73.6026 279.728 70.9319 280.339C68.2612 280.95 65.8205 282.147 64.158 284.324Z" fill="#E0E0E0"/>
<path d="M65.2595 281.607C68.0363 277.08 73.3599 274.126 78.6636 273.856C78.0527 276.014 76.2799 277.691 74.2791 278.704C72.2791 279.717 70.0456 280.158 67.8448 280.586C66.989 280.751 65.8142 280.934 65.2595 281.607Z" fill="#E0E0E0"/>
<path d="M63.1285 268.422C63.8803 265.846 64.6365 263.247 64.843 260.572C65.0495 257.896 64.6678 255.103 63.2794 252.807C60.6856 257.826 60.4229 263.69 63.0509 268.691" fill="#E0E0E0"/>
<path d="M71.8611 264.008C74.8942 258.495 81.0829 254.092 87.3442 253.475C84.9291 259.489 78.341 264.138 71.8611 264.008Z" fill="#E0E0E0"/>
<path d="M69.9529 265.089C74.4762 265.778 78.3303 268.667 82.5581 270.419C83.4624 270.793 84.4378 271.091 85.4076 270.965C86.378 270.837 87.3349 270.186 87.5528 269.232C87.7337 268.44 87.3727 267.599 86.8045 267.018C86.2356 266.438 85.4852 266.075 84.7347 265.763C80.1302 263.846 75.1925 263.798 70.3423 264.96" fill="#E0E0E0"/>
<path d="M67.335 268.261C68.3588 268.555 68.7091 269.085 69.5201 269.776C72.2713 272.119 75.5714 273.814 79.0787 274.686C79.4439 274.776 79.9231 274.813 80.104 274.483C80.262 274.195 80.062 273.846 79.8569 273.589C78.3873 271.75 76.2912 270.493 74.0854 269.671C71.8797 268.85 69.9679 267.86 67.3357 268.072" fill="#E0E0E0"/>
<path d="M64.3809 249.099C68.0591 252.532 73.2403 254.295 78.2499 253.818C78.4777 253.796 78.7262 253.759 78.8814 253.591C79.2303 253.212 78.8117 252.625 78.4051 252.308C74.3275 249.129 69.3884 247.811 64.3809 249.099Z" fill="#E0E0E0"/>
<path d="M67.8831 247.818C72.7453 244.172 79.4132 243.072 85.1889 244.962C83.0095 247.11 79.9856 248.266 76.9425 248.583C73.8987 248.899 70.8514 248.562 67.8831 247.818Z" fill="#E0E0E0"/>
<path d="M66.4911 239.012C66.0903 234.942 66.3509 231.73 66.0682 227.641C66.0454 227.314 65.9756 226.921 65.6695 226.803C65.2437 226.639 64.8891 227.162 64.7496 227.596C63.5378 231.366 64.1999 235.689 66.4847 238.922" fill="#E0E0E0"/>
<path d="M66.1985 239.462C68.9568 237.756 71.0266 235.528 72.9404 232.909C74.2719 231.087 75.3947 228.905 75.0921 226.668C73.2224 226.631 71.4452 227.662 70.2291 229.084C69.013 230.505 68.2896 232.28 67.7499 234.071C67.2095 235.862 66.8322 237.702 66.1985 239.462Z" fill="#E0E0E0"/>
<path d="M72.8222 237.621C78.8763 235.383 84.5247 232.052 89.4132 227.838C87.431 227.04 85.1626 227.518 83.1811 228.317C78.6542 230.144 74.9554 233.229 72.7354 237.577" fill="#E0E0E0"/>
<path d="M68.0613 241.688C71.1236 242.023 74.235 242.241 77.2738 241.733C80.2607 241.234 83.0831 240.05 85.8741 238.875C86.1055 238.778 86.3568 238.661 86.4586 238.431C86.5683 238.182 86.4515 237.878 86.2493 237.695C86.0471 237.512 85.7787 237.425 85.516 237.351C82.4814 236.503 79.2069 236.9 76.2215 237.907C73.2361 238.914 70.7882 240.11 68.0613 241.688Z" fill="#E0E0E0"/>
<path d="M50.5723 249.238C48.4825 245.021 48.6185 240.098 50.4234 235.751C51.6944 237.687 51.8496 240.153 51.6168 242.457C51.3846 244.761 50.6826 247.132 50.6378 249.448" fill="#E0E0E0"/>
<path d="M42.2248 245.028C37.008 244.928 31.789 247.151 28.2468 250.983C30.8506 251.391 33.5327 250.72 35.9008 249.564C38.2697 248.407 40.3743 246.785 42.4605 245.173" fill="#E0E0E0"/>
<path d="M36.6128 243.151C34.0603 242.944 31.6046 242.629 29.1511 243.381C26.6968 244.133 24.464 245.839 23.4636 248.203C25.851 248.472 28.271 247.873 30.4597 246.882C32.647 245.891 34.6363 244.517 36.6128 243.151Z" fill="#E0E0E0"/>
<path d="M44.9219 243.237C42.6257 241.733 40.2683 240.201 37.5947 239.578C34.9212 238.955 31.8232 239.415 29.9592 241.43C32.123 242.701 34.7489 242.85 37.2579 242.848C39.767 242.846 42.8436 242.817 45.2088 243.655" fill="#E0E0E0"/>
<path d="M44.9361 243.359C41.0108 239.504 39.5227 232.58 41.102 227.31C44.1871 231.998 45.569 237.782 44.9361 243.359Z" fill="#E0E0E0"/>
<path d="M55.7292 232.437C56.4697 230.716 56.9902 228.91 57.6545 227.158C58.3188 225.407 59.144 223.682 60.3993 222.292C61.6545 220.901 63.3897 219.865 65.2608 219.772C64.0896 225.076 60.5666 229.815 55.8261 232.465" fill="#E0E0E0"/>
<path d="M53.7764 234.713C52.551 233.027 51.1356 230.737 49.4745 229.479C47.8134 228.22 45.6503 227.459 43.6226 227.941C45.6845 231.628 49.5806 234.226 53.7764 234.713Z" fill="#E0E0E0"/>
<path d="M54.1664 232.577C53.3633 230.537 52.5545 228.475 52.2298 226.307C51.9051 224.138 52.1023 221.822 53.2116 219.93C55.3662 224.003 56.0604 228.375 54.2761 232.624" fill="#E0E0E0"/>
<path d="M55.7493 219.93C56.9696 215.892 60.6671 212.92 64.6585 211.555C65.1619 211.383 65.6952 211.24 66.2207 211.321C66.7461 211.402 67.2616 211.762 67.372 212.282C67.5172 212.969 66.9505 213.585 66.4165 214.041C63.3079 216.698 59.6546 218.716 55.7493 219.93Z" fill="#E0E0E0"/>
<path d="M55.7933 216.628C55.9485 214.025 56.1109 211.383 56.9574 208.917C57.804 206.451 59.4359 204.137 61.8104 203.057C62.2141 205.687 61.0543 208.302 59.6552 210.565C58.2561 212.828 56.5701 214.963 55.7292 217.487" fill="#E0E0E0"/>
<path d="M55.7294 218.42C54.7205 215.477 54.6165 211.74 52.8543 209.176C51.6226 207.384 49.6504 206.163 48.5888 204.265C47.8839 206.038 48.0996 208.08 48.8365 209.84C49.5735 211.599 50.7924 213.114 52.0961 214.507C53.4005 215.899 54.5169 216.947 55.7294 218.42Z" fill="#E0E0E0"/>
<path d="M55.7492 305.077C55.6709 305.077 55.6032 285.447 55.5975 261.238C55.5919 237.021 55.6509 217.395 55.7293 217.395C55.8076 217.395 55.8752 237.02 55.8809 261.237C55.8866 285.447 55.8275 305.077 55.7492 305.077Z" fill="#E0E0E0"/>
<path d="M72.9036 246.276C72.9093 246.295 72.6458 246.393 72.1659 246.553C71.6355 246.732 70.9534 246.963 70.1346 247.239C68.4223 247.822 66.0691 248.667 63.5159 249.714C60.9875 250.798 58.6031 251.679 57.2453 252.856C56.5667 253.436 56.1773 254.065 55.985 254.523C55.79 254.983 55.7558 255.265 55.7294 255.26C55.7202 255.259 55.723 255.188 55.738 255.054C55.7608 254.922 55.7942 254.725 55.8818 254.483C56.047 253.999 56.4258 253.326 57.1114 252.706C57.7942 252.083 58.744 251.524 59.832 251.015C60.9199 250.508 62.1267 249.977 63.4076 249.451C65.9687 248.401 68.3397 247.583 70.072 247.048C70.937 246.778 71.6441 246.579 72.1332 246.448C72.6245 246.32 72.8979 246.258 72.9036 246.276Z" fill="#E0E0E0"/>
<path d="M78.5263 232.465C78.5327 232.472 78.4615 232.548 78.3191 232.686C78.1517 232.842 77.9438 233.038 77.6889 233.277C77.1037 233.809 76.3077 234.532 75.3372 235.413C73.3066 237.221 70.5533 239.673 67.5102 242.382C64.455 245.101 61.8149 247.7 59.9851 249.657C59.0687 250.634 58.3475 251.443 57.8548 252.009C57.6248 252.271 57.4368 252.486 57.2859 252.658C57.1541 252.805 57.0808 252.879 57.0737 252.873C57.0659 252.867 57.1242 252.78 57.2417 252.622C57.3606 252.464 57.5336 252.229 57.77 251.937C58.2371 251.349 58.937 250.518 59.837 249.521C61.6341 247.524 64.2599 244.896 67.3208 242.171C70.3867 239.457 73.1763 237.02 75.2041 235.263C76.1994 234.409 77.0154 233.709 77.6156 233.194C77.884 232.971 78.104 232.789 78.2806 232.642C78.4358 232.519 78.5198 232.458 78.5263 232.465Z" fill="#E0E0E0"/>
<path d="M64.2127 245.148C64.1322 245.112 64.7709 243.638 65.4067 241.775C66.0489 239.912 66.3508 238.339 66.432 238.352C66.506 238.359 66.3252 239.978 65.6751 241.865C65.3555 242.807 65.0023 243.636 64.7246 244.224C64.4469 244.813 64.2476 245.163 64.2127 245.148Z" fill="#E0E0E0"/>
<path d="M55.767 257.029C55.7513 257.04 55.584 256.845 55.2963 256.482C54.9766 256.073 54.5729 255.553 54.0902 254.935C53.077 253.626 51.6765 251.818 50.1066 249.84C48.5359 247.862 47.0934 246.087 46.0475 244.804C45.5548 244.194 45.1411 243.682 44.815 243.278C44.5273 242.915 44.375 242.708 44.3899 242.695C44.4049 242.683 44.585 242.865 44.899 243.206C45.2137 243.547 45.6587 244.048 46.2012 244.674C47.287 245.926 48.7559 247.682 50.3287 249.664C51.9001 251.645 53.2778 253.474 54.2504 254.815C54.7367 255.486 55.1247 256.033 55.3846 256.416C55.6459 256.8 55.7826 257.017 55.767 257.029Z" fill="#E0E0E0"/>
<path d="M52.0055 252.2C51.9592 252.25 50.956 251.059 50.4298 249.25C50.0418 247.976 50.0247 246.809 50.0724 246.276L50.1977 246.286C50.1415 246.513 50.1009 246.634 50.0781 246.63C50.056 246.626 50.0546 246.5 50.0731 246.266L50.1984 246.276C50.244 246.805 50.3244 247.931 50.7018 249.17C51.2095 250.923 52.0817 252.152 52.0055 252.2Z" fill="#E0E0E0"/>
<path d="M47.1496 246.092C47.1133 246.131 46.7901 245.724 46.0496 245.453C45.3148 245.169 44.2084 245.106 42.9951 245.21C41.7804 245.299 40.6954 245.516 39.9193 245.707C39.1425 245.899 38.6683 246.051 38.6533 246.011C38.6405 245.977 39.0926 245.759 39.8652 245.514C40.637 245.271 41.737 245.018 42.9738 244.928C44.2012 244.822 45.3654 244.916 46.1244 245.267C46.8947 245.608 47.1753 246.085 47.1496 246.092Z" fill="#E0E0E0"/>
<path d="M45.9991 244.612C45.977 244.656 45.3583 244.355 44.3138 243.998C43.2714 243.639 41.7855 243.263 40.1087 243.132C38.4305 243.007 36.9054 243.154 35.8203 243.35C34.7338 243.544 34.0759 243.748 34.0617 243.701C34.0553 243.683 34.2148 243.616 34.5088 243.51C34.8015 243.401 35.2365 243.277 35.7819 243.153C36.8705 242.903 38.4227 242.721 40.1315 242.849C41.8389 242.982 43.3455 243.397 44.3836 243.809C44.9033 244.014 45.3149 244.202 45.5876 244.355C45.861 244.504 46.0076 244.595 45.9991 244.612Z" fill="#E0E0E0"/>
<path d="M55.7294 238.352C55.6532 238.371 55.1028 236.459 54.5005 234.082C53.8974 231.704 53.4702 229.762 53.5464 229.742C53.6226 229.723 54.173 231.635 54.776 234.012C55.3784 236.39 55.8056 238.333 55.7294 238.352Z" fill="#E0E0E0"/>
<path d="M55.8076 238.352C55.7229 238.38 55.369 237.102 54.4456 235.796C53.5463 234.461 52.3986 233.792 52.4406 233.727C52.4555 233.697 52.7724 233.814 53.2145 234.125C53.6581 234.434 54.2056 234.957 54.6777 235.633C55.6367 236.992 55.876 238.347 55.8076 238.352Z" fill="#E0E0E0"/>
<path d="M55.7494 294.612C55.7188 294.617 55.6611 294.14 55.4397 293.307C55.2211 292.474 54.8088 291.292 54.1282 289.909C52.7718 287.137 50.304 283.623 47.1684 280.104C45.6148 278.329 44.1068 276.654 42.8273 275.05C41.5457 273.449 40.4919 271.923 39.723 270.573C38.9512 269.225 38.4492 268.068 38.1559 267.251C38.012 266.842 37.9059 266.522 37.8483 266.3C37.7863 266.08 37.7579 265.964 37.7678 265.962C37.7935 265.954 37.9359 266.411 38.2591 267.211C38.5823 268.011 39.1085 269.146 39.896 270.472C40.6813 271.798 41.7436 273.302 43.0302 274.886C44.3147 276.473 45.8248 278.139 47.3812 279.917C50.5254 283.446 52.9875 287.005 54.3083 289.822C54.9726 291.228 55.3592 292.433 55.5465 293.281C55.6376 293.706 55.6988 294.037 55.7202 294.266C55.7487 294.492 55.7586 294.612 55.7494 294.612Z" fill="#E0E0E0"/>
<path d="M71.2501 277.104C71.2594 277.125 70.9625 277.275 70.4377 277.561C69.9165 277.853 69.1775 278.305 68.3302 278.953C67.4829 279.602 66.536 280.454 65.5627 281.477C64.5915 282.503 63.5904 283.695 62.5694 284.972C60.5274 287.534 58.6185 289.801 57.475 291.61C56.8948 292.507 56.4726 293.264 56.1963 293.795C55.9172 294.325 55.7698 294.622 55.7492 294.613C55.7406 294.609 55.7663 294.53 55.8246 294.382C55.8852 294.236 55.967 294.017 56.0973 293.746C56.3444 293.198 56.7424 292.421 57.3056 291.502C58.4163 289.649 60.3102 287.351 62.3487 284.794C63.3718 283.514 64.3843 282.32 65.374 281.296C66.3651 280.273 67.3377 279.427 68.2099 278.792C69.0821 278.156 69.8453 277.727 70.3865 277.462C70.6556 277.326 70.8756 277.244 71.0209 277.181C71.1675 277.122 71.2458 277.095 71.2501 277.104Z" fill="#E0E0E0"/>
<path d="M71.5536 282.784C71.5571 282.825 70.8978 282.905 69.8362 283.033C68.7789 283.17 67.3065 283.346 65.7636 283.835C64.2264 284.336 62.949 285.099 62.1174 285.749C61.2766 286.399 60.8807 286.936 60.8415 286.905C60.828 286.895 60.9099 286.749 61.0957 286.51C61.2794 286.269 61.5799 285.948 61.9907 285.594C62.8095 284.888 64.0989 284.08 65.6767 283.566C67.2566 283.066 68.749 282.921 69.8163 282.834C70.8871 282.756 71.5507 282.747 71.5536 282.784Z" fill="#E0E0E0"/>
<path d="M61.3428 286.281C61.2531 286.23 62.0271 285.048 62.6273 283.458C63.1905 281.854 63.3222 280.447 63.4233 280.464C63.4596 280.468 63.4582 280.82 63.3948 281.385C63.3272 281.948 63.1919 282.731 62.8943 283.555C62.5945 284.378 62.2008 285.067 61.8982 285.546C61.592 286.024 61.3749 286.301 61.3428 286.281Z" fill="#E0E0E0"/>
<path d="M76.2704 261.856C76.274 261.865 76.1793 261.915 75.9956 262.002C75.7827 262.098 75.5157 262.219 75.1889 262.368C74.8358 262.52 74.4064 262.712 73.923 262.967C73.4374 263.217 72.8714 263.475 72.2825 263.829C71.9835 263.999 71.6709 264.177 71.3455 264.362C71.0209 264.548 70.699 264.77 70.3573 264.985C69.6666 265.403 68.9753 265.92 68.2362 266.447C66.7916 267.543 65.2722 268.841 63.809 270.34C62.3601 271.853 61.1148 273.416 60.0682 274.898C59.5669 275.654 59.0749 276.363 58.6798 277.067C58.4776 277.416 58.2668 277.745 58.091 278.076C57.9172 278.407 57.7506 278.726 57.5904 279.031C57.2565 279.632 57.0187 280.207 56.7851 280.7C56.5466 281.192 56.3693 281.627 56.2305 281.985C56.0931 282.317 55.9813 282.588 55.8916 282.804C55.8111 282.991 55.7641 283.087 55.7549 283.084C55.7456 283.081 55.7741 282.978 55.8375 282.785C55.9144 282.563 56.0098 282.286 56.1273 281.945C56.2511 281.579 56.4142 281.137 56.6399 280.636C56.8606 280.134 57.0877 279.551 57.4117 278.94C57.5669 278.63 57.73 278.307 57.8987 277.971C58.0703 277.635 58.2775 277.302 58.4769 276.947C58.8656 276.233 59.354 275.514 59.8532 274.748C60.8955 273.247 62.1451 271.666 63.6054 270.14C65.0799 268.63 66.6164 267.327 68.0803 266.234C68.8286 265.709 69.5299 265.197 70.2313 264.783C70.578 264.572 70.9048 264.353 71.2345 264.17C71.5648 263.99 71.8824 263.816 72.1864 263.651C72.7852 263.306 73.3612 263.059 73.8546 262.821C74.3466 262.579 74.7845 262.4 75.1455 262.264C75.4816 262.135 75.7557 262.03 75.975 261.946C76.1651 261.878 76.2669 261.846 76.2704 261.856Z" fill="#E0E0E0"/>
<path d="M64.002 270.075C63.9771 270.07 64.1138 269.594 64.6763 269.07C65.2253 268.547 66.2278 268.063 67.394 268.027C68.5574 267.996 69.5656 268.322 70.2541 268.586C70.9469 268.858 71.3492 269.079 71.3356 269.111C71.3193 269.15 70.8885 268.995 70.1886 268.775C69.4916 268.562 68.5054 268.28 67.4033 268.31C66.3054 268.344 65.357 268.767 64.8073 269.222C64.2455 269.675 64.0476 270.102 64.002 270.075Z" fill="#E0E0E0"/>
<path d="M62.1687 271.967C62.091 271.923 62.7824 270.908 62.9405 269.456C63.122 268.005 62.682 266.859 62.7674 266.834C62.7988 266.822 62.9526 267.089 63.0864 267.566C63.2203 268.041 63.3093 268.733 63.2224 269.489C63.1327 270.243 62.8878 270.897 62.6478 271.329C62.4079 271.762 62.1957 271.986 62.1687 271.967Z" fill="#E0E0E0"/>
<path d="M42.1914 297.426C42.6143 304.927 44.8749 312.557 48.3523 320.27H63.4724C66.7882 312.633 68.8928 305.016 69.2666 297.426H42.1914Z" fill="#E0E0E0"/>
<path d="M66.8165 309.565C66.8165 309.643 61.8382 309.706 55.6979 309.706C49.5562 309.706 44.5786 309.643 44.5786 309.565C44.5786 309.486 49.5562 309.423 55.6979 309.423C61.8382 309.423 66.8165 309.486 66.8165 309.565Z" fill="#FAFAFA"/>
<path d="M66.4785 312.282C66.4785 312.361 61.8113 312.424 56.0555 312.424C50.2976 312.424 45.6311 312.361 45.6311 312.282C45.6311 312.204 50.2976 312.141 56.0555 312.141C61.8113 312.141 66.4785 312.204 66.4785 312.282Z" fill="#FAFAFA"/>
<path d="M48.5958 302.351C48.6741 302.351 48.7375 303.91 48.7375 305.833C48.7375 307.757 48.6741 309.317 48.5958 309.317C48.5175 309.317 48.4541 307.757 48.4541 305.833C48.4541 303.91 48.5175 302.351 48.5958 302.351Z" fill="#FAFAFA"/>
<path d="M56.6976 302.351C56.7759 302.351 56.8393 303.966 56.8393 305.957C56.8393 307.95 56.7759 309.564 56.6976 309.564C56.6193 309.564 56.5559 307.95 56.5559 305.957C56.5559 303.966 56.6193 302.351 56.6976 302.351Z" fill="#FAFAFA"/>
<path d="M64.3033 302.29C64.3816 302.29 64.445 303.937 64.445 305.969C64.445 308.001 64.3816 309.648 64.3033 309.648C64.225 309.648 64.1616 308.001 64.1616 305.969C64.1609 303.937 64.225 302.29 64.3033 302.29Z" fill="#FAFAFA"/>
<path d="M68.7873 302.351C68.7873 302.429 62.9482 302.493 55.747 302.493C48.543 302.493 42.7053 302.429 42.7053 302.351C42.7053 302.273 48.543 302.209 55.747 302.209C62.9482 302.209 68.7873 302.273 68.7873 302.351Z" fill="#FAFAFA"/>
<path d="M322.248 64.5669H317.995V156.004H322.248V64.5669Z" fill="#E0E0E0"/>
<path d="M256.305 65.3352V156.07C256.305 156.104 256.332 156.131 256.366 156.131H317.288C317.322 156.131 317.349 156.103 317.349 156.07V65.3352C317.349 65.301 317.321 65.2739 317.288 65.2739H256.366C256.332 65.2739 256.305 65.3017 256.305 65.3352Z" fill="#F5F5F5"/>
<path d="M317.995 156.839H255.658C255.625 156.839 255.597 156.811 255.597 156.777V64.6281C255.597 64.594 255.625 64.5669 255.658 64.5669H317.995C318.029 64.5669 318.056 64.5947 318.056 64.6281V156.777C318.056 156.811 318.029 156.839 317.995 156.839ZM257.073 155.425H316.58C316.615 155.425 316.642 155.397 316.642 155.363V66.0429C316.642 66.0087 316.614 65.9816 316.58 65.9816H257.073C257.039 65.9816 257.012 66.0094 257.012 66.0429V155.363C257.012 155.397 257.039 155.425 257.073 155.425Z" fill="#EBEBEB"/>
<path d="M262.451 70.9406V150.405C262.451 150.439 262.479 150.466 262.513 150.466H311.249C311.283 150.466 311.31 150.438 311.31 150.405V70.9406C311.31 70.9065 311.282 70.8794 311.249 70.8794H262.513C262.478 70.8787 262.451 70.9065 262.451 70.9406Z" fill="#FAFAFA"/>
<path d="M300.498 125.597H273.156C273.131 125.597 273.111 125.576 273.111 125.551V93.4875C273.111 93.4618 273.131 93.4419 273.156 93.4419H300.498C300.524 93.4419 300.544 93.4625 300.544 93.4875V125.551C300.544 125.576 300.523 125.597 300.498 125.597Z" fill="#EBEBEB"/>
<path d="M298.372 121.662C298.408 121.765 297.054 122.358 294.478 122.056C293.209 121.884 291.631 121.427 290.1 120.306C288.602 119.184 287.179 117.374 286.698 114.955C286.197 112.555 287 109.563 289.3 107.641C289.871 107.164 290.536 106.761 291.273 106.485C292.056 106.193 292.901 106.098 293.741 106.2C294.575 106.302 295.46 106.593 296.209 107.278C296.965 107.964 297.378 109.123 297.182 110.153C297.003 111.193 296.436 111.99 295.827 112.621C295.198 113.262 294.486 113.736 293.761 114.143C292.286 114.957 290.598 115.469 288.83 115.551C287.07 115.635 285.21 115.274 283.576 114.355C281.957 113.447 280.574 112.069 279.709 110.346C278.832 108.645 278.552 106.58 279.015 104.734C279.46 102.894 280.506 101.249 281.974 100.109C282.711 99.5376 283.544 99.1161 284.454 98.8562C285.371 98.6213 286.315 98.5771 287.247 98.7694C288.169 98.963 289.111 99.4166 289.781 100.199C290.462 100.975 290.766 101.988 290.775 102.907C290.789 103.832 290.537 104.733 290.114 105.488C289.698 106.244 289.139 106.858 288.55 107.368C287.363 108.373 286.031 109.034 284.664 109.433C283.297 109.826 281.895 109.929 280.575 109.748C279.259 109.563 278.019 109.078 277.017 108.385C274.995 107.013 273.826 104.928 273.618 103.001C273.389 101.04 274.107 99.4315 274.878 98.3863C275.67 97.3204 276.581 96.7758 277.207 96.5258C277.848 96.283 278.213 96.2916 278.229 96.3528C278.256 96.4404 277.939 96.5814 277.418 96.9281C276.909 97.2813 276.19 97.8772 275.607 98.8747C275.037 99.853 274.567 101.272 274.866 102.817C275.137 104.357 276.19 106.011 277.887 107.049C279.549 108.105 281.881 108.377 284.121 107.643C285.23 107.285 286.336 106.687 287.24 105.879C288.137 105.074 288.748 104.039 288.697 102.956C288.669 101.87 287.984 101.104 286.819 100.881C286.252 100.77 285.616 100.806 285.026 100.966C284.441 101.145 283.846 101.444 283.334 101.852C282.298 102.667 281.515 103.903 281.2 105.254C280.875 106.603 281.069 108.033 281.724 109.33C282.368 110.623 283.442 111.701 284.676 112.398C285.903 113.098 287.331 113.396 288.737 113.343C290.145 113.293 291.525 112.895 292.731 112.251C293.34 111.922 293.901 111.551 294.324 111.128C294.758 110.703 295.059 110.219 295.133 109.81C295.212 109.395 295.086 109.036 294.806 108.749C294.512 108.458 294.012 108.238 293.485 108.168C292.956 108.087 292.407 108.137 291.93 108.3C291.405 108.48 290.916 108.754 290.481 109.094C289.61 109.776 288.956 110.71 288.59 111.698C288.218 112.688 288.131 113.711 288.272 114.688C288.562 116.65 289.667 118.273 290.886 119.319C292.129 120.37 293.501 120.911 294.644 121.194C296.961 121.733 298.354 121.466 298.372 121.662Z" fill="#E0E0E0"/>
<path d="M322.47 27.5H255.375V35.5349H322.47V27.5Z" fill="#455A64"/>
<path d="M311.808 27.2676H269.111C266.991 27.2676 265.272 25.5488 265.272 23.4285C265.272 21.3081 266.991 19.5894 269.111 19.5894H311.808C313.928 19.5894 315.647 21.3081 315.647 23.4285C315.648 25.5488 313.928 27.2676 311.808 27.2676Z" fill="#95AFF1"/>
<path d="M268.435 27.1474C268.401 27.1097 268.811 26.6412 269.499 25.9171C269.88 25.5262 270.288 25.1068 270.722 24.6604C270.958 24.4276 271.195 24.1798 271.375 23.8993C271.556 23.6209 271.659 23.2976 271.556 22.9993C271.461 22.7003 271.186 22.4731 270.898 22.2951C270.606 22.1193 270.284 21.9676 269.994 21.8117C269.443 21.5176 268.925 21.2407 268.442 20.9829C267.563 20.5016 267.032 20.1805 267.054 20.1349C267.077 20.0894 267.651 20.3272 268.56 20.7487C269.054 20.9844 269.584 21.2371 270.148 21.5063C270.445 21.6558 270.757 21.7925 271.086 21.984C271.401 22.1755 271.761 22.4404 271.908 22.884C272.06 23.3268 271.892 23.7868 271.68 24.0965C271.465 24.4205 271.209 24.6711 270.968 24.8961C270.511 25.3254 270.082 25.7291 269.682 26.1051C268.943 26.785 268.469 27.1852 268.435 27.1474Z" fill="#263238"/>
<path d="M307.842 23.1929C307.842 23.2955 299.831 23.3781 289.952 23.3781C280.068 23.3781 272.06 23.2947 272.06 23.1929C272.06 23.0911 280.069 23.0078 289.952 23.0078C299.831 23.0078 307.842 23.0904 307.842 23.1929Z" fill="#263238"/>
<path d="M313.125 27.1527C313.104 27.194 312.486 26.9768 311.516 26.5283C311.034 26.299 310.464 26.0064 309.88 25.587C309.588 25.3777 309.295 25.1335 309.029 24.8366C308.895 24.6849 308.774 24.5254 308.656 24.3745C308.538 24.2157 308.392 24.0626 308.308 23.8077C308.216 23.5336 308.353 23.2488 308.486 23.0865C308.616 22.9184 308.755 22.7753 308.895 22.6386C309.176 22.3666 309.46 22.1274 309.734 21.9038C310.287 21.4617 310.772 21.0779 311.168 20.7248C311.954 20.012 312.536 19.6575 312.568 19.7144C312.584 19.7493 312.089 20.1544 311.346 20.917C310.973 21.2944 310.485 21.7173 309.954 22.1651C309.69 22.393 309.415 22.6336 309.151 22.8964C308.904 23.1569 308.57 23.4674 308.664 23.7016C308.769 23.9693 309.094 24.3275 309.301 24.5938C309.541 24.8686 309.812 25.1043 310.084 25.3115C310.629 25.7266 311.175 26.0384 311.635 26.2933C312.563 26.7974 313.15 27.1021 313.125 27.1527Z" fill="#263238"/>
<path d="M311.808 19.5588H269.111C266.991 19.5588 265.272 17.84 265.272 15.7197C265.272 13.5993 266.991 11.8806 269.149 12.0066H311.846C313.929 11.8799 315.648 13.5986 315.648 15.7197C315.648 17.84 313.928 19.5588 311.808 19.5588Z" fill="#95AFF1"/>
<path d="M268.435 19.4384C268.401 19.4007 268.811 18.9322 269.499 18.2081C269.88 17.8172 270.288 17.3979 270.722 16.9514C270.958 16.7186 271.195 16.4708 271.375 16.1903C271.556 15.9126 271.659 15.5887 271.556 15.2903C271.461 14.992 271.186 14.7642 270.898 14.5862C270.606 14.4103 270.284 14.2586 269.994 14.1027C269.443 13.8087 268.925 13.5317 268.442 13.274C267.563 12.7926 267.032 12.4715 267.054 12.426C267.077 12.3804 267.651 12.6182 268.56 13.0397C269.054 13.2754 269.584 13.5281 270.148 13.7973C270.445 13.9468 270.757 14.0835 271.086 14.275C271.401 14.4666 271.761 14.7314 271.908 15.175C272.06 15.6179 271.892 16.0771 271.68 16.3875C271.465 16.7115 271.209 16.9621 270.968 17.1871C270.511 17.6164 270.082 18.0201 269.682 18.3961C268.943 19.076 268.469 19.4762 268.435 19.4384Z" fill="#263238"/>
<path d="M307.842 15.484C307.842 15.5865 299.831 15.6691 289.952 15.6691C280.068 15.6691 272.06 15.5858 272.06 15.484C272.06 15.3814 280.069 15.2988 289.952 15.2988C299.831 15.2981 307.842 15.3814 307.842 15.484Z" fill="#263238"/>
<path d="M313.125 19.4442C313.104 19.4855 312.486 19.2683 311.516 18.8198C311.034 18.5912 310.464 18.2979 309.88 17.8785C309.588 17.6692 309.295 17.425 309.029 17.1281C308.895 16.9764 308.774 16.8169 308.656 16.666C308.538 16.5072 308.392 16.3534 308.308 16.0992C308.216 15.8251 308.353 15.5403 308.486 15.378C308.616 15.2099 308.755 15.0668 308.895 14.9301C309.176 14.6581 309.46 14.4182 309.734 14.1953C310.287 13.7532 310.772 13.3694 311.168 13.0163C311.954 12.3035 312.536 11.949 312.568 12.0059C312.584 12.0408 312.089 12.4459 311.346 13.2085C310.973 13.5859 310.485 14.0088 309.954 14.4566C309.69 14.6845 309.415 14.9251 309.151 15.1879C308.904 15.4485 308.57 15.7589 308.664 15.9931C308.769 16.2608 309.094 16.619 309.301 16.8853C309.541 17.1601 309.812 17.3958 310.084 17.603C310.629 18.0181 311.175 18.3299 311.635 18.5848C312.563 19.0889 313.15 19.3936 313.125 19.4442Z" fill="#263238"/>
<path d="M311.283 19.7418C311.283 19.8443 301.748 19.9269 289.989 19.9269C278.225 19.9269 268.692 19.8443 268.692 19.7418C268.692 19.6392 278.225 19.5566 289.989 19.5566C301.749 19.5559 311.283 19.6392 311.283 19.7418Z" fill="#263238"/>
<path d="M313.037 24.2104C313.108 24.2104 313.165 26.6284 313.165 29.611C313.165 32.5943 313.108 35.0115 313.037 35.0115C312.967 35.0115 312.91 32.5935 312.91 29.611C312.91 26.6291 312.967 24.2104 313.037 24.2104Z" fill="#263238"/>
<path d="M317.989 34.0894H308.18V51.0791H317.989V34.0894Z" fill="white"/>
<path d="M318.07 42.9595H308.261V51.0791H318.07V42.9595Z" fill="#95AFF1"/>
<path d="M316.397 40.1777C316.397 40.2482 314.893 40.3052 313.038 40.3052C311.183 40.3052 309.679 40.2482 309.679 40.1777C309.679 40.1073 311.183 40.0503 313.038 40.0503C314.892 40.0503 316.397 40.1073 316.397 40.1777Z" fill="#263238"/>
<path d="M316.269 41.3916C316.269 41.4621 314.766 41.5191 312.911 41.5191C311.055 41.5191 309.552 41.4621 309.552 41.3916C309.552 41.3211 311.055 41.2642 312.911 41.2642C314.765 41.2642 316.269 41.3211 316.269 41.3916Z" fill="#263238"/>
<path d="M313.465 48.9523V49.5496H312.818V48.9736C312.28 48.9359 311.768 48.78 311.455 48.5642L311.806 47.7775C312.14 47.9982 312.613 48.1491 313.049 48.1491C313.492 48.1491 313.664 48.0252 313.664 47.8422C313.664 47.2449 311.52 47.6806 311.52 46.2808C311.52 45.6884 311.946 45.1872 312.818 45.0797V44.4873H313.465V45.069C313.863 45.101 314.256 45.2093 314.558 45.3866L314.229 46.1783C313.868 45.9846 313.513 45.8878 313.185 45.8878C312.738 45.8878 312.576 46.0388 312.576 46.2267C312.576 46.8027 314.714 46.372 314.714 47.7618C314.714 48.3328 314.305 48.8284 313.465 48.9523Z" fill="white"/>
<path d="M313.818 36.9971H309.803V38.3812H313.818V36.9971Z" fill="#263238"/>
<path d="M317.989 51.0793C317.982 51.0722 317.976 50.9554 317.969 50.7376C317.963 50.4898 317.956 50.1765 317.947 49.7878C317.936 48.9291 317.92 47.7415 317.9 46.2619C317.88 43.2352 317.851 39.0202 317.816 34.0896L317.989 34.2619C314.965 34.2662 311.65 34.2704 308.181 34.2747C308.138 34.3146 308.531 33.9258 308.365 34.0924V34.0974V34.1067V34.1259V34.1636V34.2398V34.3915V34.6941V35.2971C308.365 35.698 308.365 36.0967 308.364 36.4933C308.363 37.2857 308.362 38.0675 308.362 38.8386C308.359 40.3787 308.356 41.8725 308.353 43.3071C308.342 46.1694 308.331 48.7924 308.322 51.0779L308.179 50.9348C311.143 50.9661 313.569 50.9925 315.298 51.0103C316.125 51.0252 316.785 51.0373 317.275 51.0466C317.733 51.0594 317.979 51.0694 317.989 51.0793C317.999 51.0893 317.773 51.0993 317.332 51.1107C316.85 51.1199 316.201 51.1313 315.387 51.147C313.637 51.1655 311.181 51.1911 308.179 51.2231L308.037 51.2246L308.036 51.08C308.027 48.7945 308.016 46.1708 308.005 43.3093C308.002 41.8746 307.999 40.3808 307.997 38.8408C307.996 38.0704 307.995 37.2879 307.994 36.4954C307.994 36.0996 307.994 35.7008 307.994 35.2993V34.6962V34.3936V34.2419V34.1658V34.128V34.1088V34.0995V34.0946C307.828 34.259 308.218 33.8646 308.18 33.9059C311.65 33.9102 314.964 33.9144 317.988 33.9187H318.162L318.16 34.091C318.126 39.0679 318.097 43.3221 318.076 46.3773C318.056 47.8404 318.041 49.0145 318.029 49.8639C318.021 50.2385 318.014 50.5403 318.008 50.7789C318.004 50.9832 317.997 51.0864 317.989 51.0793Z" fill="#263238"/>
<path d="M89.4291 84.9473H22.3337V92.9822H89.4291V84.9473Z" fill="#455A64"/>
<path d="M77.5087 84.9472H34.8115C32.6912 84.9472 30.9724 83.2285 30.9724 81.1081C30.9724 78.9878 32.6912 77.269 34.8115 77.269H77.508C79.6283 77.269 81.3471 78.9878 81.3471 81.1081C81.3478 83.2285 79.6291 84.9472 77.5087 84.9472Z" fill="#376AEF"/>
<path d="M34.1352 84.8269C34.101 84.7891 34.5111 84.3206 35.1996 83.5965C35.5798 83.2056 35.9878 82.7863 36.4221 82.3398C36.6578 82.107 36.8956 81.8592 37.075 81.5787C37.2566 81.3003 37.3591 80.9771 37.2559 80.678C37.1612 80.3797 36.8863 80.1519 36.598 79.9739C36.3061 79.798 35.9842 79.6463 35.6945 79.4904C35.1434 79.1964 34.625 78.9194 34.1423 78.6616C33.2637 78.1803 32.7318 77.8592 32.7546 77.8137C32.7774 77.7681 33.3513 78.0059 34.2605 78.4274C34.7546 78.6631 35.2843 78.9158 35.8483 79.185C36.1452 79.3345 36.457 79.4712 36.786 79.6627C37.1014 79.8542 37.4609 80.1198 37.6083 80.5627C37.7607 81.0055 37.5927 81.4648 37.3798 81.7752C37.1647 82.0992 36.9091 82.3498 36.6692 82.5748C36.2121 83.0041 35.7827 83.4078 35.3826 83.7838C34.6428 84.4644 34.1694 84.8646 34.1352 84.8269Z" fill="#263238"/>
<path d="M73.5423 80.8726C73.5423 80.9752 65.5316 81.0577 55.6519 81.0577C45.7686 81.0577 37.76 80.9744 37.76 80.8726C37.76 80.7708 45.7693 80.6875 55.6519 80.6875C65.5316 80.6875 73.5423 80.7701 73.5423 80.8726Z" fill="#263238"/>
<path d="M78.8252 84.8324C78.8052 84.8737 78.1858 84.6565 77.2161 84.208C76.734 83.9794 76.1637 83.6861 75.5799 83.2667C75.2887 83.0574 74.9953 82.8131 74.729 82.5162C74.5952 82.3646 74.4742 82.2051 74.356 82.0542C74.2385 81.8954 74.0918 81.7423 74.0085 81.4874C73.9159 81.2133 74.0534 80.9285 74.1858 80.7662C74.3161 80.5981 74.4556 80.455 74.5952 80.3183C74.8757 80.0463 75.1605 79.8071 75.4339 79.5835C75.9872 79.1414 76.472 78.7576 76.8686 78.4044C77.6547 77.6917 78.2364 77.3372 78.2677 77.3941C78.2841 77.429 77.7892 77.8341 77.0466 78.5967C76.6735 78.974 76.1851 79.397 75.6539 79.8448C75.3898 80.0727 75.1157 80.3133 74.8515 80.576C74.6037 80.8366 74.2698 81.1471 74.3645 81.3813C74.4692 81.649 74.7946 82.0072 75.001 82.2734C75.241 82.5483 75.5122 82.784 75.7849 82.9912C76.3303 83.4062 76.8757 83.7181 77.3364 83.973C78.2634 84.4771 78.8501 84.7818 78.8252 84.8324Z" fill="#263238"/>
<path d="M77.5087 77.2383H34.8115C32.6912 77.2383 30.9724 75.5195 30.9724 73.3992C30.9724 71.2788 32.6912 69.5601 34.8115 69.5601H77.508C79.6283 69.5601 81.3471 71.2788 81.3471 73.3992C81.3478 75.5195 79.6291 77.2383 77.5087 77.2383Z" fill="#376AEF"/>
<path d="M34.1352 77.1181C34.101 77.0804 34.5111 76.6119 35.1996 75.8878C35.5798 75.4969 35.9878 75.0775 36.4221 74.6311C36.6578 74.3983 36.8956 74.1505 37.075 73.87C37.2566 73.5916 37.3591 73.2684 37.2559 72.97C37.1612 72.671 36.8863 72.4439 36.598 72.2659C36.3061 72.09 35.9842 71.9383 35.6945 71.7824C35.1434 71.4884 34.625 71.2114 34.1423 70.9536C33.2637 70.4723 32.7318 70.1512 32.7546 70.1056C32.7774 70.0601 33.3513 70.2979 34.2605 70.7194C34.7546 70.9551 35.2843 71.2085 35.8483 71.477C36.1452 71.6265 36.457 71.7632 36.786 71.9547C37.1014 72.1462 37.4609 72.4111 37.6083 72.8547C37.7607 73.2975 37.5927 73.7568 37.3798 74.0672C37.1647 74.3912 36.9091 74.6418 36.6692 74.8668C36.2121 75.2961 35.7827 75.6998 35.3826 76.0758C34.6428 76.7557 34.1694 77.1559 34.1352 77.1181Z" fill="#263238"/>
<path d="M73.5423 73.1636C73.5423 73.2662 65.5316 73.3488 55.6519 73.3488C45.7686 73.3488 37.76 73.2655 37.76 73.1636C37.76 73.0611 45.7693 72.9785 55.6519 72.9785C65.5316 72.9778 73.5423 73.0611 73.5423 73.1636Z" fill="#263238"/>
<path d="M78.8252 77.1234C78.8052 77.1647 78.1858 76.9475 77.2161 76.499C76.734 76.2704 76.1637 75.9771 75.5799 75.5577C75.2887 75.3484 74.9953 75.1042 74.729 74.8073C74.5952 74.6549 74.4742 74.4961 74.356 74.3452C74.2385 74.1864 74.0918 74.0326 74.0085 73.7784C73.9159 73.5043 74.0534 73.2195 74.1858 73.0572C74.3161 72.8891 74.4556 72.746 74.5952 72.6093C74.8757 72.3373 75.1605 72.0974 75.4339 71.8745C75.9872 71.4324 76.472 71.0486 76.8686 70.6955C77.6547 69.9827 78.2364 69.6282 78.2677 69.6851C78.2841 69.72 77.7892 70.1251 77.0466 70.8877C76.6735 71.2651 76.1851 71.688 75.6539 72.1358C75.3898 72.3637 75.1157 72.6043 74.8515 72.8671C74.6037 73.1277 74.2698 73.4381 74.3645 73.6723C74.4692 73.94 74.7946 74.2982 75.001 74.5645C75.241 74.8393 75.5122 75.075 75.7849 75.2822C76.3303 75.6973 76.8757 76.0091 77.3364 76.264C78.2634 76.7681 78.8501 77.0728 78.8252 77.1234Z" fill="#263238"/>
<path d="M76.9839 77.4215C76.9839 77.524 67.4488 77.6066 55.6895 77.6066C43.9265 77.6066 34.3928 77.5233 34.3928 77.4215C34.3928 77.3189 43.9258 77.2363 55.6895 77.2363C67.4488 77.2356 76.9839 77.3189 76.9839 77.4215Z" fill="#263238"/>
<path d="M73.9124 79.8804C73.9829 79.8804 74.0398 82.2983 74.0398 85.2809C74.0398 88.2642 73.9829 90.6814 73.9124 90.6814C73.8419 90.6814 73.7849 88.2642 73.7849 85.2809C73.7842 82.2983 73.8419 79.8804 73.9124 79.8804Z" fill="#263238"/>
<path d="M78.8644 89.7593H69.0552V106.749H78.8644V89.7593Z" fill="white"/>
<path d="M78.9442 98.6289H69.135V106.749H78.9442V98.6289Z" fill="#376AEF"/>
<path d="M77.2709 95.8477C77.2709 95.9182 75.7672 95.9751 73.9124 95.9751C72.057 95.9751 70.5532 95.9182 70.5532 95.8477C70.5532 95.7772 72.057 95.7202 73.9124 95.7202C75.7672 95.7195 77.2709 95.7765 77.2709 95.8477Z" fill="#263238"/>
<path d="M77.1435 97.061C77.1435 97.1315 75.6398 97.1885 73.785 97.1885C71.9295 97.1885 70.4258 97.1315 70.4258 97.061C70.4258 96.9906 71.9295 96.9336 73.785 96.9336C75.6398 96.9336 77.1435 96.9913 77.1435 97.061Z" fill="#263238"/>
<path d="M74.3396 104.622V105.22H73.6931V104.644C73.1548 104.606 72.6429 104.45 72.3303 104.234L72.6806 103.447C73.0146 103.668 73.488 103.819 73.9245 103.819C74.3666 103.819 74.5389 103.695 74.5389 103.512C74.5389 102.915 72.3951 103.351 72.3951 101.951C72.3951 101.358 72.8209 100.857 73.6931 100.75V100.157H74.3396V100.739C74.7383 100.771 75.1313 100.879 75.4325 101.056L75.1043 101.848C74.7433 101.655 74.388 101.558 74.0598 101.558C73.6126 101.558 73.451 101.709 73.451 101.897C73.451 102.473 75.5891 102.042 75.5891 103.432C75.5884 104.003 75.1797 104.498 74.3396 104.622Z" fill="white"/>
<path d="M74.6934 92.6665H70.6785V94.0506H74.6934V92.6665Z" fill="#263238"/>
<path d="M78.8644 106.748C78.8573 106.741 78.8509 106.624 78.8437 106.406C78.838 106.159 78.8309 105.845 78.8224 105.457C78.811 104.598 78.7953 103.41 78.7754 101.931C78.7547 98.9041 78.7256 94.6891 78.6914 89.7585L78.8637 89.9308C75.8398 89.9343 72.5255 89.9393 69.0559 89.9436C69.0132 89.9835 69.4062 89.5947 69.2403 89.762V89.767V89.7763V89.7955V89.8332V89.9094V90.0611V90.3637V90.9667C69.2403 91.3676 69.2403 91.7663 69.2396 92.1629C69.2389 92.9554 69.2382 93.7379 69.2374 94.5082C69.2346 96.0483 69.2317 97.5428 69.2289 98.9767C69.2175 101.838 69.2068 104.462 69.1976 106.748L69.0545 106.605C72.0185 106.636 74.445 106.663 76.1737 106.681C77.0011 106.696 77.6604 106.708 78.1503 106.718C78.6074 106.728 78.8544 106.738 78.8644 106.748C78.8744 106.758 78.6479 106.768 78.2065 106.78C77.7245 106.789 77.0759 106.8 76.262 106.816C74.5119 106.834 72.0555 106.86 69.0545 106.891L68.9121 106.893V106.748C68.9028 104.462 68.8921 101.839 68.8807 98.9767C68.8779 97.5421 68.875 96.0483 68.8722 94.5082C68.8715 93.7379 68.8708 92.9554 68.8701 92.1629C68.8701 91.767 68.8693 91.3683 68.8693 90.9667V90.3637V90.0611V89.9094V89.8332V89.7955V89.7763V89.767V89.762C68.7042 89.9265 69.0943 89.5321 69.0559 89.5734C72.5255 89.5776 75.8398 89.5819 78.8637 89.5862H79.0374L79.036 89.7585C79.0018 94.7354 78.9726 98.9896 78.952 102.045C78.932 103.508 78.9164 104.682 78.905 105.531C78.8964 105.906 78.8893 106.208 78.8836 106.446C78.8779 106.652 78.8715 106.755 78.8644 106.748Z" fill="#263238"/>
<path d="M89.4291 50.459H22.3337V58.4939H89.4291V50.459Z" fill="#455A64"/>
<path d="M75.4126 43.3282H33.5406C31.8161 43.3282 30.4177 41.9298 30.4177 40.2053V38.6809C30.4177 36.9565 31.8161 35.5581 33.5406 35.5581H75.4118C77.1363 35.5581 78.5347 36.9565 78.5347 38.6809V40.2053C78.5354 41.9298 77.137 43.3282 75.4126 43.3282Z" fill="#263238"/>
<path d="M75.9089 35.5572H34.0369C32.3124 35.5572 30.9141 34.1588 30.9141 32.4343V30.9099C30.9141 29.1855 32.3124 27.7871 34.0369 27.7871H75.9082C77.6327 27.7871 79.031 29.1855 79.031 30.9099V32.4343C79.0317 34.1588 77.6334 35.5572 75.9089 35.5572Z" fill="#263238"/>
<path d="M40.0369 35.5571C40.0369 35.5009 48.0447 35.4546 57.9209 35.4546C67.8006 35.4546 75.807 35.5002 75.807 35.5571C75.807 35.6141 67.8006 35.6596 57.9209 35.6596C48.0447 35.6596 40.0369 35.6141 40.0369 35.5571Z" fill="#263238"/>
<path d="M46.9853 43.3627C46.9618 43.3691 46.8144 42.9683 46.6642 42.2954C46.5133 41.6233 46.3758 40.6749 46.3644 39.6204C46.3559 38.566 46.4755 37.6147 46.6144 36.9398C46.7525 36.2641 46.8928 35.8604 46.9162 35.8668C46.9476 35.8746 46.8579 36.2897 46.7575 36.9647C46.6564 37.6397 46.561 38.5788 46.5695 39.6183C46.5802 40.6578 46.6927 41.5948 46.8066 42.2677C46.9191 42.9412 47.0166 43.3542 46.9853 43.3627Z" fill="white"/>
<path d="M54.1792 43.5148C54.155 43.5205 54.0275 43.0997 53.8987 42.4005C53.7691 41.7027 53.6516 40.7244 53.6416 39.6386C53.6331 38.5528 53.7328 37.5724 53.8495 36.8725C53.9656 36.1719 54.0859 35.7483 54.1101 35.754C54.1407 35.7604 54.0717 36.1926 53.9926 36.8925C53.9129 37.5923 53.8374 38.5635 53.846 39.6372C53.8566 40.7109 53.9492 41.6799 54.0418 42.3784C54.1336 43.0769 54.2105 43.5076 54.1792 43.5148Z" fill="white"/>
<path d="M61.5747 43.5175C61.5498 43.5218 61.443 43.0939 61.3355 42.389C61.228 41.6848 61.1311 40.7015 61.1198 39.6129C61.1098 38.5235 61.1881 37.5395 61.2821 36.8325C61.3754 36.1255 61.4743 35.6955 61.4992 35.6997C61.5299 35.7047 61.4822 36.1412 61.4259 36.8475C61.3697 37.5538 61.3148 38.5307 61.3248 39.6108C61.3362 40.6901 61.4095 41.6656 61.48 42.3705C61.5491 43.0768 61.6046 43.5125 61.5747 43.5175Z" fill="white"/>
<path d="M69.8376 43.2356C69.8098 43.2385 69.7429 42.8262 69.6667 42.1563C69.5905 41.4863 69.5072 40.5585 69.446 39.5318C69.3847 38.5044 69.357 37.5731 69.3527 36.8989C69.3484 36.2246 69.3655 35.8074 69.3933 35.8066C69.4225 35.8059 69.4559 36.2217 69.4972 36.8939C69.5407 37.6343 69.5926 38.5293 69.6503 39.519C69.7108 40.5087 69.7657 41.403 69.8112 42.1434C69.8504 42.8156 69.8661 43.2328 69.8376 43.2356Z" fill="white"/>
<path d="M73.5684 35.5859C73.5122 35.5866 73.4353 33.8764 73.3968 31.7653C73.3584 29.6535 73.3733 27.9411 73.4303 27.9404C73.4872 27.9397 73.5634 29.6499 73.6019 31.7617C73.6396 33.8721 73.6247 35.5845 73.5684 35.5859Z" fill="white"/>
<path d="M65.1818 35.4184C65.1568 35.4226 65.0579 34.9954 64.9674 34.2927C64.8763 33.5907 64.8037 32.6124 64.8243 31.5309C64.8464 30.4486 64.9568 29.4739 65.0757 28.7761C65.1939 28.0777 65.3085 27.6547 65.3341 27.6597C65.3647 27.6654 65.3 28.0976 65.2195 28.7961C65.1383 29.4945 65.0515 30.4621 65.0294 31.5344C65.0095 32.606 65.0579 33.5764 65.112 34.2778C65.1654 34.9798 65.2124 35.4141 65.1818 35.4184Z" fill="white"/>
<path d="M56.969 35.6417C56.9434 35.6446 56.8629 35.2038 56.7974 34.4833C56.7319 33.7628 56.6921 32.7617 56.7426 31.6581C56.7946 30.5538 56.9263 29.5605 57.058 28.8492C57.1897 28.138 57.3101 27.7065 57.3357 27.7115C57.3656 27.7179 57.2951 28.1586 57.2011 28.8713C57.1064 29.5847 56.9989 30.5723 56.9477 31.6673C56.8978 32.7624 56.9142 33.7556 56.9427 34.474C56.9704 35.1925 56.9996 35.6382 56.969 35.6417Z" fill="white"/>
<path d="M49.4516 35.6944C49.4274 35.7001 49.2957 35.2765 49.1647 34.5716C49.0323 33.8674 48.9162 32.8792 48.9148 31.7841C48.9155 30.6883 49.0316 29.7001 49.164 28.9959C49.295 28.291 49.4267 27.8674 49.4509 27.8731C49.4823 27.8802 49.4011 28.3138 49.3071 29.0187C49.2131 29.7229 49.1206 30.7012 49.1199 31.7841C49.1213 32.8671 49.2131 33.8446 49.3078 34.5495C49.4011 35.2537 49.4823 35.6873 49.4516 35.6944Z" fill="white"/>
<path d="M40.9483 35.4064C40.9348 35.4114 40.8864 35.3139 40.8087 35.1309C40.729 34.9493 40.6329 34.6788 40.5325 34.3391C40.3296 33.6606 40.1402 32.6894 40.1181 31.6044C40.0989 30.5186 40.2505 29.541 40.4278 28.8553C40.5154 28.5121 40.6008 28.238 40.6735 28.0536C40.744 27.8685 40.7888 27.7688 40.8023 27.7731C40.8344 27.7838 40.7062 28.2003 40.5688 28.8866C40.43 29.5723 40.3039 30.5335 40.3232 31.6001C40.3452 32.6659 40.5076 33.6222 40.6728 34.3021C40.8358 34.9828 40.9796 35.3943 40.9483 35.4064Z" fill="white"/>
<path d="M39.5675 42.9618C39.5476 42.9725 39.3233 42.6187 39.0677 41.9928C38.8121 41.3684 38.5486 40.462 38.449 39.4325C38.3521 38.4022 38.439 37.4624 38.5729 36.8009C38.7053 36.138 38.8591 35.7479 38.8804 35.755C38.9132 35.7642 38.8092 36.1658 38.716 36.8251C38.6206 37.483 38.5586 38.4036 38.6533 39.4132C38.7509 40.4221 38.9858 41.3143 39.2037 41.9423C39.4201 42.5717 39.5981 42.9469 39.5675 42.9618Z" fill="white"/>
<path d="M34.6505 42.6849C34.6306 42.6963 34.4085 42.3567 34.1927 41.7415C33.9734 41.1292 33.7954 40.2377 33.7705 39.2466C33.7449 38.2555 33.8431 37.3648 33.9271 36.7262C34.014 36.0868 34.0895 35.6959 34.1165 35.6987C34.1457 35.7023 34.1208 36.1003 34.071 36.7411C34.024 37.3819 33.9492 38.2662 33.9748 39.2402C33.9998 40.2142 34.1514 41.0865 34.3308 41.6973C34.5067 42.3111 34.6812 42.6707 34.6505 42.6849Z" fill="white"/>
<path d="M35.888 27.7864C35.9207 27.8042 35.7028 28.1994 35.465 28.8794C35.2258 29.5579 35.0086 30.5369 35.0115 31.6362C35.0151 32.7348 35.208 33.7203 35.376 34.4216C35.5483 35.1243 35.6858 35.5529 35.6551 35.5636C35.6416 35.5686 35.5932 35.4661 35.517 35.2774C35.4387 35.0887 35.3419 34.8096 35.2365 34.4593C35.03 33.7601 34.81 32.7612 34.8064 31.6362C34.8029 30.5113 35.0492 29.5066 35.329 28.8288C35.4679 28.4892 35.5989 28.2229 35.7071 28.0485C35.8125 27.8733 35.8759 27.78 35.888 27.7864Z" fill="white"/>
<path d="M71.7457 27.7775H40.7623C39.4864 27.7775 38.4512 26.7429 38.4512 25.4663V24.3385C38.4512 23.0626 39.4857 22.0273 40.7623 22.0273H71.7457C73.0223 22.0273 74.0569 23.0619 74.0569 24.3378V25.4663C74.0562 26.7429 73.0216 27.7775 71.7457 27.7775Z" fill="#455A64"/>
<path d="M72.1131 22.0279H41.1298C39.8531 22.0279 38.8186 20.9934 38.8186 19.7168V18.589C38.8186 17.3131 39.8531 16.2778 41.1298 16.2778H72.1131C73.3891 16.2778 74.4236 17.3124 74.4236 18.589V19.7175C74.4236 20.9934 73.3891 22.0279 72.1131 22.0279Z" fill="#455A64"/>
<path d="M45.3853 21.9653C45.3853 21.9091 51.3112 21.8628 58.6192 21.8628C65.93 21.8628 71.8546 21.9084 71.8546 21.9653C71.8546 22.0223 65.93 22.0679 58.6192 22.0679C51.3105 22.0679 45.3853 22.0216 45.3853 21.9653Z" fill="#263238"/>
<path d="M45.7541 16.4509C45.7684 16.4765 45.4202 16.6994 44.8535 17.0518C44.2297 17.442 43.4764 17.9126 42.6441 18.4331C41.8196 18.9664 41.0734 19.4484 40.4554 19.8479C39.8965 20.2117 39.5462 20.4324 39.5291 20.4089C39.5135 20.3868 39.8331 20.1241 40.3728 19.729C40.9118 19.3338 41.6729 18.8083 42.5338 18.2601C43.3953 17.7126 44.1934 17.2469 44.7801 16.9265C45.3668 16.6054 45.7406 16.4267 45.7541 16.4509Z" fill="white"/>
<path d="M53.9821 16.5048C54.0134 16.5518 52.2306 17.802 50.0006 19.2972C47.7692 20.7932 45.9358 21.9672 45.9045 21.9203C45.8731 21.8733 47.6553 20.623 49.8867 19.1271C52.1167 17.6319 53.9508 16.4578 53.9821 16.5048Z" fill="white"/>
<path d="M62.548 16.5048C62.5793 16.5518 60.7965 17.802 58.5665 19.2972C56.3351 20.7932 54.5017 21.9672 54.4704 21.9203C54.439 21.8733 56.2212 20.623 58.4526 19.1271C60.6826 17.6319 62.5167 16.4578 62.548 16.5048Z" fill="white"/>
<path d="M51.1647 22.1004C51.196 22.1474 49.4132 23.3977 47.1832 24.8929C44.9518 26.3888 43.1184 27.5629 43.0871 27.5159C43.0557 27.4689 44.8379 26.2187 47.0693 24.7227C49.2993 23.2283 51.1334 22.0542 51.1647 22.1004Z" fill="white"/>
<path d="M60.9882 22.1004C61.0195 22.1474 59.2367 23.3977 57.0067 24.8929C54.7753 26.3888 52.9419 27.5629 52.9106 27.5159C52.8792 27.4689 54.6614 26.2187 56.8928 24.7227C59.1228 23.2283 60.9569 22.0542 60.9882 22.1004Z" fill="white"/>
<path d="M70.8122 22.1004C70.8435 22.1474 69.0607 23.3977 66.8307 24.8929C64.5993 26.3888 62.7659 27.5629 62.7345 27.5159C62.7032 27.4689 64.4853 26.2187 66.7168 24.7227C68.9467 23.2283 70.7808 22.0542 70.8122 22.1004Z" fill="white"/>
<path d="M71.1142 16.5048C71.1455 16.5518 69.3627 17.802 67.1327 19.2972C64.9013 20.7932 63.0679 21.9672 63.0365 21.9203C63.0052 21.8733 64.7873 20.623 67.0188 19.1271C69.2487 17.6319 71.0829 16.4578 71.1142 16.5048Z" fill="white"/>
<path d="M75.6902 50.9507H33.8181C32.093 50.9507 30.6953 49.5524 30.6953 47.8279V46.3035C30.6953 44.579 32.0937 43.1807 33.8181 43.1807H75.6894C77.4139 43.1807 78.8123 44.579 78.8123 46.3035V47.8279C78.813 49.5524 77.4146 50.9507 75.6902 50.9507Z" fill="#95AFF1"/>
<path d="M75.6381 43.2353C75.6381 43.2916 66.3301 43.3379 54.8512 43.3379C43.3681 43.3379 34.0623 43.2923 34.0623 43.2353C34.0623 43.1784 43.3681 43.1328 54.8512 43.1328C66.3301 43.1328 75.6381 43.1784 75.6381 43.2353Z" fill="#263238"/>
<path d="M76.128 50.161C76.1273 50.1646 76.0896 50.1617 76.0169 50.1539C75.9329 50.1432 75.8261 50.129 75.6944 50.1126C75.3968 50.0691 74.9824 50.0093 74.457 49.9332C73.3676 49.7687 71.819 49.5344 69.9108 49.2454C66.0724 48.6629 60.7688 47.8698 54.9047 47.0367C49.0386 46.2037 43.7228 45.4889 39.8744 44.9798C37.9613 44.7256 36.4084 44.5191 35.3169 44.3746C34.7907 44.3012 34.3763 44.2443 34.0787 44.203C33.947 44.1823 33.8416 44.166 33.7576 44.1531C33.685 44.141 33.6487 44.1325 33.6487 44.1289C33.6494 44.1254 33.6871 44.1268 33.7598 44.1318C33.8445 44.1396 33.9506 44.1496 34.0837 44.1617C34.3828 44.1937 34.7986 44.2386 35.3269 44.2955C36.4205 44.4251 37.9762 44.6095 39.8929 44.8367C43.747 45.3094 49.0663 46.0022 54.9339 46.8345C60.7994 47.6683 66.1009 48.4842 69.9336 49.103C71.8375 49.4184 73.3833 49.6747 74.4698 49.8548C74.9931 49.9474 75.4046 50.02 75.7008 50.0727C75.8318 50.0976 75.9365 50.1183 76.0198 50.1346C76.0917 50.1482 76.1287 50.1574 76.128 50.161Z" fill="#263238"/>
<path d="M73.6929 43.202C73.6957 43.2156 73.4786 43.2782 73.0834 43.3793C72.6527 43.4861 72.0887 43.6264 71.4074 43.7958C69.9919 44.144 68.0375 44.6296 65.8886 45.2013C63.7391 45.7738 61.8025 46.3242 60.4006 46.725C59.7256 46.9165 59.1667 47.0753 58.7395 47.1964C58.3464 47.3053 58.1271 47.3587 58.1229 47.3452C58.1186 47.3316 58.3301 47.2519 58.716 47.1202C59.1019 46.987 59.6629 46.8048 60.3593 46.5862C61.7512 46.149 63.6843 45.5758 65.836 45.0027C67.9876 44.4302 69.9492 43.9667 71.3739 43.6542C72.0866 43.4982 72.664 43.3772 73.0649 43.301C73.4665 43.2241 73.69 43.1885 73.6929 43.202Z" fill="#263238"/>
<path d="M33.561 40.231C33.6315 40.231 33.6885 42.6489 33.6885 45.6315C33.6885 48.6148 33.6315 51.032 33.561 51.032C33.4906 51.032 33.4336 48.614 33.4336 45.6315C33.4336 42.6496 33.4906 40.231 33.561 40.231Z" fill="#263238"/>
<path d="M38.5131 50.1099H28.7039V67.0996H38.5131V50.1099Z" fill="white"/>
<path d="M38.5936 58.98H28.7844V67.0996H38.5936V58.98Z" fill="#95AFF1"/>
<path d="M36.9204 56.1982C36.9204 56.2687 35.4166 56.3257 33.5619 56.3257C31.7064 56.3257 30.2026 56.2687 30.2026 56.1982C30.2026 56.1278 31.7064 56.0708 33.5619 56.0708C35.4159 56.0708 36.9204 56.1278 36.9204 56.1982Z" fill="#263238"/>
<path d="M36.7922 57.4121C36.7922 57.4826 35.2884 57.5396 33.4337 57.5396C31.5782 57.5396 30.0745 57.4826 30.0745 57.4121C30.0745 57.3416 31.5782 57.2847 33.4337 57.2847C35.2884 57.2847 36.7922 57.3416 36.7922 57.4121Z" fill="#263238"/>
<path d="M33.9883 64.973V65.5711H33.3418V64.9951C32.8035 64.9574 32.2916 64.8014 31.979 64.5857L32.3293 63.7989C32.6632 64.0197 33.1367 64.1706 33.5732 64.1706C34.0153 64.1706 34.1876 64.0467 34.1876 63.8637C34.1876 63.2664 32.0438 63.7021 32.0438 62.3023C32.0438 61.7099 32.4696 61.2087 33.3418 61.1012V60.5088H33.9883V61.0905C34.387 61.1225 34.78 61.2308 35.0812 61.408L34.753 62.1998C34.392 62.0061 34.0367 61.9093 33.7085 61.9093C33.2613 61.9093 33.0997 62.0602 33.0997 62.2482C33.0997 62.8242 35.2378 62.3935 35.2378 63.7833C35.2378 64.3536 34.8284 64.8491 33.9883 64.973Z" fill="white"/>
<path d="M34.3421 53.0176H30.3271V54.4017H34.3421V53.0176Z" fill="#263238"/>
<path d="M38.5131 67.0998C38.506 67.0927 38.4996 66.9759 38.4925 66.758C38.4868 66.5103 38.4796 66.197 38.4711 65.8082C38.4597 64.9495 38.4441 63.7619 38.4241 62.2824C38.4035 59.2557 38.3743 55.0406 38.3401 50.11L38.5124 50.2823C35.4885 50.2866 32.1742 50.2909 28.7046 50.2952C28.6619 50.3343 29.0549 49.9463 28.889 50.1129V50.1179V50.1271V50.1464V50.1841V50.2603V50.4119V50.7145V51.3176C28.889 51.7185 28.889 52.1172 28.8883 52.5138C28.8876 53.3062 28.8869 54.088 28.8862 54.8591C28.8833 56.3999 28.8805 57.8936 28.8776 59.3276C28.8662 62.1898 28.8555 64.8128 28.8463 67.0984L28.7032 66.9553C31.6672 66.9866 34.0937 67.0129 35.8225 67.0307C36.6498 67.0457 37.3091 67.0578 37.799 67.067C38.2568 67.0799 38.5031 67.0898 38.5131 67.0998C38.5231 67.1098 38.2967 67.1197 37.8552 67.1304C37.3732 67.1397 36.7253 67.1518 35.9108 67.1667C34.1607 67.1852 31.7043 67.2109 28.7032 67.2422L28.5608 67.2436L28.5601 67.0991C28.5508 64.8136 28.5401 62.1898 28.5287 59.3283C28.5259 57.8936 28.523 56.3999 28.5202 54.8598C28.5195 54.0894 28.5188 53.3069 28.5181 52.5145C28.5181 52.1179 28.5181 51.7192 28.5173 51.3183V50.7152V50.4126V50.261V50.1848V50.1471V50.1278V50.1186V50.1136C28.3522 50.2781 28.7416 49.8836 28.7039 49.9249C32.1735 49.9292 35.4878 49.9335 38.5117 49.9377H38.6854L38.684 50.11C38.6498 55.0869 38.6213 59.3411 38.6 62.3963C38.58 63.8595 38.5644 65.0336 38.553 65.883C38.5444 66.2575 38.5373 66.5594 38.5316 66.7979C38.5266 67.0037 38.5202 67.1069 38.5131 67.0998Z" fill="#263238"/>
<path d="M58.1316 121.109C58.101 121.109 58.0704 121.104 58.0398 121.097C57.8497 121.046 57.7372 120.851 57.787 120.662C57.7913 120.644 58.2291 118.952 57.6517 117.619C57.4744 117.211 57.221 116.778 56.8956 116.332C56.0782 115.211 55.6467 113.924 55.6467 112.61V112.487C55.6467 110.39 57.3527 108.684 59.4502 108.684C61.5471 108.684 63.253 110.39 63.253 112.487V113.184C63.253 113.381 63.0935 113.54 62.897 113.54C62.7005 113.54 62.541 113.381 62.541 113.184V112.487C62.541 110.783 61.1548 109.396 59.4502 109.396C57.7457 109.396 56.3587 110.783 56.3587 112.487V112.61C56.3587 113.772 56.7432 114.914 57.4709 115.913C57.8269 116.4 58.1074 116.879 58.3053 117.336C58.9824 118.9 58.4962 120.766 58.4748 120.845C58.4328 121.004 58.289 121.109 58.1316 121.109Z" fill="#263238"/>
<path d="M32.719 128.303L58.1367 118.208L80.2193 128.303C80.2193 128.303 81.5145 130.111 79.1357 130.809C77.8726 131.18 58.2228 121.803 58.2228 121.803C58.2228 121.803 34.5965 130.667 33.829 130.442C33.0622 130.217 32.1508 128.977 32.719 128.303Z" fill="#AE7461"/>
<path d="M45.4175 122.56C45.4175 122.56 32.8877 127.732 31.1733 128.51C28.4833 129.73 24.1415 134.64 23.6004 135.541C23.6004 135.541 19.9941 144.196 19.9941 144.737C19.9941 145.278 32.7055 156.637 32.7055 156.637L32.6286 176.993V194.809L83.0617 193.709L80.9371 155.736L92.1162 144.557L90.4935 140.951C89.3878 135.435 85.8285 130.724 80.8246 128.153L69.9381 122.56C69.9381 122.56 68.6757 131.395 57.6775 131.395C46.6792 131.395 45.4175 122.56 45.4175 122.56Z" fill="#376AEF"/>
<path d="M82.2272 138.422C82.2329 138.423 82.2279 138.488 82.2123 138.61C82.1923 138.751 82.1667 138.927 82.1361 139.142C82.0642 139.603 81.9659 140.271 81.8527 141.097C81.6241 142.748 81.3628 145.038 81.2083 147.576C81.056 150.116 81.0403 152.42 81.0681 154.087C81.0816 154.921 81.0987 155.595 81.1144 156.061C81.1193 156.279 81.1229 156.457 81.1257 156.599C81.1265 156.722 81.1243 156.787 81.1179 156.787C81.1122 156.788 81.103 156.724 81.0909 156.601C81.0788 156.459 81.0645 156.282 81.0467 156.065C81.0104 155.599 80.9741 154.924 80.9449 154.091C80.8851 152.422 80.8815 150.112 81.0339 147.566C81.1891 145.021 81.4703 142.729 81.7302 141.079C81.8598 140.254 81.9766 139.589 82.0691 139.131C82.1133 138.918 82.1489 138.743 82.1774 138.604C82.2044 138.484 82.2215 138.422 82.2272 138.422Z" fill="#263238"/>
<path d="M70.5818 123.65C70.5818 123.65 70.6011 124.149 70.4095 125.027C70.2208 125.899 69.7581 127.148 68.7812 128.43C68.2928 129.066 67.6826 129.711 66.9364 130.293C66.1881 130.87 65.3123 131.39 64.3283 131.793C62.3654 132.613 60.0051 132.977 57.5622 132.86C55.1172 132.744 52.8096 132.167 50.9 131.237C48.9798 130.32 47.4952 129.042 46.4892 127.796C45.4746 126.548 44.9128 125.354 44.6216 124.51C44.3283 123.663 44.2649 123.169 44.2649 123.169C44.2677 123.168 44.2777 123.197 44.2948 123.256C44.3133 123.323 44.3375 123.408 44.3667 123.513C44.3945 123.627 44.4358 123.766 44.4906 123.929C44.5411 124.092 44.6024 124.28 44.685 124.488C44.994 125.318 45.5671 126.493 46.5839 127.718C47.5928 128.942 49.0666 130.194 50.9691 131.094C52.8616 132.005 55.1464 132.572 57.57 132.687C59.9908 132.803 62.3255 132.447 64.2664 131.645C65.239 131.252 66.1055 130.743 66.8467 130.179C67.5865 129.611 68.1938 128.98 68.6822 128.356C69.6591 127.1 70.1347 125.872 70.3419 125.012C70.401 124.797 70.4373 124.604 70.4651 124.434C70.4992 124.266 70.5199 124.122 70.5299 124.006C70.5434 123.897 70.5541 123.81 70.5626 123.741C70.5733 123.679 70.579 123.649 70.5818 123.65Z" fill="#263238"/>
<path d="M32.5418 140.478C32.6443 140.477 32.7596 145.134 32.8002 150.878C32.8408 156.624 32.7902 161.281 32.6877 161.281C32.5852 161.282 32.4698 156.626 32.4293 150.881C32.3894 145.136 32.4392 140.478 32.5418 140.478Z" fill="#263238"/>
<path d="M32.6484 179.782L32.6655 167.213L81.5678 165.713L82.2293 178.831L32.6484 179.782Z" fill="#EBEBEB"/>
<path d="M73.2027 176.992C73.2027 176.994 73.1657 176.993 73.0938 176.987C73.0126 176.98 72.9079 176.97 72.7755 176.957C72.4964 176.923 72.0806 176.902 71.5544 176.81C70.4957 176.664 68.9748 176.354 67.15 175.781C65.3237 175.212 63.2119 174.332 60.994 173.116C58.7754 171.902 56.4664 170.334 54.2101 168.485C51.9616 166.624 49.968 164.681 48.2364 162.842C46.5041 161.003 45.0203 159.278 43.795 157.814C42.5703 156.349 41.5992 155.147 40.9313 154.314C40.6045 153.904 40.3482 153.581 40.1666 153.352C40.0854 153.246 40.0214 153.163 39.9715 153.099C39.9281 153.041 39.9074 153.011 39.9096 153.009C39.9117 153.008 39.9373 153.034 39.985 153.088C40.0384 153.15 40.1068 153.23 40.1937 153.33C40.3816 153.555 40.6465 153.87 40.984 154.272C41.6675 155.091 42.6529 156.281 43.8889 157.734C45.1257 159.187 46.6173 160.902 48.3525 162.732C50.0876 164.561 52.0791 166.496 54.3205 168.351C56.5689 170.193 58.8666 171.758 61.0716 172.976C63.276 174.194 65.3743 175.082 67.1877 175.664C69.0005 176.25 70.5128 176.577 71.5651 176.744C72.0891 176.845 72.5028 176.876 72.7798 176.923C72.9115 176.942 73.0154 176.957 73.0959 176.97C73.1671 176.982 73.2034 176.989 73.2027 176.992Z" fill="#263238"/>
<path d="M59.4503 115.39C61.0645 115.39 62.3731 114.082 62.3731 112.468C62.3731 110.853 61.0645 109.545 59.4503 109.545C57.8361 109.545 56.5276 110.853 56.5276 112.468C56.5276 114.082 57.8361 115.39 59.4503 115.39Z" fill="#E0E0E0"/>
<path d="M75.5593 190.147C75.6298 190.147 75.6868 192.565 75.6868 195.548C75.6868 198.531 75.6298 200.948 75.5593 200.948C75.4888 200.948 75.4319 198.53 75.4319 195.548C75.4319 192.565 75.4888 190.147 75.5593 190.147Z" fill="#263238"/>
<path d="M80.5114 200.026H70.7021V217.016H80.5114V200.026Z" fill="white"/>
<path d="M80.5919 208.896H70.7827V217.015H80.5919V208.896Z" fill="#376AEF"/>
<path d="M78.9186 206.114C78.9186 206.184 77.4149 206.241 75.5601 206.241C73.7047 206.241 72.2009 206.184 72.2009 206.114C72.2009 206.043 73.7047 205.986 75.5601 205.986C77.4142 205.986 78.9186 206.043 78.9186 206.114Z" fill="#263238"/>
<path d="M78.7912 207.328C78.7912 207.398 77.2875 207.455 75.4327 207.455C73.5772 207.455 72.0735 207.398 72.0735 207.328C72.0735 207.257 73.5772 207.2 75.4327 207.2C77.2867 207.2 78.7912 207.258 78.7912 207.328Z" fill="#263238"/>
<path d="M75.9866 214.889V215.487H75.3401V214.911C74.8018 214.873 74.2899 214.717 73.9773 214.502L74.3276 213.715C74.6615 213.936 75.135 214.087 75.5715 214.087C76.0136 214.087 76.1859 213.963 76.1859 213.78C76.1859 213.182 74.0421 213.618 74.0421 212.218C74.0421 211.626 74.4679 211.125 75.3401 211.017V210.425H75.9866V211.006C76.3853 211.039 76.7783 211.147 77.0795 211.324L76.7512 212.116C76.3903 211.922 76.035 211.825 75.7067 211.825C75.2596 211.825 75.098 211.976 75.098 212.164C75.098 212.74 77.2361 212.309 77.2361 213.699C77.2361 214.27 76.8267 214.764 75.9866 214.889Z" fill="white"/>
<path d="M76.3411 202.933H72.3254V204.317H76.3411V202.933Z" fill="#263238"/>
<path d="M80.5114 217.015C80.5043 217.008 80.4979 216.892 80.4908 216.673C80.4851 216.426 80.4779 216.112 80.4694 215.724C80.458 214.865 80.4423 213.677 80.4224 212.198C80.4018 209.171 80.3726 204.956 80.3384 200.025L80.5107 200.198C77.4868 200.202 74.1725 200.206 70.7029 200.21C70.6602 200.25 71.0532 199.862 70.8873 200.029V200.034V200.043V200.062V200.1V200.176V200.328V200.631V201.234C70.8873 201.634 70.8866 202.033 70.8866 202.43C70.8859 203.222 70.8852 204.004 70.8845 204.775C70.8816 206.315 70.8788 207.81 70.8759 209.244C70.8645 212.106 70.8538 214.729 70.8446 217.014L70.7015 216.871C73.6655 216.903 76.092 216.929 77.8208 216.947C78.6481 216.962 79.3074 216.974 79.7973 216.983C80.2551 216.995 80.5014 217.005 80.5114 217.015C80.5214 217.025 80.295 217.035 79.8535 217.046C79.3715 217.056 78.7229 217.068 77.909 217.083C76.159 217.101 73.7026 217.127 70.7015 217.158L70.5591 217.16L70.5584 217.015C70.5491 214.729 70.5384 212.106 70.527 209.244C70.5242 207.81 70.5213 206.316 70.5185 204.776C70.5178 204.005 70.5171 203.223 70.5163 202.43C70.5163 202.034 70.5156 201.635 70.5156 201.234V200.631V200.329V200.177V200.101V200.063V200.044V200.035V200.03C70.3505 200.194 70.7399 199.8 70.7022 199.841C74.1718 199.845 77.4861 199.85 80.51 199.854H80.6837L80.6823 200.026C80.6481 205.002 80.6189 209.257 80.5983 212.312C80.5783 213.775 80.5627 214.95 80.5513 215.799C80.5427 216.174 80.5356 216.475 80.5299 216.714C80.5256 216.919 80.5185 217.022 80.5114 217.015Z" fill="#263238"/>
<path d="M203.257 320.014L151.246 320.33L154.647 268.641L197.646 268.606L203.257 320.014Z" fill="#455A64"/>
<path d="M188.953 270.033C188.913 270.034 188.907 269.462 188.767 268.444C188.624 267.43 188.379 265.953 187.735 264.238C187.108 262.531 186.077 260.544 184.331 258.883C183.46 258.06 182.406 257.337 181.187 256.871C179.975 256.397 178.627 256.144 177.244 256.14C174.476 256.163 171.865 257.2 170.124 258.85C168.359 260.496 167.375 262.512 166.781 264.228C166.183 265.96 165.94 267.436 165.78 268.449C165.716 268.926 165.663 269.315 165.621 269.623C165.585 269.892 165.561 270.033 165.548 270.032C165.536 270.031 165.536 269.888 165.547 269.617C165.555 269.345 165.588 268.945 165.637 268.431C165.754 267.406 165.958 265.912 166.532 264.144C167.104 262.393 168.082 260.315 169.891 258.6C171.683 256.876 174.383 255.792 177.243 255.769C178.672 255.772 180.066 256.037 181.321 256.534C182.583 257.021 183.675 257.78 184.565 258.635C186.352 260.363 187.375 262.406 187.981 264.149C188.602 265.902 188.81 267.402 188.91 268.428C188.956 268.943 188.973 269.344 188.969 269.617C188.972 269.89 188.966 270.033 188.953 270.033Z" fill="#263238"/>
<path d="M164.07 268.935C164.173 268.939 163.767 280.434 163.166 294.606C162.564 308.784 161.993 320.269 161.891 320.265C161.788 320.261 162.193 308.768 162.795 294.591C163.397 280.418 163.968 268.93 164.07 268.935Z" fill="#263238"/>
<path d="M232.701 320.053L187.155 320.33L190.133 275.066L227.788 275.035L232.701 320.053Z" fill="#95AFF1"/>
<path d="M220.748 275.323C220.71 275.324 220.701 274.823 220.577 273.933C220.448 273.046 220.232 271.753 219.666 270.254C219.116 268.762 218.212 267.025 216.686 265.575C215.189 264.102 212.92 263.171 210.495 263.18C208.077 263.2 205.795 264.106 204.275 265.545C202.732 266.982 201.87 268.744 201.348 270.245C200.824 271.758 200.608 273.051 200.465 273.937C200.334 274.828 200.284 275.325 200.254 275.323C200.241 275.322 200.24 275.197 200.248 274.958C200.253 274.72 200.281 274.369 200.322 273.919C200.422 273.021 200.599 271.711 201.101 270.161C201.6 268.626 202.456 266.802 204.043 265.296C205.615 263.781 207.986 262.828 210.495 262.809C213.009 262.796 215.384 263.783 216.923 265.326C218.49 266.843 219.385 268.636 219.914 270.164C220.458 271.702 220.637 273.016 220.722 273.916C220.761 274.369 220.775 274.72 220.769 274.959C220.767 275.197 220.761 275.322 220.748 275.323Z" fill="#263238"/>
<path d="M198.385 275.323C198.487 275.327 198.143 285.394 197.616 297.805C197.089 310.22 196.579 320.278 196.477 320.273C196.374 320.269 196.719 310.204 197.246 297.789C197.773 285.378 198.283 275.318 198.385 275.323Z" fill="#263238"/>
<path d="M239.262 201.861H239.25V18.4888H106.766L106.956 205.564L106.609 214.465L113.27 209.36L119.933 214.465L126.594 209.36L133.258 214.465L139.919 209.36L146.583 214.465L153.248 209.36L159.912 214.465L166.576 209.36L173.241 214.465L179.906 209.36L186.571 214.465L193.237 209.36L199.9 214.465L206.564 209.36L213.229 214.465L219.897 209.36L226.562 214.465L233.232 209.36L239.902 214.465L239.262 201.861Z" fill="#F5F5F5"/>
<path d="M239.262 201.861C239.28 202.199 239.499 206.185 239.952 214.462L239.957 214.568L239.873 214.504C237.949 213.036 235.709 211.328 233.194 209.41H233.27C231.278 210.939 229.033 212.662 226.607 214.524L226.562 214.558L226.517 214.524C224.436 212.934 222.207 211.231 219.845 209.426H219.947C217.89 211.004 215.64 212.729 213.284 214.537L213.228 214.58L213.173 214.537C211.128 212.974 208.86 211.24 206.503 209.438H206.622C204.589 210.999 202.314 212.744 199.963 214.548L199.899 214.598L199.835 214.548C197.804 212.996 195.519 211.247 193.167 209.448H193.303C191.277 211.002 188.988 212.758 186.641 214.558L186.57 214.613L186.499 214.558C184.473 213.008 182.178 211.253 179.831 209.457H179.98C177.956 211.008 175.66 212.769 173.317 214.566L173.239 214.625L173.162 214.566C171.137 213.016 168.836 211.256 166.495 209.465H166.655C164.631 211.017 162.331 212.781 159.993 214.573L159.911 214.636L159.828 214.573C157.801 213.021 155.499 211.26 153.162 209.471H153.332C151.304 211.026 149.003 212.79 146.67 214.579L146.582 214.646L146.494 214.579C144.464 213.025 142.161 211.263 139.829 209.478H140.008C137.977 211.035 135.676 212.8 133.348 214.585L133.256 214.655L133.164 214.585C131.129 213.027 128.827 211.265 126.499 209.483H126.686C124.65 211.044 122.35 212.808 120.026 214.59L119.93 214.663L119.835 214.59C117.794 213.028 115.494 211.266 113.171 209.488H113.366C111.324 211.053 109.025 212.816 106.706 214.594L106.432 214.805L106.445 214.459C106.558 211.428 106.673 208.365 106.788 205.271C106.784 202.174 106.781 199.046 106.776 195.888C106.768 189.573 106.761 183.138 106.752 176.593C106.736 163.503 106.721 149.973 106.704 136.073C106.674 108.274 106.642 78.9994 106.609 48.8234C106.599 38.5848 106.589 28.4502 106.579 18.4893V18.3042H106.764C154.679 18.312 199.65 18.3192 239.248 18.3256H239.412V18.4893C239.384 73.2307 239.361 119.064 239.345 151.22C239.326 167.294 239.31 179.948 239.299 188.591C239.289 192.908 239.28 196.222 239.274 198.462C239.269 199.578 239.265 200.425 239.262 200.998C239.257 201.568 239.249 201.861 239.249 201.861C239.262 201.861 239.262 201.861 239.262 201.861C239.262 201.861 239.262 201.861 239.25 201.861C239.25 201.861 239.242 201.568 239.237 200.998C239.235 200.425 239.23 199.578 239.225 198.462C239.219 196.222 239.21 192.908 239.2 188.591C239.189 179.948 239.174 167.294 239.154 151.22C239.138 119.064 239.115 73.2307 239.087 18.4893L239.25 18.6524C199.652 18.6588 154.681 18.6659 106.766 18.6737L106.951 18.4886C106.961 28.4495 106.971 38.5848 106.982 48.8241C107.011 79.0008 107.038 108.278 107.065 136.078C107.076 149.978 107.087 163.509 107.099 176.599C107.104 183.144 107.109 189.579 107.114 195.895C107.116 199.053 107.119 202.181 107.121 205.278C107.003 208.374 106.887 211.439 106.772 214.472L106.511 214.337C108.83 212.56 111.13 210.799 113.173 209.234L113.27 209.159L113.368 209.234C115.689 211.014 117.989 212.777 120.028 214.341H119.837C122.162 212.561 124.463 210.799 126.501 209.239L126.595 209.167L126.689 209.239C129.016 211.023 131.316 212.787 133.35 214.346H133.167C135.496 212.563 137.798 210.801 139.83 209.244L139.92 209.175L140.01 209.244C142.341 211.031 144.642 212.796 146.671 214.351H146.496C148.831 212.564 151.134 210.802 153.163 209.25L153.249 209.184L153.334 209.25C155.669 211.04 157.97 212.805 159.995 214.358H159.83C162.17 212.568 164.471 210.807 166.497 209.257L166.577 209.196L166.658 209.257C168.998 211.051 171.296 212.813 173.319 214.366H173.165C175.509 212.572 177.808 210.814 179.833 209.265L179.908 209.208L179.982 209.265C182.327 211.063 184.619 212.821 186.643 214.373H186.501C188.851 212.576 191.142 210.824 193.17 209.273L193.237 209.221L193.305 209.273C195.654 211.075 197.936 212.827 199.964 214.383H199.836C202.19 212.583 204.468 210.84 206.504 209.283L206.564 209.238L206.624 209.283C208.977 211.089 211.242 212.827 213.284 214.394H213.173C215.534 212.59 217.786 210.87 219.846 209.296L219.897 209.258L219.947 209.296C222.305 211.106 224.53 212.814 226.607 214.408H226.518C228.948 212.553 231.198 210.836 233.195 209.312L233.233 209.283L233.272 209.312C235.78 211.238 238.014 212.954 239.933 214.428L239.854 214.469C239.465 206.187 239.277 202.199 239.262 201.861Z" fill="#263238"/>
<path d="M135.414 98.0723V102.123H139.465V98.0723V94.0225H135.414V98.0723Z" fill="#263238"/>
<path d="M139.464 73.772H135.414V77.8218H139.464V73.772Z" fill="#263238"/>
<path d="M164.492 118.364H160.442V122.414H164.492V118.364Z" fill="#263238"/>
<path d="M139.465 81.8724V85.9222H135.414V89.9721H139.465V94.0226H143.515H147.565V98.0725H151.615V94.0226H155.665V89.9721V85.9222H151.615V89.9721H147.565H143.515V85.9222V81.8724V77.8218H139.465V81.8724Z" fill="#263238"/>
<path d="M147.564 73.772H143.515V77.8218H147.564H151.615V73.772H147.564Z" fill="#263238"/>
<path d="M165.79 106.331H167.966V102.28H165.79H163.615V106.331H165.79Z" fill="#263238"/>
<path d="M155.665 77.8218H151.615V81.8716H155.665V77.8218Z" fill="#263238"/>
<path d="M184.015 94.0225H179.966V98.0723H184.015V94.0225Z" fill="#263238"/>
<path d="M188.066 49.4712H184.016V53.521H188.066V49.4712Z" fill="#263238"/>
<path d="M163.765 81.872V77.8214H167.815V73.7715H163.765V69.7217H159.715V73.7715H155.665V77.8214H159.715V81.872V85.9218V89.9717V94.0222H163.765V89.9717V85.9218H167.815V81.872H163.765Z" fill="#263238"/>
<path d="M184.016 122.373H188.066V118.323H184.016H179.966V122.373H184.016Z" fill="#263238"/>
<path d="M179.966 49.4712H175.916V53.521H179.966V49.4712Z" fill="#263238"/>
<path d="M178.953 81.8724V77.8218H174.903V73.772H170.853V77.8218V81.8724H166.803V85.9222H170.853H174.903V81.8724H178.953Z" fill="#263238"/>
<path d="M201.813 73.772H197.763V77.8218H201.813V73.772Z" fill="#263238"/>
<path d="M159.832 94.0225H155.782V98.0723H159.832V94.0225Z" fill="#263238"/>
<path d="M175.916 69.7218V65.6713H179.966V61.6214H184.016H188.066V57.5709H184.016V53.521H179.966V57.5709H175.916V61.6214H171.866V65.6713H167.815V69.7218H171.866H175.916Z" fill="#263238"/>
<path d="M175.916 98.0721V94.0223H179.966V89.9717H175.916H171.866V94.0223H167.815V98.0721H171.866H175.916Z" fill="#263238"/>
<path d="M188.066 114.27V110.22H184.016H179.966V106.17H175.916V110.22H171.866V114.27H167.815H163.765V118.321H167.815H171.866H175.916V114.27H179.966V118.321H184.016V114.27H188.066Z" fill="#263238"/>
<path d="M171.866 53.521V49.4712H167.815H163.765V53.521H159.715V57.5709H163.765H167.815V53.521H171.866Z" fill="#263238"/>
<path d="M171.865 57.5708H167.815V61.6207H171.865V57.5708Z" fill="#263238"/>
<path d="M181.991 73.7718H177.941V77.8217V81.8722V85.9221H181.991H186.041V81.8722H181.991V77.8217H186.041V73.7718H190.091V69.722H186.041V65.6714H181.991V69.722V73.7718Z" fill="#263238"/>
<path d="M167.815 61.6216H163.765V65.6714H167.815V61.6216Z" fill="#263238"/>
<path d="M179.966 102.123V106.173H184.016H188.066V102.123H192.116H196.166V98.0723H192.116H188.066H184.016V102.123H179.966Z" fill="#263238"/>
<path d="M201.813 85.9219H197.763V89.9717H201.813V85.9219Z" fill="#263238"/>
<path d="M188.066 89.9717H184.016V94.0215H188.066V89.9717Z" fill="#263238"/>
<path d="M198.191 77.8218H194.142H190.091V81.8724H194.142V85.9222H198.191V81.8724V77.8218Z" fill="#263238"/>
<path d="M196.166 89.9717H192.116V94.0215H196.166V89.9717Z" fill="#263238"/>
<path d="M151.615 114.348H163.77V98.0679H147.489V102.123H143.515V106.173H147.489V110.222H143.515V114.272H147.489V114.348H147.565V118.323H143.515V122.373V126.423H147.565V122.373H151.615V118.323V114.348ZM160.652 101.186V111.311H150.526V101.186H160.652Z" fill="#263238"/>
<path d="M204.266 98.0723H208.317V94.0225H204.266H200.216H196.167V98.0723H200.216H204.266Z" fill="#263238"/>
<path d="M204.266 81.8724H208.317V77.8218V73.772H204.266V77.8218V81.8724Z" fill="#263238"/>
<path d="M172.017 102.28H167.966V106.33V110.381H172.017V106.33V102.28Z" fill="#263238"/>
<path d="M212.366 98.0723H208.317V102.122H212.366V98.0723Z" fill="#263238"/>
<path d="M212.366 89.9717V85.9219H208.317V89.9717V94.0223H212.366V89.9717Z" fill="#263238"/>
<path d="M139.465 118.323H135.414V122.373V126.424H139.465V122.373V118.323Z" fill="#263238"/>
<path d="M212.367 69.7219V49.4712H192.116V69.7219H212.367ZM195.154 66.6838V52.5086H209.329V66.6838H195.154Z" fill="#263238"/>
<path d="M206.292 55.5459H198.191V63.6463H206.292V55.5459Z" fill="#263238"/>
<path d="M212.367 106.173H192.116V126.424H212.367V106.173ZM195.154 123.386V109.21H209.329V123.386H195.154Z" fill="#263238"/>
<path d="M206.292 112.248H198.191V120.348H206.292V112.248Z" fill="#263238"/>
<path d="M135.364 49.4712V69.7219H155.614V49.4712H135.364ZM152.577 52.5086V66.6838H138.402V52.5086H152.577Z" fill="#263238"/>
<path d="M149.54 55.5459H141.439V63.6463H149.54V55.5459Z" fill="#263238"/>
<path d="M129.588 63.5887C129.588 58.7941 129.588 54.0002 129.588 49.2056C129.588 47.8649 129.813 46.5954 130.728 45.5402C131.75 44.3612 133.152 43.9062 134.669 43.9062C137.278 43.9062 139.885 43.9062 142.493 43.9062C144.927 43.9062 147.359 43.9062 149.793 43.9062C150.375 43.9062 150.376 43.002 149.793 43.002C144.808 43.002 139.822 43.002 134.836 43.002C133.554 43.002 132.328 43.1913 131.23 43.9133C129.626 44.9678 128.717 46.7314 128.683 48.6367C128.641 51.0034 128.683 53.3744 128.683 55.7411C128.683 58.3569 128.683 60.9735 128.683 63.5894C128.684 64.1704 129.588 64.1719 129.588 63.5887Z" fill="#95AFF1"/>
<path d="M148.469 133.262C143.674 133.262 138.88 133.262 134.086 133.262C132.745 133.262 131.476 133.037 130.42 132.122C129.241 131.099 128.786 129.697 128.786 128.18C128.786 125.572 128.786 122.965 128.786 120.357C128.786 117.923 128.786 115.49 128.786 113.056C128.786 112.475 127.882 112.473 127.882 113.056C127.882 118.042 127.882 123.028 127.882 128.013C127.882 129.295 128.071 130.521 128.793 131.62C129.847 133.225 131.611 134.132 133.516 134.167C135.883 134.209 138.254 134.167 140.62 134.167C143.236 134.167 145.853 134.167 148.469 134.167C149.051 134.167 149.052 133.262 148.469 133.262Z" fill="#95AFF1"/>
<path d="M217.707 112.914C217.707 117.708 217.707 122.502 217.707 127.297C217.707 128.638 217.482 129.907 216.567 130.962C215.544 132.141 214.142 132.596 212.625 132.596C210.017 132.596 207.41 132.596 204.802 132.596C202.368 132.596 199.935 132.596 197.502 132.596C196.92 132.596 196.918 133.5 197.502 133.5C202.487 133.5 207.473 133.5 212.458 133.5C213.74 133.5 214.966 133.311 216.064 132.589C217.669 131.535 218.577 129.771 218.611 127.866C218.653 125.499 218.611 123.128 218.611 120.761C218.611 118.146 218.611 115.529 218.611 112.913C218.612 112.331 217.707 112.331 217.707 112.914Z" fill="#95AFF1"/>
<path d="M197.763 43.9061C202.558 43.9061 207.352 43.9061 212.146 43.9061C213.487 43.9061 214.757 44.1311 215.812 45.0467C216.991 46.0691 217.446 47.4711 217.446 48.9883C217.446 51.5964 217.446 54.2037 217.446 56.8118C217.446 59.2454 217.446 61.6783 217.446 64.1119C217.446 64.6936 218.35 64.6951 218.35 64.1119C218.35 59.1265 218.35 54.1404 218.35 49.1549C218.35 47.8733 218.161 46.6473 217.439 45.5494C216.384 43.9445 214.621 43.036 212.715 43.0026C210.349 42.9605 207.978 43.0026 205.611 43.0026C202.995 43.0026 200.379 43.0026 197.763 43.0026C197.181 43.0011 197.18 43.9061 197.763 43.9061Z" fill="#95AFF1"/>
<path d="M136.826 155.93L137.859 153.611C138.843 154.262 140.241 154.707 141.528 154.707C142.83 154.707 143.338 154.342 143.338 153.803C143.338 152.039 137.017 153.326 137.017 149.196C137.017 147.21 138.637 145.59 141.94 145.59C143.386 145.59 144.879 145.924 145.975 146.559L145.006 148.894C143.942 148.322 142.894 148.037 141.925 148.037C140.606 148.037 140.13 148.481 140.13 149.037C140.13 150.737 146.436 149.466 146.436 153.564C146.436 155.502 144.816 157.154 141.513 157.154C139.685 157.152 137.875 156.661 136.826 155.93Z" fill="#376AEF"/>
<path d="M147.312 151.371C147.312 147.988 149.901 145.589 153.427 145.589C155.476 145.589 157.128 146.336 158.208 147.686L156.207 149.497C155.508 148.655 154.65 148.195 153.586 148.195C151.759 148.195 150.489 149.465 150.489 151.371C150.489 153.277 151.76 154.547 153.586 154.547C154.65 154.547 155.508 154.087 156.207 153.245L158.208 155.055C157.128 156.405 155.476 157.152 153.427 157.152C149.901 157.152 147.312 154.754 147.312 151.371Z" fill="#376AEF"/>
<path d="M166.868 154.77H162.166L161.292 156.93H158.084L162.992 145.812H166.089L171.013 156.93H167.741L166.868 154.77ZM165.946 152.451L164.517 148.893L163.087 152.451H165.946Z" fill="#376AEF"/>
<path d="M182.484 145.812V156.93H179.894L174.987 151.006V156.93H171.905V145.812H174.494L179.402 151.736V145.812H182.484Z" fill="#376AEF"/>
<path d="M159.686 170.628C159.686 176.422 155.313 180.03 148.354 180.03H143.908V186.698H136.693V161.191H148.354C155.314 161.191 159.686 164.799 159.686 170.628ZM152.399 170.628C152.399 168.26 150.905 166.875 147.917 166.875H143.909V174.344H147.917C150.905 174.345 152.399 172.96 152.399 170.628Z" fill="#376AEF"/>
<path d="M178.997 181.743H168.211L166.208 186.698H158.847L170.106 161.191H177.212L188.507 186.698H181.002L178.997 181.743ZM176.883 176.422L173.604 168.259L170.324 176.422H176.883Z" fill="#376AEF"/>
<path d="M202.607 177.552V186.698H195.391V177.443L185.662 161.191H193.278L199.326 171.322L205.375 161.191H212.372L202.607 177.552Z" fill="#376AEF"/>
<path d="M192.404 147.194H188.592V145.812H197.788V147.194H193.976V156.93H192.404V147.194Z" fill="#376AEF"/>
<path d="M198.458 151.371C198.458 148.115 200.968 145.685 204.382 145.685C207.766 145.685 210.275 148.099 210.275 151.371C210.275 154.642 207.766 157.057 204.382 157.057C200.968 157.057 198.458 154.627 198.458 151.371ZM208.687 151.371C208.687 148.909 206.844 147.098 204.382 147.098C201.889 147.098 200.046 148.909 200.046 151.371C200.046 153.832 201.889 155.643 204.382 155.643C206.844 155.643 208.687 153.832 208.687 151.371Z" fill="#376AEF"/>
<path d="M265.376 296.021L266.812 310.983C266.812 310.983 250.505 317.074 250.328 320.089L281.158 320.173L281.141 317.919L279.848 310.223L277.942 295.273L265.376 296.021Z" fill="#455A64"/>
<path d="M276.093 308.661C276.703 308.826 277.127 309.512 276.988 310.129C276.847 310.746 276.154 311.183 275.54 311.028C274.926 310.874 274.392 310.066 274.601 309.468C274.81 308.871 275.651 308.402 276.21 308.699" fill="#E0E0E0"/>
<path d="M281.159 320.172L281.141 317.917L251.571 318.485C251.571 318.485 250.168 319.099 250.33 320.088L281.159 320.172Z" fill="#263238"/>
<path d="M266.301 310.823C266.307 310.978 267.077 311.045 267.836 311.539C268.609 312.012 269.001 312.679 269.143 312.617C269.284 312.587 269.052 311.667 268.123 311.085C267.198 310.496 266.268 310.681 266.301 310.823Z" fill="#263238"/>
<path d="M262.995 312.2C262.961 312.349 263.628 312.609 264.153 313.26C264.697 313.895 264.831 314.599 264.984 314.591C265.129 314.616 265.233 313.713 264.565 312.917C263.905 312.115 262.998 312.052 262.995 312.2Z" fill="#263238"/>
<path d="M261.126 316.165C261.267 316.197 261.479 315.428 261.082 314.585C260.689 313.739 259.962 313.408 259.898 313.537C259.811 313.663 260.28 314.115 260.595 314.812C260.927 315.501 260.973 316.15 261.126 316.165Z" fill="#263238"/>
<path d="M265.208 307.225C265.272 307.365 265.979 307.151 266.85 307.208C267.722 307.247 268.4 307.538 268.48 307.405C268.569 307.293 267.906 306.725 266.879 306.673C265.853 306.612 265.131 307.104 265.208 307.225Z" fill="#263238"/>
<path d="M303.262 296.444L304.583 311.151C304.583 311.151 288.526 317.037 288.333 319.997L318.62 320.266L318.616 318.051L317.392 310.482L315.61 295.784L303.262 296.444Z" fill="#455A64"/>
<path d="M313.713 308.926C314.313 309.091 314.725 309.768 314.583 310.373C314.442 310.979 313.758 311.404 313.156 311.248C312.553 311.093 312.034 310.296 312.242 309.71C312.45 309.124 313.281 308.669 313.828 308.965" fill="#E0E0E0"/>
<path d="M318.62 320.265L318.617 318.05L289.564 318.429C289.564 318.429 288.182 319.024 288.334 319.996L318.62 320.265Z" fill="#263238"/>
<path d="M304.081 310.991C304.086 311.143 304.843 311.214 305.585 311.703C306.341 312.173 306.722 312.83 306.862 312.771C307.001 312.741 306.779 311.836 305.869 311.259C304.964 310.674 304.049 310.852 304.081 310.991Z" fill="#263238"/>
<path d="M300.825 312.324C300.79 312.471 301.445 312.73 301.957 313.372C302.487 313.999 302.615 314.691 302.766 314.686C302.908 314.71 303.015 313.824 302.364 313.038C301.72 312.246 300.829 312.179 300.825 312.324Z" fill="#263238"/>
<path d="M298.965 316.208C299.102 316.241 299.316 315.485 298.93 314.655C298.55 313.822 297.838 313.492 297.773 313.618C297.687 313.741 298.145 314.188 298.451 314.875C298.773 315.554 298.814 316.192 298.965 316.208Z" fill="#263238"/>
<path d="M303.028 307.45C303.091 307.589 303.787 307.382 304.642 307.443C305.498 307.487 306.162 307.777 306.242 307.647C306.33 307.538 305.683 306.975 304.674 306.917C303.666 306.852 302.954 307.331 303.028 307.45Z" fill="#263238"/>
<path d="M264.71 165.912C264.71 165.912 257.403 187.076 257.151 202.819C256.899 218.563 256.647 243.598 259.923 271.215C263.199 298.831 264.71 309.929 264.71 309.929H281.341C281.341 309.929 283.105 292.637 282.853 277.151C282.601 261.665 281.39 256.762 282.878 239.728C284.365 222.694 286.718 212.462 289.196 207.3C289.196 207.3 296.06 199.14 296.565 187.946C297.069 176.753 293.107 167.133 293.107 167.133L264.71 165.912Z" fill="#263238"/>
<path d="M279.489 195.603C279.766 196.453 284.701 231.151 288.3 246.455C291.901 261.759 295.906 265.809 296.608 278.259C297.416 292.578 301.347 309.928 301.347 309.928H319.056C319.056 309.928 316.566 283.461 314.076 262.772C311.585 242.083 307.988 216.576 308.542 208.924C309.095 201.272 310.479 191.822 308.542 181.101C306.605 170.381 302.417 167.554 302.417 167.554L287.393 166.874L279.489 195.603Z" fill="#263238"/>
<path d="M296.157 175.757C296.169 175.752 296.263 175.936 296.431 176.296C296.624 176.647 296.803 177.204 297.032 177.925C297.442 179.38 297.714 181.571 297.616 184.267C297.531 186.961 297.081 190.159 296.16 193.604C295.692 195.323 295.08 197.105 294.228 198.857C293.379 200.614 292.201 202.267 291.028 203.934C288.621 207.25 287.432 211.026 286.532 214.437C285.656 217.869 285.187 221.035 284.851 223.696C284.524 226.359 284.328 228.524 284.181 230.018C284.108 230.74 284.05 231.313 284.008 231.739C283.964 232.132 283.936 232.339 283.923 232.337C283.91 232.337 283.914 232.129 283.933 231.733C283.958 231.305 283.993 230.73 284.037 230.005C284.139 228.507 284.296 226.337 284.59 223.664C284.893 220.993 285.337 217.811 286.2 214.352C286.633 212.624 287.175 210.829 287.875 209.018C288.233 208.114 288.637 207.206 289.111 206.319C289.59 205.433 290.138 204.57 290.722 203.723C291.904 202.042 293.061 200.423 293.901 198.695C294.745 196.972 295.356 195.216 295.83 193.513C296.762 190.101 297.235 186.927 297.353 184.255C297.483 181.582 297.254 179.41 296.891 177.96C296.686 177.242 296.53 176.682 296.362 176.324C296.217 175.96 296.146 175.763 296.157 175.757Z" fill="#455A64"/>
<path d="M243.077 94.1329C243.022 94.0168 242.954 93.8951 242.836 93.8459C242.631 93.7619 242.419 93.9378 242.268 94.0987C241.694 94.7074 241.121 95.3162 240.549 95.925L242.246 99.1532C243.499 97.8559 243.845 95.7648 243.077 94.1329Z" fill="#FFBF9D"/>
<path d="M246.021 99.4069C246.003 99.0851 245.965 98.7526 245.799 98.4763C245.633 98.2 245.308 97.9957 244.993 98.0641C244.687 98.1303 244.488 98.4172 244.319 98.6814C243.809 99.4802 243.299 100.278 242.789 101.077L244.523 104.848C245.591 103.259 246.125 101.319 246.021 99.4069Z" fill="#FFBF9D"/>
<path d="M246.83 104.21C246.762 103.942 246.599 103.621 246.323 103.644C246.116 103.662 245.986 103.871 245.892 104.057C245.551 104.72 245.212 105.384 244.871 106.048L246.367 108.747C247.045 107.352 247.212 105.715 246.83 104.21Z" fill="#FFBF9D"/>
<path d="M225.729 94.4853L236.553 121.402C236.749 121.89 237.252 122.18 237.773 122.107L248.96 120.532C249.679 120.431 250.122 119.694 249.876 119.012L240.218 92.2603C240.038 91.7619 239.539 91.4529 239.013 91.5127L226.66 92.9225C225.91 93.0087 225.448 93.7847 225.729 94.4853Z" fill="#263238"/>
<path d="M226.97 94.6158L237.189 120.031C237.242 120.162 237.377 120.24 237.517 120.22L248.926 118.613C249.119 118.586 249.239 118.388 249.173 118.204L240.06 92.9675C240.012 92.8336 239.878 92.7503 239.736 92.7667L227.22 94.1957C227.018 94.2185 226.894 94.4271 226.97 94.6158Z" fill="#455A64"/>
<path d="M233.924 104.644L234.02 104.282C234.203 104.373 234.46 104.415 234.692 104.376C234.957 104.332 235.051 104.226 235.031 104.107C234.97 103.745 233.887 104.182 233.767 103.463C233.712 103.134 233.932 102.816 234.482 102.724C234.726 102.684 234.984 102.7 235.182 102.783L235.101 103.147C234.904 103.074 234.71 103.055 234.539 103.084C234.274 103.129 234.188 103.245 234.208 103.366C234.268 103.723 235.352 103.289 235.47 104C235.524 104.322 235.303 104.644 234.75 104.737C234.443 104.787 234.118 104.748 233.924 104.644Z" fill="white"/>
<path d="M235.59 103.568C235.492 102.984 235.872 102.492 236.473 102.391C236.809 102.335 237.108 102.41 237.326 102.601L237.083 102.914C236.928 102.786 236.752 102.735 236.559 102.768C236.197 102.828 235.982 103.126 236.043 103.491C236.104 103.857 236.404 104.067 236.766 104.007C236.96 103.975 237.11 103.87 237.214 103.696L237.546 103.914C237.402 104.168 237.143 104.337 236.805 104.393C236.205 104.493 235.688 104.151 235.59 103.568Z" fill="white"/>
<path d="M239.068 103.555L238.169 103.704L238.067 104.148L237.608 104.225L238.148 102.146L238.59 102.072L239.778 103.862L239.308 103.941L239.068 103.555ZM238.871 103.238L238.44 102.548L238.257 103.341L238.871 103.238Z" fill="white"/>
<path d="M241.434 101.597L241.757 103.532L241.389 103.593L240.228 102.58L240.423 103.754L239.981 103.828L239.658 101.893L240.029 101.831L241.187 102.846L240.991 101.671L241.434 101.597Z" fill="white"/>
<path d="M228.282 110.344L229.479 97.9463C229.479 97.9463 231.303 97.9684 231.849 100.585C232.394 103.201 232.415 107.782 232.415 107.782C232.415 107.782 235.645 109.282 236.592 117.014L238.78 119.671L233.693 124.767C233.693 124.767 228.48 114.717 228.282 110.344Z" fill="#FFBF9D"/>
<path d="M243.133 110.724L237.128 111.774C236.498 111.885 235.881 111.528 235.661 110.928C235.378 110.157 235.861 109.317 236.671 109.174L242.671 108.113C243.25 108.011 243.827 108.303 244.086 108.831L244.091 108.841C244.478 109.631 244 110.572 243.133 110.724Z" fill="#376AEF"/>
<path d="M237.937 100.52C237.958 100.621 237.44 100.776 236.78 100.868C236.456 100.912 236.16 100.933 235.946 100.93L235.934 100.665C236.023 100.677 236.097 100.692 236.154 100.707L236.154 100.882C236.06 100.856 236.01 100.826 236.01 100.795C236.01 100.764 236.06 100.734 236.154 100.708L236.155 100.883C236.099 100.9 236.025 100.917 235.936 100.931L235.924 100.665C236.129 100.604 236.415 100.544 236.732 100.5C237.377 100.411 237.916 100.42 237.937 100.52Z" fill="white"/>
<path d="M242.033 105.195C242.051 105.295 240.513 105.667 238.597 106.026C236.68 106.385 235.112 106.594 235.093 106.493C235.075 106.393 236.613 106.02 238.53 105.662C240.445 105.304 242.013 105.094 242.033 105.195Z" fill="white"/>
<path d="M304.626 80.4762C303.146 70.2121 300.526 58.9439 285.861 59.9934C285.861 59.9934 278.025 61.4623 273.733 68.1323C271.208 72.0554 275.427 98.3382 278.75 108.525L306.398 110.703L311.048 109.317C311.048 109.317 305.546 86.8586 304.626 80.4762Z" fill="#263238"/>
<path d="M283.91 63.8148L284.827 62.9404L294.742 66.9362C296.177 67.0152 297.311 68.1793 297.356 69.6154L297.269 101.92C297.282 104.111 296.842 106.008 295.519 107.754L294.127 109.593C290.952 113.784 284.421 113.44 281.907 108.821C281.731 108.498 281.609 108.215 281.556 107.986C281.503 107.698 281.425 107.508 281.409 107.263C281.114 104.664 281.097 102.41 281.097 102.41C280.921 99.5565 280.862 98.3859 280.861 98.4123C280.861 98.4123 274.789 97.7145 273.147 89.9188C272.33 86.042 272.485 80.7084 272.714 75.4595C273.032 68.1964 278.07 63.8076 283.91 63.8148Z" fill="#FFBF9D"/>
<path d="M284.559 81.3257C284.567 81.859 285.025 82.2919 285.581 82.2941C286.137 82.2962 286.582 81.8669 286.575 81.3336C286.567 80.8003 286.109 80.3674 285.553 80.3652C284.996 80.3624 284.551 80.7924 284.559 81.3257Z" fill="#263238"/>
<path d="M274.49 81.6075C274.497 82.1408 274.955 82.5737 275.512 82.5758C276.068 82.5779 276.513 82.1486 276.505 81.6153C276.497 81.082 276.039 80.6491 275.484 80.647C274.927 80.6441 274.481 81.0749 274.49 81.6075Z" fill="#263238"/>
<path d="M280.968 85.5431C280.97 85.4811 280.29 85.3985 279.19 85.3138C278.912 85.2989 278.647 85.2576 278.591 85.0703C278.515 84.8731 278.617 84.5691 278.735 84.2401C278.962 83.5566 279.199 82.841 279.448 82.0906C280.435 79.0318 281.134 76.5213 281.011 76.4829C280.887 76.4444 279.987 78.8923 279 81.951C278.764 82.705 278.538 83.4234 278.323 84.1112C278.234 84.4309 278.071 84.7976 278.234 85.2056C278.318 85.4092 278.529 85.5488 278.709 85.5879C278.889 85.6335 279.045 85.6285 279.183 85.6299C280.284 85.6342 280.966 85.605 280.968 85.5431Z" fill="#263238"/>
<path d="M280.861 98.4129C280.861 98.4129 286.164 98.4891 291.244 95.0786C291.244 95.0786 288.871 100.651 280.969 100.31L280.861 98.4129Z" fill="#FF9A6C"/>
<path d="M281.557 88.1338C281.922 87.5984 282.59 87.2816 283.272 87.32C283.745 87.3471 284.233 87.55 284.537 87.9188C284.843 88.2876 284.93 88.8288 284.688 89.2068C284.416 89.6333 283.81 89.7586 283.285 89.6376C282.76 89.5165 282.298 89.1983 281.858 88.88C281.736 88.7917 281.611 88.6999 281.532 88.5746C281.452 88.45 281.429 88.2819 281.514 88.1709" fill="#FF9A6C"/>
<path d="M284.196 86.1331C284.02 86.1317 284.076 87.3086 283.111 88.1951C282.147 89.0836 280.886 89.0146 280.885 89.179C280.872 89.2538 281.176 89.3941 281.706 89.382C282.226 89.3734 282.977 89.1691 283.567 88.6265C284.156 88.0833 284.386 87.3862 284.402 86.9013C284.422 86.4079 284.276 86.1224 284.196 86.1331Z" fill="#263238"/>
<path d="M283.717 77.4853C283.868 77.7609 284.919 77.4583 286.2 77.417C287.482 77.3501 288.554 77.5629 288.681 77.2753C288.736 77.1386 288.517 76.8915 288.063 76.6715C287.613 76.4515 286.923 76.2835 286.154 76.3148C285.386 76.3483 284.711 76.574 284.281 76.831C283.848 77.0888 283.651 77.3536 283.717 77.4853Z" fill="#263238"/>
<path d="M273.907 77.5317C274.11 77.7681 274.844 77.4754 275.742 77.4185C276.638 77.3302 277.41 77.5011 277.571 77.2348C277.642 77.1059 277.509 76.8653 277.165 76.6488C276.827 76.4331 276.269 76.2707 275.652 76.3199C275.036 76.3704 274.513 76.6203 274.213 76.8888C273.908 77.1572 273.817 77.4156 273.907 77.5317Z" fill="#263238"/>
<path d="M297.158 83.4025C297.158 83.4025 291.603 85.1313 288.461 71.4231C287.386 66.736 283.041 62.9404 283.041 62.9404L284.803 62.4106C284.803 62.4106 295.756 65.4965 295.94 65.6346C296.124 65.7727 298.703 71.2993 298.703 71.2993L297.158 83.4025Z" fill="#263238"/>
<path d="M295.789 82.8921C295.761 82.3068 296.368 80.8935 296.941 80.7739C298.472 80.4556 301.26 80.4407 301.482 84.3581C301.786 89.7138 296.347 88.9142 296.328 88.7611C296.315 88.6422 295.885 84.9128 295.789 82.8921Z" fill="#FFBF9D"/>
<path d="M259.282 114.992C261.168 118.009 262.987 123.49 262.987 123.49L258.171 129.77C258.171 129.77 250.001 125.51 247.682 124.132C247.056 123.76 246.368 123.484 245.688 123.433C244.316 123.332 244.191 121.308 245.542 121.048C245.924 120.975 247.228 121.218 247.731 121.389C249.266 121.91 250.359 121.768 250.359 121.768C250.359 121.768 249.967 121.324 249.197 120.229C248.358 119.034 244.601 115.207 243.402 113.312C241.876 110.901 242.513 109.445 243.345 109.766C244.379 110.164 248.995 116.483 249.759 116.238C249.759 116.238 250.435 114.99 251.23 114.8C252.026 114.61 252.82 114.78 252.82 114.78C252.82 114.78 252.91 113.622 253.647 113.298C254.384 112.974 255.437 113.35 255.437 113.35C255.437 113.35 255.515 112.276 256.095 112.141C256.674 112.005 257.863 112.723 259.282 114.992Z" fill="#FFBF9D"/>
<path d="M239.474 119.07C239.568 119.348 252.732 132.827 252.732 132.827C252.732 132.827 263.718 120.452 267.063 115.9C270.407 111.348 273.763 105.765 278.129 104.72C282.495 103.674 287.972 106.207 287.972 106.207L282.546 122.39L272.782 135.814C272.782 135.814 262.231 149.067 257.214 151.11C252.197 153.153 247.283 150.219 245.146 147.989C243.009 145.76 230.333 126.492 230.333 126.492L239.474 119.07Z" fill="#376AEF"/>
<path d="M297.541 168.045L264.235 166.197C264.235 166.197 267.821 150.65 270.968 135.089C274.115 119.529 282.526 104.72 282.526 104.72L312.82 109.969C312.82 109.969 313.913 118.35 310.152 133.638C308.419 140.684 304.34 148.867 300.34 158.854L304.331 168.422L297.541 168.045Z" fill="#376AEF"/>
<path d="M281.823 124.766C281.842 124.783 281.665 125.019 281.331 125.429C280.946 125.9 280.471 126.48 279.91 127.164C278.711 128.629 277.084 130.676 275.283 132.938C273.482 135.201 271.819 137.228 270.565 138.652C269.94 139.366 269.423 139.933 269.052 140.314C268.684 140.696 268.471 140.899 268.452 140.882C268.433 140.864 268.609 140.629 268.944 140.219C269.329 139.748 269.804 139.168 270.365 138.484C271.564 137.019 273.191 134.971 274.993 132.708C276.793 130.446 278.456 128.419 279.71 126.995C280.335 126.282 280.852 125.715 281.223 125.334C281.591 124.952 281.804 124.749 281.823 124.766Z" fill="#263238"/>
<path d="M298.83 158.514C298.82 158.566 297.871 158.43 296.339 158.213C294.807 157.997 292.689 157.713 290.343 157.465C287.996 157.219 285.866 157.056 284.322 156.949C282.778 156.842 281.822 156.779 281.823 156.725C281.824 156.699 282.064 156.682 282.498 156.673C282.931 156.663 283.559 156.667 284.335 156.687C285.885 156.727 288.026 156.849 290.382 157.096C292.737 157.345 294.857 157.671 296.382 157.954C297.144 158.096 297.759 158.222 298.182 158.322C298.604 158.422 298.835 158.489 298.83 158.514Z" fill="#263238"/>
<path d="M312.569 107.948C311.7 104.713 309.378 102.884 308.721 99.5984C308.155 96.7682 309.598 93.4175 309.055 90.5824C308.525 87.8148 307.242 85.651 306.355 82.9768C305.593 80.6756 304.55 78.4499 304.133 76.0618C303.892 74.6805 303.862 73.258 303.471 71.9116C303.079 70.5652 301.495 68.2982 298.213 63.6367L288.842 72.9682C290.266 80.0248 293.055 81.7735 292.981 86.1195C292.953 87.7835 292.594 89.5122 293.18 91.0694C293.671 92.3752 294.793 93.4439 294.95 94.8301C295.163 96.7191 293.522 98.3118 293.179 100.182C292.824 102.125 293.907 104.018 294.199 105.972C294.648 108.972 293.222 111.898 292.683 114.883C292.422 116.326 292.394 117.909 293.166 119.156C294.251 120.911 296.512 121.448 298.54 121.832C300.145 122.136 301.833 122.436 303.387 121.93C304.941 121.425 306.268 119.819 305.866 118.234C306.261 119.271 306.654 120.308 307.049 121.344C308.713 122.036 310.738 121.282 311.873 119.882C313.007 118.481 312.441 116.793 312.33 114.994C312.219 113.196 313.037 109.689 312.569 107.948Z" fill="#263238"/>
<path d="M304.98 116.477C304.928 116.44 305.707 115.975 306.303 114.592C306.594 113.908 306.802 113.003 306.802 111.945C306.812 110.886 306.56 109.692 306.098 108.437C305.639 107.179 304.969 105.866 304.306 104.42C303.656 102.975 303.009 101.355 302.88 99.531C302.816 98.626 302.928 97.6712 303.205 96.7691C303.459 95.8642 303.804 94.9713 303.891 94.0372C303.996 93.1066 303.718 92.1582 303.128 91.3893C302.558 90.6032 301.758 89.971 300.977 89.3074C300.194 88.6417 299.391 87.9702 298.819 87.0987C298.219 86.2415 297.985 85.1863 297.982 84.2002C297.986 82.2137 298.59 80.3931 298.434 78.6466C298.305 76.8979 297.3 75.4419 296.171 74.3817C295.034 73.3016 293.795 72.4928 292.674 71.7495C290.404 70.2913 288.743 68.7569 288.02 67.3991C287.645 66.7341 287.477 66.1595 287.393 65.7701C287.352 65.5743 287.341 65.4212 287.328 65.3208C287.316 65.219 287.314 65.167 287.321 65.1663C287.376 65.1478 287.378 66.0328 288.145 67.3265C288.891 68.6323 290.541 70.1062 292.818 71.5294C293.949 72.26 295.208 73.0617 296.384 74.1589C297.548 75.2304 298.629 76.7591 298.775 78.6167C298.943 80.4529 298.338 82.2963 298.347 84.1952C298.355 85.1393 298.57 86.0977 299.127 86.8937C299.66 87.7054 300.437 88.3611 301.216 89.0226C301.996 89.6876 302.815 90.3284 303.426 91.1707C304.059 91.9881 304.374 93.0689 304.253 94.0699C304.155 95.0746 303.797 95.9788 303.547 96.8652C303.274 97.7481 303.168 98.6346 303.223 99.5089C303.336 101.26 303.955 102.855 304.588 104.292C305.234 105.732 305.896 107.063 306.345 108.346C306.799 109.625 307.041 110.857 307.011 111.945C306.99 113.03 306.755 113.955 306.436 114.647C306.118 115.344 305.736 115.81 305.45 116.089C305.165 116.373 304.98 116.477 304.98 116.477Z" fill="#455A64"/>
</svg>
