<svg width="350" height="350" viewBox="0 0 350 350" fill="none" xmlns="http://www.w3.org/2000/svg">
<rect x="35" y="15" width="280" height="319" rx="20" fill="#376AEF"/>
<path d="M134.369 70.444L131.401 66.888C130.58 67.0933 129.74 67.196 128.881 67.196C127.052 67.196 125.372 66.7667 123.841 65.908C122.311 65.0493 121.097 63.864 120.201 62.352C119.305 60.8213 118.857 59.0947 118.857 57.172C118.857 55.268 119.305 53.56 120.201 52.048C121.097 50.5173 122.311 49.3227 123.841 48.464C125.372 47.6053 127.052 47.176 128.881 47.176C130.729 47.176 132.409 47.6053 133.921 48.464C135.452 49.3227 136.656 50.5173 137.533 52.048C138.429 53.56 138.877 55.268 138.877 57.172C138.877 58.908 138.504 60.4947 137.757 61.932C137.029 63.3507 136.031 64.508 134.761 65.404L139.241 70.444H134.369ZM122.889 57.172C122.889 58.4787 123.141 59.6267 123.645 60.616C124.149 61.6053 124.849 62.3707 125.745 62.912C126.66 63.4347 127.705 63.696 128.881 63.696C130.057 63.696 131.093 63.4347 131.989 62.912C132.885 62.3707 133.585 61.6053 134.089 60.616C134.593 59.6267 134.845 58.4787 134.845 57.172C134.845 55.8653 134.593 54.7267 134.089 53.756C133.585 52.7667 132.885 52.0107 131.989 51.488C131.093 50.9653 130.057 50.704 128.881 50.704C127.705 50.704 126.66 50.9653 125.745 51.488C124.849 52.0107 124.149 52.7667 123.645 53.756C123.141 54.7267 122.889 55.8653 122.889 57.172ZM151.368 67L147.056 59.384H145.208V67H141.288V47.456H148.624C150.136 47.456 151.424 47.7267 152.488 48.268C153.552 48.7907 154.346 49.5093 154.868 50.424C155.41 51.32 155.68 52.328 155.68 53.448C155.68 54.736 155.307 55.9027 154.56 56.948C153.814 57.9747 152.703 58.684 151.228 59.076L155.904 67H151.368ZM145.208 56.444H148.484C149.548 56.444 150.342 56.192 150.864 55.688C151.387 55.1653 151.648 54.4467 151.648 53.532C151.648 52.636 151.387 51.9453 150.864 51.46C150.342 50.956 149.548 50.704 148.484 50.704H145.208V56.444ZM163.77 59.244C163.77 57.6387 164.096 56.2387 164.75 55.044C165.403 53.8307 166.308 52.8973 167.466 52.244C168.623 51.572 169.948 51.236 171.442 51.236C173.364 51.236 174.951 51.7213 176.202 52.692C177.471 53.644 178.32 54.988 178.75 56.724H174.522C174.298 56.052 173.915 55.5293 173.374 55.156C172.851 54.764 172.198 54.568 171.414 54.568C170.294 54.568 169.407 54.9787 168.754 55.8C168.1 56.6027 167.774 57.7507 167.774 59.244C167.774 60.7187 168.1 61.8667 168.754 62.688C169.407 63.4907 170.294 63.892 171.414 63.892C173 63.892 174.036 63.1827 174.522 61.764H178.75C178.32 63.444 177.471 64.7787 176.202 65.768C174.932 66.7573 173.346 67.252 171.442 67.252C169.948 67.252 168.623 66.9253 167.466 66.272C166.308 65.6 165.403 64.6667 164.75 63.472C164.096 62.2587 163.77 60.8493 163.77 59.244ZM187.949 67.252C186.456 67.252 185.112 66.9253 183.917 66.272C182.723 65.6 181.78 64.6573 181.089 63.444C180.417 62.2307 180.081 60.8307 180.081 59.244C180.081 57.6573 180.427 56.2573 181.117 55.044C181.827 53.8307 182.788 52.8973 184.001 52.244C185.215 51.572 186.568 51.236 188.061 51.236C189.555 51.236 190.908 51.572 192.121 52.244C193.335 52.8973 194.287 53.8307 194.977 55.044C195.687 56.2573 196.041 57.6573 196.041 59.244C196.041 60.8307 195.677 62.2307 194.949 63.444C194.24 64.6573 193.269 65.6 192.037 66.272C190.824 66.9253 189.461 67.252 187.949 67.252ZM187.949 63.836C188.659 63.836 189.321 63.668 189.937 63.332C190.572 62.9773 191.076 62.4547 191.449 61.764C191.823 61.0733 192.009 60.2333 192.009 59.244C192.009 57.7693 191.617 56.64 190.833 55.856C190.068 55.0533 189.125 54.652 188.005 54.652C186.885 54.652 185.943 55.0533 185.177 55.856C184.431 56.64 184.057 57.7693 184.057 59.244C184.057 60.7187 184.421 61.8573 185.149 62.66C185.896 63.444 186.829 63.836 187.949 63.836ZM197.349 59.188C197.349 57.62 197.657 56.2293 198.273 55.016C198.908 53.8027 199.766 52.8693 200.849 52.216C201.932 51.5627 203.136 51.236 204.461 51.236C205.469 51.236 206.43 51.46 207.345 51.908C208.26 52.3373 208.988 52.916 209.529 53.644V46.28H213.505V67H209.529V64.704C209.044 65.4693 208.362 66.0853 207.485 66.552C206.608 67.0187 205.59 67.252 204.433 67.252C203.126 67.252 201.932 66.916 200.849 66.244C199.766 65.572 198.908 64.6293 198.273 63.416C197.657 62.184 197.349 60.7747 197.349 59.188ZM209.557 59.244C209.557 58.292 209.37 57.48 208.997 56.808C208.624 56.1173 208.12 55.5947 207.485 55.24C206.85 54.8667 206.169 54.68 205.441 54.68C204.713 54.68 204.041 54.8573 203.425 55.212C202.809 55.5667 202.305 56.0893 201.913 56.78C201.54 57.452 201.353 58.2547 201.353 59.188C201.353 60.1213 201.54 60.9427 201.913 61.652C202.305 62.3427 202.809 62.8747 203.425 63.248C204.06 63.6213 204.732 63.808 205.441 63.808C206.169 63.808 206.85 63.6307 207.485 63.276C208.12 62.9027 208.624 62.38 208.997 61.708C209.37 61.0173 209.557 60.196 209.557 59.244ZM231.193 58.908C231.193 59.468 231.156 59.972 231.081 60.42H219.741C219.835 61.54 220.227 62.4173 220.917 63.052C221.608 63.6867 222.457 64.004 223.465 64.004C224.921 64.004 225.957 63.3787 226.573 62.128H230.801C230.353 63.6213 229.495 64.8533 228.225 65.824C226.956 66.776 225.397 67.252 223.549 67.252C222.056 67.252 220.712 66.9253 219.517 66.272C218.341 65.6 217.417 64.6573 216.745 63.444C216.092 62.2307 215.765 60.8307 215.765 59.244C215.765 57.6387 216.092 56.2293 216.745 55.016C217.399 53.8027 218.313 52.8693 219.489 52.216C220.665 51.5627 222.019 51.236 223.549 51.236C225.024 51.236 226.34 51.5533 227.497 52.188C228.673 52.8227 229.579 53.728 230.213 54.904C230.867 56.0613 231.193 57.396 231.193 58.908ZM227.133 57.788C227.115 56.78 226.751 55.9773 226.041 55.38C225.332 54.764 224.464 54.456 223.437 54.456C222.467 54.456 221.645 54.7547 220.973 55.352C220.32 55.9307 219.919 56.7427 219.769 57.788H227.133Z" fill="white"/>
<rect x="75" y="94" width="200" height="200" rx="20" fill="white"/>
<path d="M104.359 117.301H98.301V123.359H104.359V117.301Z" fill="#343434"/>
<path d="M104.359 123.359H98.301V129.417H104.359V123.359Z" fill="#343434"/>
<path d="M104.359 129.417H98.301V135.475H104.359V129.417Z" fill="#343434"/>
<path d="M104.359 135.475H98.301V141.533H104.359V135.475Z" fill="#343434"/>
<path d="M104.359 141.533H98.301V147.591H104.359V141.533Z" fill="#343434"/>
<path d="M104.359 147.591H98.301V153.649H104.359V147.591Z" fill="#343434"/>
<path d="M104.359 153.649H98.301V159.707H104.359V153.649Z" fill="#343434"/>
<path d="M104.359 165.766H98.301V171.824H104.359V165.766Z" fill="#343434"/>
<path d="M104.359 177.884H98.301V183.942H104.359V177.884Z" fill="#343434"/>
<path d="M104.359 226.348H98.301V232.406H104.359V226.348Z" fill="#343434"/>
<path d="M104.359 232.406H98.301V238.464H104.359V232.406Z" fill="#343434"/>
<path d="M104.359 238.467H98.301V244.525H104.359V238.467Z" fill="#343434"/>
<path d="M104.359 244.525H98.301V250.583H104.359V244.525Z" fill="#343434"/>
<path d="M104.359 250.583H98.301V256.641H104.359V250.583Z" fill="#343434"/>
<path d="M104.359 256.641H98.301V262.699H104.359V256.641Z" fill="#343434"/>
<path d="M104.359 262.7H98.301V268.758H104.359V262.7Z" fill="#343434"/>
<path d="M110.417 117.301H104.359V123.359H110.417V117.301Z" fill="#343434"/>
<path d="M110.417 153.649H104.359V159.707H110.417V153.649Z" fill="#343434"/>
<path d="M110.417 165.765H104.359V171.823H110.417V165.765Z" fill="#343434"/>
<path d="M110.417 171.823H104.359V177.881H110.417V171.823Z" fill="#343434"/>
<path d="M110.417 177.884H104.359V183.942H110.417V177.884Z" fill="#343434"/>
<path d="M110.417 183.942H104.359V190H110.417V183.942Z" fill="#343434"/>
<path d="M110.417 208.174H104.359V214.232H110.417V208.174Z" fill="#343434"/>
<path d="M110.417 214.232H104.359V220.29H110.417V214.232Z" fill="#343434"/>
<path d="M110.417 226.348H104.359V232.406H110.417V226.348Z" fill="#343434"/>
<path d="M110.417 262.7H104.359V268.758H110.417V262.7Z" fill="#343434"/>
<path d="M116.475 117.301H110.417V123.359H116.475V117.301Z" fill="#343434"/>
<path d="M116.475 129.417H110.417V135.476H116.475V129.417Z" fill="#343434"/>
<path d="M116.475 135.475H110.417V141.533H116.475V135.475Z" fill="#343434"/>
<path d="M116.475 141.533H110.417V147.591H116.475V141.533Z" fill="#343434"/>
<path d="M116.475 153.649H110.417V159.707H116.475V153.649Z" fill="#343434"/>
<path d="M116.475 171.823H110.417V177.881H116.475V171.823Z" fill="#343434"/>
<path d="M116.475 190H110.417V196.058H116.475V190Z" fill="#343434"/>
<path d="M116.475 208.174H110.417V214.232H116.475V208.174Z" fill="#343434"/>
<path d="M116.475 214.232H110.417V220.29H116.475V214.232Z" fill="#343434"/>
<path d="M116.475 226.348H110.417V232.406H116.475V226.348Z" fill="#343434"/>
<path d="M116.475 238.468H110.417V244.526H116.475V238.468Z" fill="#343434"/>
<path d="M116.475 244.524H110.417V250.582H116.475V244.524Z" fill="#343434"/>
<path d="M116.475 250.583H110.417V256.641H116.475V250.583Z" fill="#343434"/>
<path d="M116.475 262.7H110.417V268.758H116.475V262.7Z" fill="#343434"/>
<path d="M122.533 117.301H116.475V123.359H122.533V117.301Z" fill="#343434"/>
<path d="M122.533 129.417H116.475V135.476H122.533V129.417Z" fill="#343434"/>
<path d="M122.533 135.475H116.475V141.533H122.533V135.475Z" fill="#343434"/>
<path d="M122.533 141.533H116.475V147.591H122.533V141.533Z" fill="#343434"/>
<path d="M122.533 153.649H116.475V159.707H122.533V153.649Z" fill="#343434"/>
<path d="M122.533 165.765H116.475V171.823H122.533V165.765Z" fill="#343434"/>
<path d="M122.533 177.884H116.475V183.942H122.533V177.884Z" fill="#343434"/>
<path d="M122.533 183.942H116.475V190H122.533V183.942Z" fill="#343434"/>
<path d="M122.533 190H116.475V196.058H122.533V190Z" fill="#343434"/>
<path d="M122.533 196.058H116.475V202.116H122.533V196.058Z" fill="#343434"/>
<path d="M122.533 202.117H116.475V208.175H122.533V202.117Z" fill="#343434"/>
<path d="M122.533 208.174H116.475V214.232H122.533V208.174Z" fill="#343434"/>
<path d="M122.533 226.348H116.475V232.406H122.533V226.348Z" fill="#343434"/>
<path d="M122.533 238.468H116.475V244.526H122.533V238.468Z" fill="#343434"/>
<path d="M122.533 244.524H116.475V250.582H122.533V244.524Z" fill="#343434"/>
<path d="M122.533 250.583H116.475V256.641H122.533V250.583Z" fill="#343434"/>
<path d="M122.533 262.7H116.475V268.758H122.533V262.7Z" fill="#343434"/>
<path d="M128.591 117.301H122.533V123.359H128.591V117.301Z" fill="#343434"/>
<path d="M128.591 129.417H122.533V135.476H128.591V129.417Z" fill="#343434"/>
<path d="M128.591 135.475H122.533V141.533H128.591V135.475Z" fill="#343434"/>
<path d="M128.591 141.533H122.533V147.591H128.591V141.533Z" fill="#343434"/>
<path d="M128.591 153.649H122.533V159.707H128.591V153.649Z" fill="#343434"/>
<path d="M128.591 165.765H122.533V171.823H128.591V165.765Z" fill="#343434"/>
<path d="M128.591 183.942H122.533V190H128.591V183.942Z" fill="#343434"/>
<path d="M128.591 202.117H122.533V208.175H128.591V202.117Z" fill="#343434"/>
<path d="M128.591 208.174H122.533V214.232H128.591V208.174Z" fill="#343434"/>
<path d="M128.591 226.348H122.533V232.406H128.591V226.348Z" fill="#343434"/>
<path d="M128.591 238.468H122.533V244.526H128.591V238.468Z" fill="#343434"/>
<path d="M128.591 244.524H122.533V250.582H128.591V244.524Z" fill="#343434"/>
<path d="M128.591 250.583H122.533V256.641H128.591V250.583Z" fill="#343434"/>
<path d="M128.591 262.7H122.533V268.758H128.591V262.7Z" fill="#343434"/>
<path d="M134.649 117.301H128.591V123.359H134.649V117.301Z" fill="#343434"/>
<path d="M134.649 153.649H128.591V159.707H134.649V153.649Z" fill="#343434"/>
<path d="M134.649 171.823H128.591V177.881H134.649V171.823Z" fill="#343434"/>
<path d="M134.649 177.884H128.591V183.942H134.649V177.884Z" fill="#343434"/>
<path d="M134.649 190H128.591V196.058H134.649V190Z" fill="#343434"/>
<path d="M134.649 202.117H128.591V208.175H134.649V202.117Z" fill="#343434"/>
<path d="M134.649 208.174H128.591V214.232H134.649V208.174Z" fill="#343434"/>
<path d="M134.649 214.232H128.591V220.29H134.649V214.232Z" fill="#343434"/>
<path d="M134.649 226.348H128.591V232.406H134.649V226.348Z" fill="#343434"/>
<path d="M134.649 262.7H128.591V268.758H134.649V262.7Z" fill="#343434"/>
<path d="M140.707 117.301H134.649V123.359H140.707V117.301Z" fill="#343434"/>
<path d="M140.707 123.359H134.649V129.417H140.707V123.359Z" fill="#343434"/>
<path d="M140.707 129.417H134.649V135.476H140.707V129.417Z" fill="#343434"/>
<path d="M140.707 135.475H134.649V141.533H140.707V135.475Z" fill="#343434"/>
<path d="M140.707 141.533H134.649V147.591H140.707V141.533Z" fill="#343434"/>
<path d="M140.707 147.591H134.649V153.649H140.707V147.591Z" fill="#343434"/>
<path d="M140.707 153.649H134.649V159.707H140.707V153.649Z" fill="#343434"/>
<path d="M140.707 165.765H134.649V171.823H140.707V165.765Z" fill="#343434"/>
<path d="M140.707 177.884H134.649V183.942H140.707V177.884Z" fill="#343434"/>
<path d="M140.707 190H134.649V196.058H140.707V190Z" fill="#343434"/>
<path d="M140.707 202.117H134.649V208.175H140.707V202.117Z" fill="#343434"/>
<path d="M140.707 214.232H134.649V220.29H140.707V214.232Z" fill="#343434"/>
<path d="M140.707 226.348H134.649V232.406H140.707V226.348Z" fill="#343434"/>
<path d="M140.707 232.406H134.649V238.464H140.707V232.406Z" fill="#343434"/>
<path d="M140.707 238.468H134.649V244.526H140.707V238.468Z" fill="#343434"/>
<path d="M140.707 244.524H134.649V250.582H140.707V244.524Z" fill="#343434"/>
<path d="M140.707 250.583H134.649V256.641H140.707V250.583Z" fill="#343434"/>
<path d="M140.707 256.641H134.649V262.699H140.707V256.641Z" fill="#343434"/>
<path d="M140.707 262.7H134.649V268.758H140.707V262.7Z" fill="#343434"/>
<path d="M146.768 171.823H140.71V177.881H146.768V171.823Z" fill="#343434"/>
<path d="M146.768 190H140.71V196.058H146.768V190Z" fill="#343434"/>
<path d="M146.768 196.058H140.71V202.116H146.768V196.058Z" fill="#343434"/>
<path d="M146.768 214.232H140.71V220.29H146.768V214.232Z" fill="#343434"/>
<path d="M152.826 117.301H146.768V123.359H152.826V117.301Z" fill="#343434"/>
<path d="M152.826 153.649H146.768V159.707H152.826V153.649Z" fill="#343434"/>
<path d="M152.826 159.708H146.768V165.766H152.826V159.708Z" fill="#343434"/>
<path d="M152.826 171.823H146.768V177.881H152.826V171.823Z" fill="#343434"/>
<path d="M152.826 177.884H146.768V183.942H152.826V177.884Z" fill="#343434"/>
<path d="M152.826 183.942H146.768V190H152.826V183.942Z" fill="#343434"/>
<path d="M152.826 196.058H146.768V202.116H152.826V196.058Z" fill="#343434"/>
<path d="M152.826 208.174H146.768V214.232H152.826V208.174Z" fill="#343434"/>
<path d="M152.826 220.29H146.768V226.348H152.826V220.29Z" fill="#343434"/>
<path d="M152.826 238.468H146.768V244.526H152.826V238.468Z" fill="#343434"/>
<path d="M152.826 244.524H146.768V250.582H152.826V244.524Z" fill="#343434"/>
<path d="M152.826 256.641H146.768V262.699H152.826V256.641Z" fill="#343434"/>
<path d="M152.826 262.7H146.768V268.758H152.826V262.7Z" fill="#343434"/>
<path d="M158.884 117.301H152.826V123.359H158.884V117.301Z" fill="#343434"/>
<path d="M158.884 129.417H152.826V135.476H158.884V129.417Z" fill="#343434"/>
<path d="M158.884 147.591H152.826V153.649H158.884V147.591Z" fill="#343434"/>
<path d="M158.884 159.708H152.826V165.766H158.884V159.708Z" fill="#343434"/>
<path d="M158.884 165.765H152.826V171.823H158.884V165.765Z" fill="#343434"/>
<path d="M158.884 177.884H152.826V183.942H158.884V177.884Z" fill="#343434"/>
<path d="M158.884 190H152.826V196.058H158.884V190Z" fill="#343434"/>
<path d="M158.884 208.174H152.826V214.232H158.884V208.174Z" fill="#343434"/>
<path d="M158.884 226.348H152.826V232.406H158.884V226.348Z" fill="#343434"/>
<path d="M158.884 238.468H152.826V244.526H158.884V238.468Z" fill="#343434"/>
<path d="M158.884 250.583H152.826V256.641H158.884V250.583Z" fill="#343434"/>
<path d="M158.884 256.641H152.826V262.699H158.884V256.641Z" fill="#343434"/>
<path d="M164.942 117.301H158.884V123.359H164.942V117.301Z" fill="#343434"/>
<path d="M164.942 135.475H158.884V141.533H164.942V135.475Z" fill="#343434"/>
<path d="M164.942 141.533H158.884V147.591H164.942V141.533Z" fill="#343434"/>
<path d="M164.942 153.649H158.884V159.707H164.942V153.649Z" fill="#343434"/>
<path d="M164.942 171.823H158.884V177.881H164.942V171.823Z" fill="#343434"/>
<path d="M164.942 190H158.884V196.058H164.942V190Z" fill="#343434"/>
<path d="M164.942 196.058H158.884V202.116H164.942V196.058Z" fill="#343434"/>
<path d="M164.942 202.117H158.884V208.175H164.942V202.117Z" fill="#343434"/>
<path d="M164.942 208.174H158.884V214.232H164.942V208.174Z" fill="#343434"/>
<path d="M164.942 220.29H158.884V226.348H164.942V220.29Z" fill="#343434"/>
<path d="M164.942 226.348H158.884V232.406H164.942V226.348Z" fill="#343434"/>
<path d="M164.942 238.468H158.884V244.526H164.942V238.468Z" fill="#343434"/>
<path d="M164.942 256.641H158.884V262.699H164.942V256.641Z" fill="#343434"/>
<path d="M164.942 262.7H158.884V268.758H164.942V262.7Z" fill="#343434"/>
<path d="M171 117.301H164.942V123.359H171V117.301Z" fill="#343434"/>
<path d="M171 123.359H164.942V129.417H171V123.359Z" fill="#343434"/>
<path d="M171 129.417H164.942V135.476H171V129.417Z" fill="#343434"/>
<path d="M171 135.475H164.942V141.533H171V135.475Z" fill="#343434"/>
<path d="M171 141.533H164.942V147.591H171V141.533Z" fill="#343434"/>
<path d="M171 147.591H164.942V153.649H171V147.591Z" fill="#343434"/>
<path d="M171 214.232H164.942V220.29H171V214.232Z" fill="#343434"/>
<path d="M171 220.29H164.942V226.348H171V220.29Z" fill="#343434"/>
<path d="M171 232.406H164.942V238.464H171V232.406Z" fill="#343434"/>
<path d="M171 238.468H164.942V244.526H171V238.468Z" fill="#343434"/>
<path d="M171 250.583H164.942V256.641H171V250.583Z" fill="#343434"/>
<path d="M171 256.641H164.942V262.699H171V256.641Z" fill="#343434"/>
<path d="M171 262.7H164.942V268.758H171V262.7Z" fill="#343434"/>
<path d="M177.058 123.359H171V129.417H177.058V123.359Z" fill="#343434"/>
<path d="M177.058 141.533H171V147.591H177.058V141.533Z" fill="#343434"/>
<path d="M177.058 153.649H171V159.707H177.058V153.649Z" fill="#343434"/>
<path d="M177.058 159.708H171V165.766H177.058V159.708Z" fill="#343434"/>
<path d="M177.058 165.765H171V171.823H177.058V165.765Z" fill="#343434"/>
<path d="M177.058 177.884H171V183.942H177.058V177.884Z" fill="#343434"/>
<path d="M177.058 196.058H171V202.116H177.058V196.058Z" fill="#343434"/>
<path d="M177.058 208.174H171V214.232H177.058V208.174Z" fill="#343434"/>
<path d="M177.058 214.232H171V220.29H177.058V214.232Z" fill="#343434"/>
<path d="M177.058 226.348H171V232.406H177.058V226.348Z" fill="#343434"/>
<path d="M177.058 244.524H171V250.582H177.058V244.524Z" fill="#343434"/>
<path d="M177.058 256.641H171V262.699H177.058V256.641Z" fill="#343434"/>
<path d="M177.058 262.7H171V268.758H177.058V262.7Z" fill="#343434"/>
<path d="M183.116 129.417H177.058V135.476H183.116V129.417Z" fill="#343434"/>
<path d="M183.116 135.475H177.058V141.533H183.116V135.475Z" fill="#343434"/>
<path d="M183.116 141.533H177.058V147.591H183.116V141.533Z" fill="#343434"/>
<path d="M183.116 147.591H177.058V153.649H183.116V147.591Z" fill="#343434"/>
<path d="M183.116 159.708H177.058V165.766H183.116V159.708Z" fill="#343434"/>
<path d="M183.116 177.884H177.058V183.942H183.116V177.884Z" fill="#343434"/>
<path d="M183.116 214.232H177.058V220.29H183.116V214.232Z" fill="#343434"/>
<path d="M183.116 220.29H177.058V226.348H183.116V220.29Z" fill="#343434"/>
<path d="M183.116 226.348H177.058V232.406H183.116V226.348Z" fill="#343434"/>
<path d="M183.116 232.406H177.058V238.464H183.116V232.406Z" fill="#343434"/>
<path d="M183.116 238.468H177.058V244.526H183.116V238.468Z" fill="#343434"/>
<path d="M183.116 244.524H177.058V250.582H183.116V244.524Z" fill="#343434"/>
<path d="M183.116 250.583H177.058V256.641H183.116V250.583Z" fill="#343434"/>
<path d="M183.116 256.641H177.058V262.699H183.116V256.641Z" fill="#343434"/>
<path d="M183.116 262.7H177.058V268.758H183.116V262.7Z" fill="#343434"/>
<path d="M189.174 117.301H183.116V123.359H189.174V117.301Z" fill="#343434"/>
<path d="M189.174 123.359H183.116V129.417H189.174V123.359Z" fill="#343434"/>
<path d="M189.174 129.417H183.116V135.476H189.174V129.417Z" fill="#343434"/>
<path d="M189.174 135.475H183.116V141.533H189.174V135.475Z" fill="#343434"/>
<path d="M189.174 141.533H183.116V147.591H189.174V141.533Z" fill="#343434"/>
<path d="M189.174 147.591H183.116V153.649H189.174V147.591Z" fill="#343434"/>
<path d="M189.174 153.649H183.116V159.707H189.174V153.649Z" fill="#343434"/>
<path d="M189.174 159.708H183.116V165.766H189.174V159.708Z" fill="#343434"/>
<path d="M189.174 165.765H183.116V171.823H189.174V165.765Z" fill="#343434"/>
<path d="M189.174 171.823H183.116V177.881H189.174V171.823Z" fill="#343434"/>
<path d="M189.174 177.884H183.116V183.942H189.174V177.884Z" fill="#343434"/>
<path d="M189.174 183.942H183.116V190H189.174V183.942Z" fill="#343434"/>
<path d="M189.174 196.058H183.116V202.116H189.174V196.058Z" fill="#343434"/>
<path d="M189.174 202.117H183.116V208.175H189.174V202.117Z" fill="#343434"/>
<path d="M189.174 244.524H183.116V250.582H189.174V244.524Z" fill="#343434"/>
<path d="M195.232 129.417H189.174V135.476H195.232V129.417Z" fill="#343434"/>
<path d="M195.232 135.475H189.174V141.533H195.232V135.475Z" fill="#343434"/>
<path d="M195.232 165.765H189.174V171.823H195.232V165.765Z" fill="#343434"/>
<path d="M195.232 171.823H189.174V177.881H195.232V171.823Z" fill="#343434"/>
<path d="M195.232 177.884H189.174V183.942H195.232V177.884Z" fill="#343434"/>
<path d="M195.232 190H189.174V196.058H195.232V190Z" fill="#343434"/>
<path d="M195.232 196.058H189.174V202.116H195.232V196.058Z" fill="#343434"/>
<path d="M195.232 202.117H189.174V208.175H195.232V202.117Z" fill="#343434"/>
<path d="M195.232 214.232H189.174V220.29H195.232V214.232Z" fill="#343434"/>
<path d="M195.232 232.406H189.174V238.464H195.232V232.406Z" fill="#343434"/>
<path d="M195.232 238.468H189.174V244.526H195.232V238.468Z" fill="#343434"/>
<path d="M195.232 250.583H189.174V256.641H195.232V250.583Z" fill="#343434"/>
<path d="M195.232 256.641H189.174V262.699H195.232V256.641Z" fill="#343434"/>
<path d="M201.293 123.359H195.235V129.417H201.293V123.359Z" fill="#343434"/>
<path d="M201.293 129.417H195.235V135.476H201.293V129.417Z" fill="#343434"/>
<path d="M201.293 135.475H195.235V141.533H201.293V135.475Z" fill="#343434"/>
<path d="M201.293 141.533H195.235V147.591H201.293V141.533Z" fill="#343434"/>
<path d="M201.293 147.591H195.235V153.649H201.293V147.591Z" fill="#343434"/>
<path d="M201.293 153.649H195.235V159.707H201.293V153.649Z" fill="#343434"/>
<path d="M201.293 177.884H195.235V183.942H201.293V177.884Z" fill="#343434"/>
<path d="M201.293 190H195.235V196.058H201.293V190Z" fill="#343434"/>
<path d="M201.293 196.058H195.235V202.116H201.293V196.058Z" fill="#343434"/>
<path d="M201.293 214.232H195.235V220.29H201.293V214.232Z" fill="#343434"/>
<path d="M201.293 220.29H195.235V226.348H201.293V220.29Z" fill="#343434"/>
<path d="M201.293 226.348H195.235V232.406H201.293V226.348Z" fill="#343434"/>
<path d="M201.293 232.406H195.235V238.464H201.293V232.406Z" fill="#343434"/>
<path d="M201.293 238.468H195.235V244.526H201.293V238.468Z" fill="#343434"/>
<path d="M201.293 262.7H195.235V268.758H201.293V262.7Z" fill="#343434"/>
<path d="M207.351 171.823H201.293V177.881H207.351V171.823Z" fill="#343434"/>
<path d="M207.351 190H201.293V196.058H207.351V190Z" fill="#343434"/>
<path d="M207.351 202.117H201.293V208.175H207.351V202.117Z" fill="#343434"/>
<path d="M207.351 214.232H201.293V220.29H207.351V214.232Z" fill="#343434"/>
<path d="M207.351 238.468H201.293V244.526H207.351V238.468Z" fill="#343434"/>
<path d="M207.351 244.524H201.293V250.582H207.351V244.524Z" fill="#343434"/>
<path d="M207.351 250.583H201.293V256.641H207.351V250.583Z" fill="#343434"/>
<path d="M207.351 262.7H201.293V268.758H207.351V262.7Z" fill="#343434"/>
<path d="M213.409 117.301H207.351V123.359H213.409V117.301Z" fill="#343434"/>
<path d="M213.409 123.359H207.351V129.417H213.409V123.359Z" fill="#343434"/>
<path d="M213.409 129.417H207.351V135.476H213.409V129.417Z" fill="#343434"/>
<path d="M213.409 135.475H207.351V141.533H213.409V135.475Z" fill="#343434"/>
<path d="M213.409 141.533H207.351V147.591H213.409V141.533Z" fill="#343434"/>
<path d="M213.409 147.591H207.351V153.649H213.409V147.591Z" fill="#343434"/>
<path d="M213.409 153.649H207.351V159.707H213.409V153.649Z" fill="#343434"/>
<path d="M213.409 165.765H207.351V171.823H213.409V165.765Z" fill="#343434"/>
<path d="M213.409 177.884H207.351V183.942H213.409V177.884Z" fill="#343434"/>
<path d="M213.409 190H207.351V196.058H213.409V190Z" fill="#343434"/>
<path d="M213.409 214.232H207.351V220.29H213.409V214.232Z" fill="#343434"/>
<path d="M213.409 226.348H207.351V232.406H213.409V226.348Z" fill="#343434"/>
<path d="M213.409 238.468H207.351V244.526H213.409V238.468Z" fill="#343434"/>
<path d="M213.409 244.524H207.351V250.582H213.409V244.524Z" fill="#343434"/>
<path d="M213.409 256.641H207.351V262.699H213.409V256.641Z" fill="#343434"/>
<path d="M219.467 117.301H213.409V123.359H219.467V117.301Z" fill="#343434"/>
<path d="M219.467 153.649H213.409V159.707H219.467V153.649Z" fill="#343434"/>
<path d="M219.467 171.823H213.409V177.881H219.467V171.823Z" fill="#343434"/>
<path d="M219.467 177.884H213.409V183.942H219.467V177.884Z" fill="#343434"/>
<path d="M219.467 183.942H213.409V190H219.467V183.942Z" fill="#343434"/>
<path d="M219.467 208.174H213.409V214.232H219.467V208.174Z" fill="#343434"/>
<path d="M219.467 214.232H213.409V220.29H219.467V214.232Z" fill="#343434"/>
<path d="M219.467 238.468H213.409V244.526H219.467V238.468Z" fill="#343434"/>
<path d="M219.467 244.524H213.409V250.582H219.467V244.524Z" fill="#343434"/>
<path d="M219.467 250.583H213.409V256.641H219.467V250.583Z" fill="#343434"/>
<path d="M219.467 256.641H213.409V262.699H219.467V256.641Z" fill="#343434"/>
<path d="M225.525 117.301H219.467V123.359H225.525V117.301Z" fill="#343434"/>
<path d="M225.525 129.417H219.467V135.476H225.525V129.417Z" fill="#343434"/>
<path d="M225.525 135.475H219.467V141.533H225.525V135.475Z" fill="#343434"/>
<path d="M225.525 141.533H219.467V147.591H225.525V141.533Z" fill="#343434"/>
<path d="M225.525 153.649H219.467V159.707H225.525V153.649Z" fill="#343434"/>
<path d="M225.525 171.823H219.467V177.881H225.525V171.823Z" fill="#343434"/>
<path d="M225.525 196.058H219.467V202.116H225.525V196.058Z" fill="#343434"/>
<path d="M225.525 202.117H219.467V208.175H225.525V202.117Z" fill="#343434"/>
<path d="M225.525 208.174H219.467V214.232H225.525V208.174Z" fill="#343434"/>
<path d="M225.525 214.232H219.467V220.29H225.525V214.232Z" fill="#343434"/>
<path d="M225.525 220.29H219.467V226.348H225.525V220.29Z" fill="#343434"/>
<path d="M225.525 226.348H219.467V232.406H225.525V226.348Z" fill="#343434"/>
<path d="M225.525 232.406H219.467V238.464H225.525V232.406Z" fill="#343434"/>
<path d="M225.525 238.468H219.467V244.526H225.525V238.468Z" fill="#343434"/>
<path d="M225.525 250.583H219.467V256.641H225.525V250.583Z" fill="#343434"/>
<path d="M225.525 256.641H219.467V262.699H225.525V256.641Z" fill="#343434"/>
<path d="M231.583 117.301H225.525V123.359H231.583V117.301Z" fill="#343434"/>
<path d="M231.583 129.417H225.525V135.476H231.583V129.417Z" fill="#343434"/>
<path d="M231.583 135.475H225.525V141.533H231.583V135.475Z" fill="#343434"/>
<path d="M231.583 141.533H225.525V147.591H231.583V141.533Z" fill="#343434"/>
<path d="M231.583 153.649H225.525V159.707H231.583V153.649Z" fill="#343434"/>
<path d="M231.583 171.823H225.525V177.881H231.583V171.823Z" fill="#343434"/>
<path d="M231.583 177.884H225.525V183.942H231.583V177.884Z" fill="#343434"/>
<path d="M231.583 183.942H225.525V190H231.583V183.942Z" fill="#343434"/>
<path d="M231.583 202.117H225.525V208.175H231.583V202.117Z" fill="#343434"/>
<path d="M231.583 226.348H225.525V232.406H231.583V226.348Z" fill="#343434"/>
<path d="M231.583 238.468H225.525V244.526H231.583V238.468Z" fill="#343434"/>
<path d="M231.583 244.524H225.525V250.582H231.583V244.524Z" fill="#343434"/>
<path d="M231.583 262.7H225.525V268.758H231.583V262.7Z" fill="#343434"/>
<path d="M237.641 117.301H231.583V123.359H237.641V117.301Z" fill="#343434"/>
<path d="M237.641 129.417H231.583V135.476H237.641V129.417Z" fill="#343434"/>
<path d="M237.641 135.475H231.583V141.533H237.641V135.475Z" fill="#343434"/>
<path d="M237.641 141.533H231.583V147.591H237.641V141.533Z" fill="#343434"/>
<path d="M237.641 153.649H231.583V159.707H237.641V153.649Z" fill="#343434"/>
<path d="M237.641 171.823H231.583V177.881H237.641V171.823Z" fill="#343434"/>
<path d="M237.641 183.942H231.583V190H237.641V183.942Z" fill="#343434"/>
<path d="M237.641 202.117H231.583V208.175H237.641V202.117Z" fill="#343434"/>
<path d="M237.641 208.174H231.583V214.232H237.641V208.174Z" fill="#343434"/>
<path d="M237.641 214.232H231.583V220.29H237.641V214.232Z" fill="#343434"/>
<path d="M237.641 250.583H231.583V256.641H237.641V250.583Z" fill="#343434"/>
<path d="M237.641 256.641H231.583V262.699H237.641V256.641Z" fill="#343434"/>
<path d="M243.699 117.301H237.641V123.359H243.699V117.301Z" fill="#343434"/>
<path d="M243.699 153.649H237.641V159.707H243.699V153.649Z" fill="#343434"/>
<path d="M243.699 171.823H237.641V177.881H243.699V171.823Z" fill="#343434"/>
<path d="M243.699 183.942H237.641V190H243.699V183.942Z" fill="#343434"/>
<path d="M243.699 196.058H237.641V202.116H243.699V196.058Z" fill="#343434"/>
<path d="M243.699 202.117H237.641V208.175H243.699V202.117Z" fill="#343434"/>
<path d="M243.699 214.232H237.641V220.29H243.699V214.232Z" fill="#343434"/>
<path d="M243.699 220.29H237.641V226.348H243.699V220.29Z" fill="#343434"/>
<path d="M243.699 238.468H237.641V244.526H243.699V238.468Z" fill="#343434"/>
<path d="M243.699 244.524H237.641V250.582H243.699V244.524Z" fill="#343434"/>
<path d="M243.699 250.583H237.641V256.641H243.699V250.583Z" fill="#343434"/>
<path d="M243.699 256.641H237.641V262.699H243.699V256.641Z" fill="#343434"/>
<path d="M249.757 117.301H243.699V123.359H249.757V117.301Z" fill="#343434"/>
<path d="M249.757 123.359H243.699V129.417H249.757V123.359Z" fill="#343434"/>
<path d="M249.757 129.417H243.699V135.476H249.757V129.417Z" fill="#343434"/>
<path d="M249.757 135.475H243.699V141.533H249.757V135.475Z" fill="#343434"/>
<path d="M249.757 141.533H243.699V147.591H249.757V141.533Z" fill="#343434"/>
<path d="M249.757 147.591H243.699V153.649H249.757V147.591Z" fill="#343434"/>
<path d="M249.757 153.649H243.699V159.707H249.757V153.649Z" fill="#343434"/>
<path d="M249.757 165.765H243.699V171.823H249.757V165.765Z" fill="#343434"/>
<path d="M249.757 177.884H243.699V183.942H249.757V177.884Z" fill="#343434"/>
<path d="M249.757 183.942H243.699V190H249.757V183.942Z" fill="#343434"/>
<path d="M249.757 190H243.699V196.058H249.757V190Z" fill="#343434"/>
<path d="M249.757 202.117H243.699V208.175H249.757V202.117Z" fill="#343434"/>
<path d="M249.757 208.174H243.699V214.232H249.757V208.174Z" fill="#343434"/>
<path d="M249.757 226.348H243.699V232.406H249.757V226.348Z" fill="#343434"/>
<path d="M249.757 238.468H243.699V244.526H249.757V238.468Z" fill="#343434"/>
<path d="M249.757 244.524H243.699V250.582H249.757V244.524Z" fill="#343434"/>
<path d="M249.757 250.583H243.699V256.641H249.757V250.583Z" fill="#343434"/>
<path d="M249.757 256.641H243.699V262.699H249.757V256.641Z" fill="#343434"/>
<path d="M249.757 262.7H243.699V268.758H249.757V262.7Z" fill="#343434"/>
</svg>
