<svg width="350" height="350" viewBox="0 0 350 350" fill="none" xmlns="http://www.w3.org/2000/svg">
<path d="M81.9203 55.1299L77.6231 47.5796C79.5243 44.5028 80.6225 40.8817 80.6225 37.0028C80.6225 25.8489 71.5539 16.8071 60.367 16.8071C49.1801 16.8071 40.1115 25.8489 40.1115 37.0028C40.1115 48.1568 49.1801 57.1986 60.367 57.1986C65.0382 57.1986 69.3369 55.6179 72.763 52.9689L72.7561 52.9781L81.9203 55.1299Z" fill="white"/>
<path d="M81.9204 55.1299C81.4715 55.0278 78.5792 54.3697 72.7417 53.0407L72.6446 53.0186L72.705 52.9393L72.7119 52.9301L72.8022 53.0201C71.6466 53.913 70.2624 54.7929 68.635 55.5257C67.006 56.2462 65.1392 56.8349 63.0782 57.1079C62.0496 57.239 60.9743 57.3237 59.8693 57.2703C59.3171 57.239 58.755 57.2261 58.1883 57.1788C57.6254 57.0942 57.0542 57.008 56.476 56.9211C54.1817 56.4697 51.8354 55.6012 49.6467 54.247C47.4595 52.8981 45.4344 51.0658 43.8108 48.8149C42.1903 46.5678 40.9605 43.9036 40.3854 41.0083C39.8157 38.1169 39.8631 35.0181 40.6248 32.0192C41.3918 29.0301 42.8242 26.1105 44.9686 23.7086L45.7961 22.8005C46.0684 22.4955 46.3926 22.2439 46.6878 21.9633C46.996 21.6987 47.2752 21.3982 47.6063 21.1641L48.5791 20.439C48.8942 20.1851 49.2414 19.9807 49.5863 19.7749C49.9296 19.5667 50.2723 19.3593 50.6141 19.1527C50.9735 18.9788 51.3322 18.805 51.6901 18.6319C52.0511 18.4656 52.3983 18.2697 52.7769 18.15C55.7212 16.9849 58.8605 16.5411 61.8615 16.7584C64.8632 16.9742 67.7356 17.8328 70.1997 19.2159C72.6714 20.5877 74.7561 22.42 76.3644 24.4658C77.9781 26.5131 79.1145 28.7709 79.8188 31.0188C80.5178 33.2773 80.7067 35.5175 80.6991 37.5908C80.6387 39.6694 80.2593 41.584 79.7064 43.2646C79.152 44.9474 78.4247 46.3947 77.6737 47.6124L77.6752 47.5499C80.3855 52.3864 81.7063 54.7464 81.9204 55.1299C81.7002 54.7495 80.3458 52.4093 77.5697 47.6101L77.5513 47.5789L77.5704 47.5476C79.0487 45.1365 80.4222 41.7266 80.5232 37.5855C80.5224 35.5297 80.3282 33.3116 79.6292 31.0775C78.9256 28.854 77.7945 26.6229 76.1939 24.6015C74.5978 22.5816 72.5337 20.7745 70.088 19.4218C67.6507 18.0585 64.8119 17.2144 61.8462 17.0047C58.8812 16.7935 55.7808 17.2342 52.8747 18.3856C52.5008 18.503 52.1582 18.6974 51.8018 18.8614C51.4485 19.0329 51.0944 19.2045 50.7395 19.3761C50.4023 19.5804 50.0635 19.7855 49.7247 19.9914C49.3844 20.195 49.041 20.3963 48.7305 20.6472L47.77 21.3632C47.4426 21.5942 47.1681 21.8908 46.863 22.1524C46.5723 22.4291 46.2511 22.6777 45.9827 22.9789L45.1652 23.8756C43.0476 26.247 41.6327 29.13 40.8741 32.0802C40.1208 35.041 40.0711 38.1017 40.6309 40.958C41.1961 43.8182 42.4074 46.4519 44.005 48.6746C45.6064 50.9018 47.6048 52.7174 49.7652 54.0563C51.9264 55.3999 54.2452 56.2653 56.5158 56.719C57.0886 56.8075 57.653 56.8936 58.2105 56.9798C58.7711 57.0286 59.3278 57.0431 59.8746 57.0759C60.969 57.133 62.0343 57.053 63.0545 56.9272C65.0979 56.6641 66.951 56.0884 68.5715 55.3816C70.1897 54.6625 71.5694 53.7971 72.7234 52.9172L73.1134 52.6205L72.8144 53.0071L72.8075 53.0163L72.7708 52.9149C78.5899 54.324 81.4738 55.0217 81.9204 55.1299Z" fill="#263238"/>
<path d="M61.5586 43.1607V45.4124H59.9051V43.1805C57.929 43.06 56.0133 42.4165 54.9648 41.5122L55.8726 39.4816C56.8606 40.286 58.3733 40.8686 59.9051 41.0097V36.989C57.6667 36.4461 55.2676 35.7224 55.2676 32.9279C55.2676 30.8767 56.7597 29.0879 59.9051 28.7859V26.5137H61.5586V28.7455C63.0506 28.8256 64.5633 29.2686 65.6516 29.9716L64.8249 32.0022C63.7565 31.3792 62.6269 31.0369 61.5586 30.9164V34.9775C63.797 35.5204 66.2366 36.2242 66.2366 39.0188C66.2366 41.0699 64.7247 42.8389 61.5586 43.1607ZM59.9051 34.5558V30.9774C58.4735 31.1985 57.8686 31.9221 57.8686 32.8066C57.8686 33.772 58.7358 34.2142 59.9051 34.5558ZM63.6555 39.2002C63.6555 38.2151 62.7684 37.753 61.5586 37.4106V40.9692C63.0307 40.7481 63.6555 40.0649 63.6555 39.2002Z" fill="#263238"/>
<path d="M297.566 18.6743L285.315 8.33398L273.072 18.6743L260.826 8.33398L248.583 18.6743L236.344 8.33398L224.101 18.6743L211.859 8.33398L199.617 18.6743L187.373 8.33398L175.132 18.6743L162.891 8.33398L150.651 18.6743L138.409 8.33398V19.3499V24.9307V308.645V309.883V325.242L150.66 314.901L162.912 325.242L175.154 314.901L187.401 325.242L199.643 314.901L211.882 325.242L224.125 314.901L236.368 325.242L248.609 314.901L260.853 325.242L273.095 314.901L285.335 325.242L297.575 314.901L309.817 325.242V314.226V309.883V308.645V24.9307V19.3499V8.33398L297.566 18.6743Z" fill="#FAFAFA"/>
<path d="M297.567 18.6743C297.807 18.47 301.441 15.3856 309.787 8.2989L309.863 8.23485V8.33474C309.88 46.9114 309.931 165.905 310 325.243V325.637L309.698 325.382C305.923 322.194 301.706 318.634 297.455 315.044H297.695C293.915 318.239 289.702 321.798 285.457 325.386L285.335 325.489L285.213 325.386C281.425 322.186 277.213 318.629 272.972 315.047H273.217C269.422 318.253 265.213 321.809 260.977 325.389L260.853 325.493L260.729 325.389C256.926 322.177 252.719 318.625 248.485 315.05H248.734C244.923 318.269 240.721 321.82 236.493 325.391L236.367 325.497L236.241 325.391C232.422 322.166 228.221 318.619 223.998 315.052H224.251C220.424 318.285 216.227 321.83 212.009 325.393L211.881 325.5L211.754 325.393C207.92 322.154 203.727 318.612 199.515 315.053H199.77C195.927 318.3 191.736 321.839 187.529 325.394L187.4 325.502L187.272 325.394C183.418 322.14 179.23 318.604 175.025 315.054H175.282C171.421 318.315 167.238 321.848 163.04 325.394L162.911 325.503L162.783 325.394C158.916 322.131 154.741 318.607 150.552 315.071L150.532 315.054H150.789C146.66 318.539 142.546 322.011 138.537 325.394L138.209 325.671V325.243C138.226 204.056 138.241 93.1314 138.253 8.3355V8L138.51 8.21655C142.854 11.888 146.841 15.2575 150.748 18.5607H150.553C154.933 14.8633 158.908 11.5075 162.796 8.22418L162.89 8.14487L162.984 8.22418C167.399 11.9566 171.359 15.3033 175.221 18.5691H175.04C179.503 14.8031 183.447 11.4732 187.286 8.23333L187.372 8.16013L187.458 8.23333C191.969 12.0459 195.893 15.3627 199.698 18.579H199.534C204.107 14.72 208.011 11.4252 211.78 8.24476L211.857 8.17995L211.934 8.24476C216.575 12.1686 220.451 15.4459 224.171 18.5912H224.028C228.761 14.598 232.611 11.3504 236.277 8.25772L236.343 8.20206L236.408 8.25772C241.246 12.3509 245.055 15.5724 248.641 18.6057H248.523C253.516 14.3944 257.286 11.2155 260.773 8.2745L260.824 8.23104L260.876 8.2745C266.077 12.6742 269.787 15.8126 273.113 18.6255H273.029C278.598 13.9331 282.251 10.8548 285.284 8.29966L285.313 8.2745L285.343 8.29966C293.659 15.3566 297.324 18.4692 297.567 18.6743C297.323 18.4707 293.639 15.3795 285.285 8.36905H285.345C282.319 10.9311 278.672 14.0177 273.114 18.7231L273.072 18.7589L273.03 18.7231C269.699 15.9163 265.983 12.7847 260.774 8.39345H260.876C257.393 11.3398 253.628 14.524 248.641 18.7429L248.582 18.7925L248.523 18.7429C244.933 15.7143 241.121 12.4973 236.277 8.41023H236.408C232.745 11.5068 228.899 14.7588 224.171 18.7574L224.1 18.8177L224.028 18.7574C220.305 15.6159 216.425 12.3425 211.78 8.42319H211.934C208.168 11.6074 204.266 14.906 199.697 18.7689L199.615 18.8382L199.533 18.7689C195.726 15.5564 191.799 12.2426 187.286 8.43386H187.458C183.622 11.6768 179.679 15.0089 175.22 18.7788L175.13 18.855L175.039 18.7788C171.174 15.516 167.214 12.1724 162.796 8.44301H162.984C159.097 11.7286 155.124 15.0875 150.747 18.7872L150.65 18.8695L150.552 18.7872C146.642 15.487 142.652 12.1191 138.306 8.45064L138.563 8.33245C138.574 93.1284 138.589 204.052 138.606 325.24L138.279 325.089C142.287 321.705 146.401 318.233 150.53 314.748L150.658 314.64L150.787 314.748L150.806 314.765C154.996 318.301 159.171 321.825 163.037 325.089H162.78C166.979 321.542 171.162 318.009 175.023 314.748L175.152 314.64L175.28 314.748C179.485 318.298 183.673 321.835 187.526 325.089H187.27C191.479 321.534 195.669 317.995 199.513 314.749L199.64 314.641L199.768 314.749C203.98 318.308 208.173 321.85 212.006 325.09H211.752C215.97 321.528 220.168 317.983 223.996 314.75L224.123 314.644L224.25 314.75C228.473 318.318 232.673 321.865 236.491 325.092H236.24C240.467 321.521 244.671 317.971 248.482 314.753L248.607 314.648L248.732 314.753C252.964 318.328 257.171 321.881 260.974 325.095H260.726C264.964 321.516 269.173 317.961 272.969 314.756L273.093 314.652L273.216 314.756C277.456 318.34 281.667 321.897 285.454 325.098H285.211C289.458 321.512 293.671 317.953 297.453 314.759L297.573 314.657L297.693 314.759C301.943 318.35 306.159 321.912 309.933 325.101L309.631 325.24C309.7 165.903 309.752 46.9091 309.768 8.33245L309.844 8.36753C301.459 15.4077 297.808 18.4715 297.567 18.6743Z" fill="#263238"/>
<path d="M210.042 51.1346L208.838 49.4015H208.767H207.509V51.1346H206.065V44.9126H208.766C210.433 44.9126 211.476 45.775 211.476 47.1711C211.476 48.1044 211.004 48.7884 210.192 49.1354L211.592 51.1354L210.042 51.1346ZM208.687 46.0861H207.51V48.2554H208.687C209.569 48.2554 210.015 47.846 210.015 47.1711C210.015 46.4856 209.569 46.0861 208.687 46.0861Z" fill="#263238"/>
<path d="M217.451 49.9794V51.1354H212.62V44.9126H217.336V46.0686H214.055V47.4197H216.953V48.5398H214.055V49.9794H217.451Z" fill="#263238"/>
<path d="M218.193 48.0239C218.193 46.1482 219.638 44.8062 221.581 44.8062C222.659 44.8062 223.56 45.1973 224.148 45.908L223.221 46.7612C222.801 46.2816 222.276 46.033 221.652 46.033C220.484 46.033 219.655 46.8504 219.655 48.0239C219.655 49.1974 220.484 50.0148 221.652 50.0148C222.275 50.0148 222.801 49.7655 223.221 49.2767L224.148 50.13C223.559 50.8498 222.659 51.2417 221.572 51.2417C219.638 51.2425 218.193 49.8997 218.193 48.0239Z" fill="#263238"/>
<path d="M229.954 49.9794V51.1354H225.123V44.9126H229.838V46.0686H226.557V47.4197H229.455V48.5398H226.557V49.9794H229.954Z" fill="#263238"/>
<path d="M231.106 44.9126H232.551V51.1354H231.106V44.9126Z" fill="#263238"/>
<path d="M239.442 47.1704C239.442 48.5566 238.399 49.419 236.732 49.419H235.475V51.1346H234.031V44.9126H236.732C238.399 44.9126 239.442 45.775 239.442 47.1704ZM237.98 47.1704C237.98 46.4856 237.534 46.0861 236.652 46.0861H235.475V48.2463H236.652C237.534 48.2463 237.98 47.846 237.98 47.1704Z" fill="#263238"/>
<path d="M241.593 46.0861H239.596V44.9126H245.034V46.0861H243.037V51.1354H241.593V46.0861Z" fill="#263238"/>
<path d="M309.817 36.9949C309.817 37.1048 271.443 37.1934 224.117 37.1934C176.774 37.1934 138.409 37.1041 138.409 36.9949C138.409 36.885 176.775 36.7964 224.117 36.7964C271.443 36.7964 309.817 36.885 309.817 36.9949Z" fill="#263238"/>
<path d="M309.817 59.0042C309.817 59.1141 271.443 59.2027 224.117 59.2027C176.774 59.2027 138.409 59.1134 138.409 59.0042C138.409 58.8942 176.775 58.8057 224.117 58.8057C271.443 58.8057 309.817 58.895 309.817 59.0042Z" fill="#263238"/>
<path d="M200.518 70.1438C200.518 70.2538 190.068 70.3423 177.179 70.3423C164.286 70.3423 153.838 70.253 153.838 70.1438C153.838 70.0346 164.286 69.9453 177.179 69.9453C190.068 69.9453 200.518 70.0339 200.518 70.1438Z" fill="#263238"/>
<path d="M142.821 82.2454C142.821 82.3553 142.393 82.4439 141.865 82.4439C141.338 82.4439 140.909 82.3546 140.909 82.2454C140.909 82.1362 141.338 82.0469 141.865 82.0469C142.393 82.0469 142.821 82.1354 142.821 82.2454Z" fill="#263238"/>
<path d="M150.499 82.2454C150.499 82.3553 149.64 82.4439 148.58 82.4439C147.519 82.4439 146.66 82.3546 146.66 82.2454C146.66 82.1362 147.52 82.0469 148.58 82.0469C149.64 82.0469 150.499 82.1354 150.499 82.2454Z" fill="#263238"/>
<path d="M158.178 82.2454C158.178 82.3553 157.318 82.4439 156.258 82.4439C155.198 82.4439 154.339 82.3546 154.339 82.2454C154.339 82.1362 155.198 82.0469 156.258 82.0469C157.318 82.0469 158.178 82.1354 158.178 82.2454Z" fill="#263238"/>
<path d="M165.856 82.2454C165.856 82.3553 164.996 82.4439 163.936 82.4439C162.876 82.4439 162.017 82.3546 162.017 82.2454C162.017 82.1362 162.876 82.0469 163.936 82.0469C164.996 82.0469 165.856 82.1354 165.856 82.2454Z" fill="#263238"/>
<path d="M173.535 82.2454C173.535 82.3553 172.675 82.4439 171.615 82.4439C170.555 82.4439 169.696 82.3546 169.696 82.2454C169.696 82.1362 170.555 82.0469 171.615 82.0469C172.675 82.0469 173.535 82.1354 173.535 82.2454Z" fill="#263238"/>
<path d="M181.213 82.2454C181.213 82.3553 180.353 82.4439 179.293 82.4439C178.233 82.4439 177.374 82.3546 177.374 82.2454C177.374 82.1362 178.234 82.0469 179.293 82.0469C180.353 82.0469 181.213 82.1354 181.213 82.2454Z" fill="#263238"/>
<path d="M188.891 82.2454C188.891 82.3553 188.032 82.4439 186.972 82.4439C185.911 82.4439 185.052 82.3546 185.052 82.2454C185.052 82.1362 185.912 82.0469 186.972 82.0469C188.032 82.0469 188.891 82.1354 188.891 82.2454Z" fill="#263238"/>
<path d="M196.569 82.2454C196.569 82.3553 195.71 82.4439 194.65 82.4439C193.589 82.4439 192.73 82.3546 192.73 82.2454C192.73 82.1362 193.59 82.0469 194.65 82.0469C195.71 82.0469 196.569 82.1354 196.569 82.2454Z" fill="#263238"/>
<path d="M204.248 82.2454C204.248 82.3553 203.388 82.4439 202.328 82.4439C201.268 82.4439 200.409 82.3546 200.409 82.2454C200.409 82.1362 201.268 82.0469 202.328 82.0469C203.388 82.0469 204.248 82.1354 204.248 82.2454Z" fill="#263238"/>
<path d="M211.926 82.2454C211.926 82.3553 211.066 82.4439 210.006 82.4439C208.946 82.4439 208.087 82.3546 208.087 82.2454C208.087 82.1362 208.946 82.0469 210.006 82.0469C211.066 82.0469 211.926 82.1354 211.926 82.2454Z" fill="#263238"/>
<path d="M219.604 82.2454C219.604 82.3553 218.744 82.4439 217.684 82.4439C216.624 82.4439 215.765 82.3546 215.765 82.2454C215.765 82.1362 216.624 82.0469 217.684 82.0469C218.744 82.0469 219.604 82.1354 219.604 82.2454Z" fill="#263238"/>
<path d="M227.282 82.2454C227.282 82.3553 226.423 82.4439 225.363 82.4439C224.303 82.4439 223.443 82.3546 223.443 82.2454C223.443 82.1362 224.303 82.0469 225.363 82.0469C226.424 82.0469 227.282 82.1354 227.282 82.2454Z" fill="#263238"/>
<path d="M234.961 82.2454C234.961 82.3553 234.102 82.4439 233.042 82.4439C231.981 82.4439 231.122 82.3546 231.122 82.2454C231.122 82.1362 231.982 82.0469 233.042 82.0469C234.102 82.0469 234.961 82.1354 234.961 82.2454Z" fill="#263238"/>
<path d="M242.64 82.2454C242.64 82.3553 241.78 82.4439 240.72 82.4439C239.659 82.4439 238.8 82.3546 238.8 82.2454C238.8 82.1362 239.66 82.0469 240.72 82.0469C241.78 82.0469 242.64 82.1354 242.64 82.2454Z" fill="#263238"/>
<path d="M250.318 82.2454C250.318 82.3553 249.458 82.4439 248.398 82.4439C247.337 82.4439 246.478 82.3546 246.478 82.2454C246.478 82.1362 247.338 82.0469 248.398 82.0469C249.458 82.0469 250.318 82.1354 250.318 82.2454Z" fill="#263238"/>
<path d="M257.996 82.2454C257.996 82.3553 257.136 82.4439 256.076 82.4439C255.016 82.4439 254.157 82.3546 254.157 82.2454C254.157 82.1362 255.016 82.0469 256.076 82.0469C257.136 82.0469 257.996 82.1354 257.996 82.2454Z" fill="#263238"/>
<path d="M265.674 82.2454C265.674 82.3553 264.815 82.4439 263.755 82.4439C262.694 82.4439 261.835 82.3546 261.835 82.2454C261.835 82.1362 262.695 82.0469 263.755 82.0469C264.815 82.0469 265.674 82.1354 265.674 82.2454Z" fill="#263238"/>
<path d="M273.352 82.2454C273.352 82.3553 272.493 82.4439 271.433 82.4439C270.372 82.4439 269.513 82.3546 269.513 82.2454C269.513 82.1362 270.373 82.0469 271.433 82.0469C272.493 82.0469 273.352 82.1354 273.352 82.2454Z" fill="#263238"/>
<path d="M281.031 82.2454C281.031 82.3553 280.172 82.4439 279.112 82.4439C278.051 82.4439 277.192 82.3546 277.192 82.2454C277.192 82.1362 278.052 82.0469 279.112 82.0469C280.172 82.0469 281.031 82.1354 281.031 82.2454Z" fill="#263238"/>
<path d="M288.709 82.2454C288.709 82.3553 287.85 82.4439 286.79 82.4439C285.729 82.4439 284.87 82.3546 284.87 82.2454C284.87 82.1362 285.73 82.0469 286.79 82.0469C287.85 82.0469 288.709 82.1354 288.709 82.2454Z" fill="#263238"/>
<path d="M296.388 82.2454C296.388 82.3553 295.528 82.4439 294.468 82.4439C293.407 82.4439 292.549 82.3546 292.549 82.2454C292.549 82.1362 293.408 82.0469 294.468 82.0469C295.528 82.0469 296.388 82.1354 296.388 82.2454Z" fill="#263238"/>
<path d="M304.066 82.2454C304.066 82.3553 303.206 82.4439 302.146 82.4439C301.086 82.4439 300.227 82.3546 300.227 82.2454C300.227 82.1362 301.087 82.0469 302.146 82.0469C303.206 82.0469 304.066 82.1354 304.066 82.2454Z" fill="#263238"/>
<path d="M308.861 82.4439C309.389 82.4439 309.817 82.355 309.817 82.2454C309.817 82.1357 309.389 82.0469 308.861 82.0469C308.333 82.0469 307.905 82.1357 307.905 82.2454C307.905 82.355 308.333 82.4439 308.861 82.4439Z" fill="#263238"/>
<path d="M153.178 202.432H150.934V201.371H156.68V202.432H154.437V208.123H153.178L153.178 202.432Z" fill="#263238"/>
<path d="M157.047 204.747C157.047 202.751 158.594 201.274 160.694 201.274C162.793 201.274 164.341 202.741 164.341 204.747C164.341 206.754 162.793 208.22 160.694 208.22C158.594 208.22 157.047 206.744 157.047 204.747ZM163.073 204.747C163.073 203.367 162.057 202.375 160.694 202.375C159.329 202.375 158.314 203.368 158.314 204.747C158.314 206.127 159.329 207.12 160.694 207.12C162.057 207.12 163.073 206.127 163.073 204.747Z" fill="#263238"/>
<path d="M166.952 202.432H164.707V201.371H170.454V202.432H168.209V208.123H166.951V202.432H166.952Z" fill="#263238"/>
<path d="M175.454 206.56H172.068L171.4 208.123H170.104L173.152 201.371H174.39L177.447 208.123H176.131L175.454 206.56ZM175.038 205.576L173.761 202.625L172.494 205.576H175.038Z" fill="#263238"/>
<path d="M178.306 201.371H179.564V207.061H183.105V208.123H178.307L178.306 201.371Z" fill="#263238"/>
<path d="M307.805 231.79C307.805 231.9 270.441 231.989 224.361 231.989C178.265 231.989 140.909 231.899 140.909 231.79C140.909 231.68 178.265 231.592 224.361 231.592C270.441 231.592 307.805 231.681 307.805 231.79Z" fill="#263238"/>
<path d="M307.805 258.221C307.805 258.331 270.91 258.419 225.408 258.419C179.89 258.419 143.003 258.33 143.003 258.221C143.003 258.112 179.891 258.022 225.408 258.022C270.909 258.022 307.805 258.111 307.805 258.221Z" fill="#263238"/>
<path d="M192.597 243.037H190.326V241.702H196.511V243.037H194.24V248.779H192.597V243.037Z" fill="#263238"/>
<path d="M203.902 241.702V248.779H202.259V245.877H199.034V248.779H197.392V241.702H199.034V244.492H202.259V241.702H203.902Z" fill="#263238"/>
<path d="M210.257 247.263H206.961L206.333 248.779H204.65L207.814 241.702H209.436L212.609 248.779H210.886L210.257 247.263ZM209.741 246.019L208.615 243.309L207.489 246.019H209.741Z" fill="#263238"/>
<path d="M219.858 241.702V248.779H218.509L214.97 244.482V248.779H213.348V241.702H214.707L218.235 245.999V241.702H219.858Z" fill="#263238"/>
<path d="M224.125 245.998L223.172 246.99V248.779H221.539V241.702H223.172V245.008L226.316 241.702H228.141L225.2 244.857L228.312 248.78H226.396L224.125 245.998Z" fill="#263238"/>
<path d="M235.317 246.272V248.779H233.674V246.252L230.926 241.702H232.67L234.566 244.846L236.462 241.702H238.074L235.317 246.272Z" fill="#263238"/>
<path d="M238.012 245.24C238.012 243.137 239.654 241.58 241.895 241.58C244.126 241.58 245.779 243.127 245.779 245.24C245.779 247.353 244.126 248.9 241.895 248.9C239.655 248.9 238.012 247.343 238.012 245.24ZM244.117 245.24C244.117 243.895 243.163 242.975 241.896 242.975C240.629 242.975 239.676 243.895 239.676 245.24C239.676 246.585 240.629 247.505 241.896 247.505C243.163 247.505 244.117 246.585 244.117 245.24Z" fill="#263238"/>
<path d="M246.953 245.665V241.702H248.595V245.604C248.595 246.949 249.184 247.505 250.177 247.505C251.181 247.505 251.759 246.948 251.759 245.604V241.702H253.381V245.665C253.381 247.748 252.185 248.9 250.167 248.9C248.15 248.9 246.953 247.748 246.953 245.665Z" fill="#263238"/>
<path d="M254.658 247.94C254.658 247.424 255.063 247.04 255.631 247.04C256.199 247.04 256.605 247.424 256.605 247.94C256.605 248.445 256.199 248.86 255.631 248.86C255.063 248.86 254.658 248.446 254.658 247.94ZM254.688 241.702H256.575L256.261 246.322H255.003L254.688 241.702Z" fill="#263238"/>
<path d="M174.124 268.621H172.575V300.124H174.124V268.621Z" fill="#263238"/>
<path d="M178.513 268.621H175.294V300.124H178.513V268.621Z" fill="#263238"/>
<path d="M180.899 268.621H180.035V300.124H180.899V268.621Z" fill="#263238"/>
<path d="M206.189 268.621H205.325V300.124H206.189V268.621Z" fill="#263238"/>
<path d="M187.029 268.621H186.165V300.124H187.029V268.621Z" fill="#263238"/>
<path d="M193.59 268.621H193.159V300.124H193.59V268.621Z" fill="#263238"/>
<path d="M197.597 268.621H197.165V300.124H197.597V268.621Z" fill="#263238"/>
<path d="M219.303 268.621H218.872V300.124H219.303V268.621Z" fill="#263238"/>
<path d="M217.662 268.621H217.23V300.124H217.662V268.621Z" fill="#263238"/>
<path d="M208.606 268.621H208.175V300.124H208.606V268.621Z" fill="#263238"/>
<path d="M183.719 268.621H182.279V300.124H183.719V268.621Z" fill="#263238"/>
<path d="M196.386 268.621H194.946V300.124H196.386V268.621Z" fill="#263238"/>
<path d="M226.933 268.621H225.493V300.124H226.933V268.621Z" fill="#263238"/>
<path d="M200.069 268.621H198.945V300.124H200.069V268.621Z" fill="#263238"/>
<path d="M223.117 268.621H221.993V300.124H223.117V268.621Z" fill="#263238"/>
<path d="M212.366 268.621H211.241V300.124H212.366V268.621Z" fill="#263238"/>
<path d="M202.634 268.621H201.51V300.124H202.634V268.621Z" fill="#263238"/>
<path d="M191.685 268.621H188.884V300.124H191.685V268.621Z" fill="#263238"/>
<path d="M231.387 268.621H228.585V300.124H231.387V268.621Z" fill="#263238"/>
<path d="M273.02 300.124H274.568V268.621H273.02V300.124Z" fill="#263238"/>
<path d="M268.63 300.124H271.849V268.621H268.63V300.124Z" fill="#263238"/>
<path d="M266.245 300.124H267.109V268.621H266.245V300.124Z" fill="#263238"/>
<path d="M240.954 300.124H241.818V268.621H240.954V300.124Z" fill="#263238"/>
<path d="M260.115 300.124H260.979V268.621H260.115V300.124Z" fill="#263238"/>
<path d="M253.554 300.124H253.985V268.621H253.554V300.124Z" fill="#263238"/>
<path d="M249.547 300.124H249.978V268.621H249.547V300.124Z" fill="#263238"/>
<path d="M238.538 300.124H238.97V268.621H238.538V300.124Z" fill="#263238"/>
<path d="M263.425 300.124H264.865V268.621H263.425V300.124Z" fill="#263238"/>
<path d="M250.758 300.124H252.198V268.621H250.758V300.124Z" fill="#263238"/>
<path d="M247.075 300.124H248.199V268.621H247.075V300.124Z" fill="#263238"/>
<path d="M234.778 300.124H235.902V268.621H234.778V300.124Z" fill="#263238"/>
<path d="M244.51 300.124H245.634V268.621H244.51V300.124Z" fill="#263238"/>
<path d="M255.458 300.124H258.26V268.621H255.458V300.124Z" fill="#263238"/>
<path d="M245.385 105.212C245.385 105.531 227.561 105.788 205.579 105.788C183.588 105.788 165.769 105.529 165.769 105.212C165.769 104.894 183.588 104.637 205.579 104.637C227.561 104.637 245.385 104.896 245.385 105.212Z" fill="#263238"/>
<path d="M245.385 121.319C245.385 121.637 227.561 121.894 205.579 121.894C183.588 121.894 165.769 121.635 165.769 121.319C165.769 121 183.588 120.744 205.579 120.744C227.561 120.744 245.385 121.002 245.385 121.319Z" fill="#263238"/>
<path d="M245.385 137.425C245.385 137.743 227.561 138 205.579 138C183.588 138 165.769 137.741 165.769 137.425C165.769 137.106 183.588 136.85 205.579 136.85C227.561 136.85 245.385 137.108 245.385 137.425Z" fill="#263238"/>
<path d="M245.385 153.531C245.385 153.85 227.561 154.106 205.579 154.106C183.588 154.106 165.769 153.848 165.769 153.531C165.769 153.213 183.588 152.956 205.579 152.956C227.561 152.956 245.385 153.215 245.385 153.531Z" fill="#263238"/>
<path d="M126.991 53.4473C129.988 56.4294 131.367 60.9396 130.549 65.0816C130.151 67.0938 129.316 69.3455 130.458 71.0512C131.588 72.7394 134.169 72.9979 135.24 74.7242C136.5 76.757 134.934 79.3785 135.191 81.7545C135.432 83.9848 137.541 85.8553 139.791 85.8339C136.942 87.6449 133.585 88.6521 130.207 88.7086C129.485 87.5206 128.763 86.3318 128.041 85.1438C128.873 86.4005 128.401 88.1931 127.326 89.2507C126.252 90.3091 124.731 90.7757 123.248 91.0601C116.162 92.4189 108.483 90.2313 103.186 85.3451" fill="#263238"/>
<path d="M86.5825 66.8956C87.2762 65.3988 88.3032 64.056 88.8355 62.4951C89.9796 59.1394 88.7552 55.0676 90.7956 52.1647C92.2479 50.0991 94.9161 49.3175 97.4039 48.8615C99.8924 48.4063 102.544 48.083 104.542 46.5359C106.008 45.4013 106.965 43.7139 108.426 42.5739C110.51 40.9498 113.338 40.6486 115.978 40.7958C118.689 40.9467 121.442 41.5316 123.723 43.0002C126.004 44.4688 127.753 46.9294 127.87 49.634C127.928 50.9531 127.609 52.2905 127.87 53.5845C128.159 55.0073 129.112 56.1999 129.626 57.5587C130.713 60.4288 129.521 63.982 126.921 65.6222L105.63 87.2552C101.574 88.2617 92.3763 85.3894 89.7127 82.1784C87.0505 78.9675 84.8289 70.6783 86.5825 66.8956Z" fill="#263238"/>
<path d="M126.791 62.5412C126.667 57.0481 123.299 50.178 117.8 50.5348L100.526 54.1537C98.8548 54.262 97.5456 55.6268 97.5104 57.2952L97.671 98.4789C97.6297 98.4857 97.593 98.4926 97.5517 98.4995C97.5517 98.4995 100.95 110.259 112.4 107.198C114.671 106.591 115.798 104.192 116.35 101.697L116.465 101.716C116.482 101.418 116.498 101.141 116.514 100.856C117.011 97.971 116.823 95.2146 116.823 95.2146C116.997 91.8977 117.052 90.5366 117.052 90.5671C117.052 90.5671 124.12 89.6887 125.946 80.6134C126.855 76.1016 126.928 68.6443 126.791 62.5412Z" fill="#FFBE9D"/>
<path d="M112.757 69.2615C112.754 69.8807 112.225 70.3893 111.576 70.3977C110.928 70.406 110.404 69.9127 110.407 69.2928C110.411 68.6736 110.94 68.1643 111.587 68.1559C112.236 68.1467 112.76 68.6416 112.757 69.2615Z" fill="#263238"/>
<path d="M124.734 69.2615C124.731 69.8807 124.202 70.3893 123.553 70.3977C122.905 70.406 122.381 69.9127 122.385 69.2928C122.388 68.6736 122.917 68.1643 123.564 68.1559C124.214 68.1467 124.737 68.6416 124.734 69.2615Z" fill="#263238"/>
<path d="M125.486 66.5258C125.335 66.7241 124.331 65.9135 122.952 65.9509C121.574 65.9662 120.593 66.8141 120.436 66.6219C120.359 66.5373 120.508 66.1827 120.934 65.7999C121.353 65.4187 122.08 65.0397 122.939 65.0229C123.799 65.0077 124.535 65.3569 124.965 65.7222C125.403 66.0904 125.561 66.4374 125.486 66.5258Z" fill="#263238"/>
<path d="M112.73 66.4968C112.547 66.6737 111.572 65.777 110.106 65.6679C108.643 65.536 107.509 66.2589 107.364 66.0553C107.292 65.9638 107.487 65.6344 107.983 65.3065C108.47 64.9786 109.283 64.6866 110.196 64.7613C111.108 64.8376 111.851 65.2562 112.267 65.658C112.69 66.0629 112.819 66.4182 112.73 66.4968Z" fill="#263238"/>
<path d="M116.785 75.617C116.782 75.5453 117.574 75.4416 118.854 75.3303C119.178 75.3097 119.487 75.2586 119.55 75.0413C119.636 74.8118 119.515 74.4595 119.373 74.0783C119.101 73.2876 118.817 72.4579 118.518 71.5887C117.335 68.0461 116.491 65.1379 116.635 65.0914C116.779 65.0449 117.855 67.8791 119.038 71.4225C119.322 72.2955 119.594 73.1282 119.853 73.925C119.961 74.2956 120.153 74.7188 119.969 75.1953C119.872 75.4325 119.628 75.5972 119.419 75.6445C119.21 75.6994 119.028 75.6948 118.868 75.6978C117.583 75.7154 116.788 75.6894 116.785 75.617Z" fill="#263238"/>
<path d="M117.053 90.568C117.053 90.568 110.875 90.7151 104.917 86.8096C104.917 86.8096 107.639 93.2039 116.842 92.7198L117.053 90.568Z" fill="#EB996E"/>
<path d="M116.128 78.6335C115.697 78.0159 114.914 77.6545 114.12 77.7078C113.569 77.7444 113.004 77.9861 112.652 78.4177C112.3 78.8493 112.205 79.4791 112.491 79.916C112.813 80.4086 113.521 80.5474 114.131 80.401C114.741 80.2546 115.277 79.8795 115.786 79.5051C115.927 79.4014 116.07 79.2931 116.162 79.1467C116.253 79.001 116.28 78.8058 116.18 78.6777" fill="#FF4267"/>
<path d="M113.03 76.3392C113.236 76.3354 113.183 77.7041 114.318 78.722C115.451 79.7438 116.92 79.6492 116.923 79.8406C116.938 79.9275 116.587 80.093 115.969 80.0854C115.362 80.0816 114.486 79.8521 113.791 79.2291C113.099 78.6046 112.823 77.7979 112.799 77.2344C112.77 76.6602 112.936 76.327 113.03 76.3392Z" fill="#263238"/>
<path d="M113.112 62.2255C112.974 62.5633 111.718 62.3498 110.228 62.468C108.735 62.5564 107.521 62.9407 107.337 62.6258C107.255 62.4756 107.477 62.1614 107.974 61.8488C108.466 61.537 109.244 61.2525 110.139 61.19C111.034 61.129 111.843 61.3029 112.374 61.5438C112.91 61.7848 113.173 62.0654 113.112 62.2255Z" fill="#263238"/>
<path d="M124.692 62.6829C124.426 62.9589 123.443 62.6219 122.247 62.5594C121.054 62.4603 120.03 62.6623 119.808 62.3535C119.711 62.2041 119.883 61.9235 120.336 61.6703C120.784 61.4179 121.522 61.2265 122.345 61.2814C123.166 61.3371 123.868 61.6253 124.272 61.9357C124.683 62.2475 124.809 62.548 124.692 62.6829Z" fill="#263238"/>
<path d="M96.6974 55.0245C97.6877 53.8365 99.2723 53.3515 100.773 52.9672C107.244 51.3103 113.914 50.4266 120.595 50.3389C121.255 51.7815 120.281 53.5254 118.929 54.3603C117.577 55.1953 115.943 55.3966 114.398 55.774C112.853 56.1522 111.235 56.824 110.455 58.2056C109.624 59.675 109.955 61.5698 109.2 63.0788C107.9 65.6751 104.001 66.1044 102.716 68.7084C101.744 70.6779 102.679 73.0051 102.724 75.1996C102.773 77.6861 101.559 80.1665 99.5622 81.6572C97.9875 82.833 95.9594 83.3584 94.0046 83.1662C94.4727 75.333 94.9407 67.499 95.4095 59.6658C95.5066 58.0348 95.6504 56.2811 96.6974 55.0245Z" fill="#263238"/>
<path d="M78.6558 72.8351C80.0186 71.8782 81.6759 71.1073 82.3534 69.5891C83.34 67.3779 81.8097 64.4636 83.2467 62.5131C84.5575 60.7342 87.745 61.2062 88.9847 59.3769C89.9529 57.9487 89.2065 56.4962 89.6638 55.1961C90.1211 53.8953 92.1607 52.9475 93.5052 53.267L102.344 69.9178C102.724 75.1997 103.395 78.0667 101.926 80.9581C101.12 82.5441 100.134 84.0668 99.6883 85.7886C99.2424 87.5103 99.4566 89.5454 100.77 90.7487C94.3388 90.4986 88.7599 86.4725 83.6214 82.6105C81.8089 81.2479 79.9957 79.8853 78.1824 78.5227C77.6165 78.0972 77.0284 77.645 76.7355 77.0015C76.0457 75.4879 77.2938 73.7913 78.6558 72.8351Z" fill="#263238"/>
<path d="M83.6451 81.0343C83.6451 81.0343 83.8623 81.1448 84.3104 81.2447C84.7563 81.3431 85.4392 81.4445 86.3118 81.3377C87.1752 81.2325 88.2444 80.9237 89.2554 80.1772C90.2649 79.4429 91.1535 78.2168 91.516 76.6773C91.6942 75.9102 91.7408 75.0692 91.5948 74.216C91.4472 73.3589 91.0763 72.5354 90.6901 71.7157C90.31 70.8952 89.8894 70.0496 89.7586 69.1224C89.6286 68.212 89.7509 67.162 90.4178 66.4689C91.0893 65.7628 92.1882 65.6995 93.2344 65.4151C93.7606 65.2741 94.3173 65.024 94.712 64.5718C95.1058 64.1204 95.2909 63.5302 95.3467 62.9576C95.4706 61.7925 95.0989 60.6708 95.0125 59.5637C94.9674 59.0085 94.9941 58.4435 95.1938 57.9395C95.3903 57.4363 95.7727 57.0192 96.2652 56.7592C97.2624 56.2124 98.4486 56.2452 99.5896 56.2788C100.736 56.3306 101.953 56.2147 102.987 55.7008C104.028 55.2166 104.908 54.4518 105.522 53.5353C106.132 52.6073 106.437 51.5688 106.711 50.5874C106.983 49.6031 107.236 48.6446 107.673 47.8051C108.109 46.9694 108.736 46.2732 109.437 45.7288C110.867 44.6605 112.566 44.2022 114.081 44.2556C115.607 44.3059 116.93 44.8656 117.931 45.5381C118.942 46.213 119.664 46.9983 120.165 47.6899C121.164 49.0937 121.375 50.0605 121.426 50.0354C121.432 50.0339 121.418 49.9751 121.385 49.8631C121.348 49.7525 121.307 49.5817 121.219 49.3712C121.06 48.9435 120.774 48.3266 120.284 47.606C119.793 46.8901 119.073 46.0742 118.049 45.3658C117.034 44.6597 115.678 44.0619 114.092 43.9918C112.52 43.9193 110.754 44.3761 109.251 45.4817C108.513 46.0444 107.848 46.7726 107.382 47.6533C106.918 48.534 106.656 49.5161 106.38 50.4944C106.103 51.4712 105.8 52.4716 105.225 53.3378C104.645 54.1964 103.814 54.9162 102.833 55.3691C101.852 55.8503 100.743 55.957 99.5988 55.9067C98.4692 55.8762 97.202 55.8228 96.0855 56.4313C95.5325 56.7203 95.0714 57.2174 94.8466 57.8015C94.6164 58.3856 94.5949 59.0078 94.6416 59.5911C94.7402 60.7646 95.0982 61.8504 94.9819 62.921C94.9314 63.4479 94.767 63.9557 94.4382 64.3346C94.1086 64.7129 93.6375 64.9363 93.1365 65.0727C92.6372 65.2169 92.1087 65.2939 91.591 65.4456C91.077 65.589 90.5501 65.8261 90.17 66.2302C89.3969 67.0515 89.2928 68.2028 89.4336 69.1689C89.5827 70.1678 90.0263 71.0302 90.4102 71.8476C90.8025 72.6635 91.1642 73.4565 91.3111 74.2663C91.4571 75.0761 91.4212 75.8805 91.2583 76.6178C90.9264 78.0986 90.0897 79.2881 89.1292 80.0102C88.1664 80.7468 87.1332 81.0694 86.2919 81.1936C84.5773 81.4201 83.6481 80.9672 83.6451 81.0343Z" fill="#455A64"/>
<path d="M76.4373 69.0883C76.4373 69.0883 76.2912 69.2286 76.1658 69.5831C76.0396 69.9301 75.9807 70.521 76.2538 71.1905C76.3968 71.5168 76.6193 71.8661 76.968 72.1406C77.3145 72.4135 77.7733 72.6103 78.2865 72.6621C79.2998 72.7918 80.567 72.3228 81.2859 71.2225C81.6476 70.6865 81.8862 70.0368 81.9688 69.3391C82.0506 68.6376 81.9535 67.9049 81.7684 67.1866C81.4251 65.7523 80.6657 64.3051 80.8354 62.6962C80.9096 61.9154 81.1926 61.0911 81.8327 60.5985C82.4682 60.0915 83.3614 60.0541 84.234 60.1486C85.1105 60.2218 86.0496 60.4453 87.027 60.1875C87.5072 60.0556 87.9607 59.7666 88.2735 59.3678C88.5909 58.9721 88.7882 58.5016 88.9052 58.0213C89.14 57.0437 89.0184 56.0792 89.0085 55.1695C88.974 54.2568 89.1339 53.3799 89.465 52.5693C90.1304 50.9528 91.419 49.6817 92.8889 49.0374C94.3679 48.3687 95.9762 48.4671 97.4262 48.5502C98.8846 48.644 100.295 48.7172 101.534 48.3893C102.771 48.0873 103.8 47.5338 104.601 46.9329C105.41 46.3366 105.988 45.6809 106.401 45.1143C107.222 43.963 107.398 43.1875 107.398 43.1875C107.355 43.1654 107.127 43.9241 106.285 45.0274C105.861 45.5711 105.28 46.1986 104.478 46.7652C103.684 47.3355 102.674 47.8571 101.474 48.1323C100.276 48.4328 98.9091 48.3489 97.4468 48.2414C95.9991 48.1476 94.3327 48.0233 92.7512 48.7225C91.1941 49.3958 89.8359 50.7241 89.127 52.4306C88.7744 53.2792 88.6024 54.2354 88.6375 55.1748C88.649 56.1081 88.7591 57.0468 88.5427 57.9336C88.3454 58.8181 87.781 59.6172 86.9268 59.8307C86.084 60.061 85.1686 59.8642 84.27 59.7849C83.3852 59.6911 82.3634 59.7171 81.6132 60.3179C80.8645 60.9051 80.5693 61.8292 80.4936 62.6634C80.4102 63.5128 80.5678 64.3493 80.798 65.0988C81.0213 65.8552 81.2874 66.5636 81.4702 67.2628C81.6568 67.959 81.7532 68.6521 81.6843 69.3071C81.614 69.9613 81.3975 70.5729 81.0679 71.0753C80.4141 72.1047 79.2577 72.5523 78.3094 72.454C77.833 72.4158 77.4047 72.2427 77.0797 71.9995C76.7524 71.7555 76.5337 71.4353 76.3891 71.1318C76.1115 70.5088 76.1413 69.9446 76.2408 69.6037C76.3356 69.2568 76.4556 69.0989 76.4373 69.0883Z" fill="#263238"/>
<path d="M143.146 80.7646C143.087 80.7539 143.419 81.4142 142.929 82.4238C142.686 82.8973 142.2 83.4517 141.446 83.6072C140.712 83.765 139.75 83.4638 139.182 82.696C138.897 82.3186 138.764 81.8222 138.791 81.3014C138.818 80.7806 138.986 80.2453 139.225 79.7222C139.691 78.686 140.519 77.5964 140.579 76.1819C140.662 74.8132 140.134 73.3401 139.074 72.2825C138.55 71.7518 137.913 71.3171 137.211 71.0068C136.507 70.6858 135.733 70.5424 134.98 70.4151C134.224 70.287 133.478 70.1787 132.804 69.9271C132.133 69.6808 131.548 69.2546 131.215 68.6629C130.88 68.0734 130.785 67.3765 130.817 66.7101C130.849 66.0376 131.006 65.3917 131.213 64.7695C131.624 63.5304 132.152 62.3417 132.224 61.1194C132.302 59.9055 131.969 58.78 131.45 57.8993C130.93 57.0026 130.193 56.4048 129.58 55.9069C128.957 55.4082 128.427 54.9789 128.054 54.5687C127.287 53.7521 127.217 53.0849 127.168 53.1085C127.162 53.11 127.166 53.1482 127.182 53.2229C127.201 53.2961 127.214 53.4112 127.272 53.5492C127.365 53.8321 127.572 54.234 127.944 54.664C128.31 55.1002 128.836 55.5546 129.444 56.067C130.047 56.5817 130.742 57.1719 131.219 58.0313C131.701 58.8784 132.001 59.9543 131.913 61.098C131.834 62.2479 131.316 63.4008 130.885 64.662C130.67 65.2934 130.496 65.9781 130.459 66.6925C130.423 67.4024 130.517 68.168 130.895 68.8428C131.272 69.5214 131.948 70.0087 132.672 70.2733C133.399 70.5455 134.165 70.653 134.916 70.7819C135.67 70.9092 136.4 71.0457 137.06 71.3454C137.721 71.6366 138.32 72.0438 138.812 72.5379C139.806 73.5215 140.302 74.8887 140.234 76.1621C140.196 77.4576 139.423 78.5053 138.941 79.5941C138.698 80.1424 138.524 80.7135 138.502 81.2884C138.477 81.8588 138.639 82.4314 138.969 82.8523C139.622 83.7002 140.677 84.0029 141.489 83.8108C142.324 83.6141 142.822 82.9964 143.058 82.4871C143.304 81.9617 143.309 81.4943 143.272 81.2007C143.228 80.9026 143.146 80.7646 143.146 80.7646Z" fill="#263238"/>
<path d="M140.611 296.521L140.355 314.2C140.355 314.2 159.565 321.026 159.447 325.117L123.968 325.216L125.188 314.586L123.307 296.895L140.611 296.521Z" fill="#376AEF"/>
<path d="M123.929 325.55L124.298 322.342L158.367 323.17C158.367 323.17 159.457 324.038 159.448 325.118L123.929 325.55Z" fill="#263238"/>
<path d="M141.259 314.727C141.254 314.901 140.38 314.983 139.521 315.546C138.647 316.086 138.206 316.843 138.044 316.775C137.883 316.741 138.141 315.698 139.193 315.035C140.239 314.361 141.297 314.566 141.259 314.727Z" fill="#263238"/>
<path d="M145.021 316.266C145.062 316.434 144.304 316.733 143.713 317.472C143.099 318.194 142.952 318.992 142.778 318.985C142.614 319.013 142.49 317.992 143.243 317.087C143.988 316.175 145.016 316.1 145.021 316.266Z" fill="#263238"/>
<path d="M147.167 320.742C147.008 320.78 146.762 319.91 147.208 318.953C147.648 317.994 148.472 317.614 148.546 317.76C148.645 317.903 148.115 318.417 147.76 319.207C147.389 319.989 147.341 320.725 147.167 320.742Z" fill="#263238"/>
<path d="M140.932 310.52C140.859 310.678 140.056 310.44 139.067 310.511C138.078 310.56 137.309 310.893 137.218 310.744C137.117 310.618 137.866 309.971 139.032 309.904C140.195 309.83 141.018 310.382 140.932 310.52Z" fill="#263238"/>
<path d="M139.541 310.492C139.561 310.499 139.68 310.26 139.718 309.79C139.755 309.327 139.704 308.609 139.277 307.857C139.17 307.672 139.043 307.485 138.887 307.308C138.733 307.136 138.539 306.937 138.237 306.859C137.954 306.781 137.522 306.9 137.419 307.297C137.345 307.674 137.539 307.945 137.669 308.176C137.951 308.645 138.242 309.132 138.544 309.636L138.774 310.018L138.894 310.213C138.942 310.281 139.007 310.41 139.203 310.453C139.406 310.477 139.508 310.371 139.567 310.337L139.759 310.201L140.137 309.913C140.637 309.517 141.093 309.091 141.501 308.65C141.705 308.429 141.897 308.204 142.076 307.979C142.247 307.759 142.454 307.518 142.534 307.191C142.575 307.032 142.568 306.819 142.454 306.656C142.353 306.491 142.153 306.397 141.987 306.386C141.651 306.368 141.389 306.5 141.173 306.643C140.748 306.923 140.418 307.269 140.176 307.619C139.684 308.322 139.536 309.018 139.504 309.481C139.478 309.952 139.548 310.205 139.57 310.202C139.606 310.2 139.593 309.944 139.667 309.501C139.746 309.064 139.931 308.423 140.416 307.795C140.656 307.481 140.969 307.177 141.361 306.938C141.542 306.818 141.766 306.736 141.95 306.755C142.119 306.778 142.21 306.903 142.156 307.101C142.104 307.308 141.943 307.508 141.761 307.728C141.585 307.945 141.397 308.159 141.198 308.371C140.8 308.793 140.357 309.202 139.875 309.585L139.51 309.863L139.326 309.996C139.294 310.019 139.271 310.034 139.258 310.04C139.242 310.017 139.271 310.123 139.263 310.102C139.251 310.111 139.308 310.03 139.287 310.045C139.279 310.037 139.264 310.018 139.248 309.992L139.132 309.803L138.898 309.422C138.589 308.923 138.29 308.44 138.003 307.975C137.858 307.755 137.745 307.528 137.781 307.384C137.798 307.246 137.99 307.163 138.161 307.199C138.517 307.289 138.814 307.703 139.022 308.01C139.444 308.678 139.54 309.343 139.554 309.785C139.567 310.234 139.505 310.484 139.541 310.492Z" fill="#263238"/>
<path d="M76.6055 297.303L74.1621 314.815C74.1621 314.815 92.3787 323.954 91.7562 328L56.5358 323.73L59.0626 313.332L59.3869 295.545L76.6055 297.303Z" fill="#376AEF"/>
<path d="M56.4567 324.056L57.2192 320.917L90.9261 325.933C90.9261 325.933 91.8996 326.928 91.7566 328L56.4567 324.056Z" fill="#263238"/>
<path d="M74.9944 315.45C74.9677 315.622 74.0897 315.595 73.1682 316.048C72.2344 316.477 71.7021 317.174 71.5507 317.086C71.3947 317.032 71.7802 316.029 72.9059 315.501C74.027 314.962 75.0518 315.296 74.9944 315.45Z" fill="#263238"/>
<path d="M78.537 317.439C78.5561 317.612 77.7684 317.815 77.0893 318.476C76.391 319.116 76.1456 319.89 75.9735 319.862C75.8075 319.87 75.8106 318.841 76.6702 318.036C77.5229 317.223 78.553 317.274 78.537 317.439Z" fill="#263238"/>
<path d="M80.1122 322.147C79.9501 322.164 79.8139 321.27 80.3753 320.376C80.9305 319.478 81.7947 319.203 81.8505 319.357C81.9316 319.511 81.3419 319.955 80.8922 320.696C80.425 321.426 80.2866 322.15 80.1122 322.147Z" fill="#263238"/>
<path d="M75.1911 311.234C75.0994 311.383 74.3315 311.048 73.3427 310.996C72.3539 310.923 71.5509 311.159 71.4782 310.999C71.3926 310.862 72.2162 310.312 73.3809 310.389C74.5449 310.459 75.2928 311.108 75.1911 311.234Z" fill="#263238"/>
<path d="M73.8146 311.035C73.833 311.044 73.9806 310.822 74.077 310.36C74.1703 309.905 74.2093 309.186 73.8796 308.389C73.7955 308.192 73.693 307.99 73.56 307.795C73.4284 307.606 73.261 307.384 72.9703 307.27C72.6996 307.158 72.2561 307.224 72.1054 307.603C71.9846 307.969 72.1444 308.261 72.2446 308.507C72.4656 309.007 72.695 309.526 72.9321 310.063L73.1134 310.471L73.2067 310.68C73.2457 310.752 73.2946 310.889 73.4843 310.956C73.6823 311.005 73.7971 310.913 73.8598 310.886L74.067 310.774L74.4777 310.535C75.023 310.204 75.5277 309.837 75.9873 309.449C76.2168 309.256 76.4347 309.057 76.6412 308.854C76.8385 308.656 77.0741 308.443 77.1934 308.128C77.2538 307.975 77.2737 307.763 77.1811 307.587C77.1008 307.412 76.9142 307.294 76.7506 307.262C76.4202 307.203 76.1433 307.301 75.9109 307.417C75.4543 307.642 75.0849 307.945 74.8004 308.262C74.2246 308.899 73.9913 309.572 73.9026 310.027C73.8185 310.491 73.8567 310.751 73.8796 310.75C73.9148 310.752 73.9339 310.497 74.0624 310.067C74.1947 309.643 74.4578 309.029 75.0176 308.466C75.2937 308.184 75.6424 307.921 76.0607 307.731C76.255 307.635 76.4883 307.581 76.668 307.622C76.8332 307.667 76.9073 307.802 76.8301 307.991C76.7529 308.19 76.5678 308.37 76.3613 308.566C76.1594 308.758 75.946 308.948 75.722 309.134C75.2746 309.504 74.7851 309.856 74.259 310.176L73.8621 310.407L73.6625 310.516C73.628 310.535 73.6028 310.547 73.5906 310.551C73.5776 310.526 73.5936 310.635 73.5875 310.614C73.5737 310.621 73.641 310.547 73.6189 310.56C73.612 310.551 73.599 310.531 73.586 310.503L73.4934 310.3L73.3084 309.894C73.0636 309.361 72.8266 308.845 72.5987 308.348C72.4824 308.112 72.3983 307.872 72.4518 307.734C72.4862 307.599 72.6866 307.54 72.8526 307.597C73.1944 307.73 73.4376 308.177 73.6066 308.508C73.9424 309.223 73.9554 309.895 73.9148 310.335C73.872 310.783 73.7795 311.022 73.8146 311.035Z" fill="#263238"/>
<path d="M120.181 196.154C120.181 196.154 138.984 232.857 141.632 243.946C144.281 255.036 141.371 309.852 141.371 309.852L123.323 311.234C123.323 311.234 122.035 290.683 120.181 278.273C118.328 265.862 116.9 256.621 118.276 252.925C119.651 249.228 100.583 222.459 100.583 222.459L91.3689 207.956L98.8574 186.688L120.181 196.154Z" fill="#263238"/>
<path d="M123.318 239.356C123.224 239.32 121.985 242.28 120.55 245.968C119.114 249.656 118.028 252.675 118.122 252.712C118.215 252.747 119.454 249.788 120.89 246.099C122.323 242.412 123.411 239.392 123.318 239.356Z" fill="#455A64"/>
<path d="M108.83 198.664C108.83 198.664 89.7623 254.378 87.9085 256.49C86.0547 258.603 75.1913 311.234 75.1913 311.234L59.1091 310.827C59.1091 310.827 58.6235 271.307 61.2719 261.008C63.9202 250.711 68.0469 234.31 69.6361 220.844C71.2252 207.377 69.1061 199.888 69.6361 191.091C70.1661 182.294 72.5491 177.978 72.5491 177.978L108.83 193.384V198.664Z" fill="#263238"/>
<path d="M106.681 204.984C106.67 204.98 106.59 205.161 106.45 205.511C106.302 205.892 106.104 206.403 105.854 207.043C105.342 208.415 104.622 210.342 103.738 212.709C101.973 217.5 99.5895 224.14 96.9641 231.474C94.3387 238.811 91.935 245.442 90.1478 250.224C89.2607 252.588 88.538 254.514 88.024 255.885C87.7847 256.529 87.5943 257.042 87.452 257.426C87.3251 257.78 87.2639 257.968 87.2753 257.972C87.2868 257.977 87.3709 257.798 87.5201 257.453C87.6784 257.076 87.8902 256.571 88.1556 255.937C88.6993 254.616 89.4687 252.697 90.3887 250.315C92.2387 245.554 94.6813 238.934 97.3067 231.596C99.9077 224.269 102.262 217.637 103.981 212.796C104.819 210.413 105.502 208.473 105.988 207.091C106.211 206.44 106.388 205.922 106.52 205.535C106.637 205.178 106.693 204.988 106.681 204.984Z" fill="#455A64"/>
<path d="M74.6071 188.066C74.591 188.082 74.721 188.258 74.9918 188.544C75.2617 188.832 75.6846 189.221 76.2567 189.639C77.3885 190.479 79.201 191.391 81.3714 191.661C83.5426 191.931 85.5241 191.491 86.828 190.955C87.4857 190.689 87.9912 190.416 88.3239 190.204C88.6573 189.992 88.8271 189.854 88.8149 189.835C88.782 189.778 88.0486 190.255 86.7378 190.715C85.4384 191.179 83.5143 191.562 81.4165 191.302C79.3188 191.04 77.5491 190.197 76.4035 189.429C75.2464 188.662 74.6537 188.02 74.6071 188.066Z" fill="#455A64"/>
<path d="M137.737 117.494L127.387 129.412L128.508 132.676L133.784 138.72C133.784 138.72 135.723 139.74 138.944 133.939C142.165 128.138 145.317 117.516 145.317 117.516L137.737 117.494Z" fill="#FFBE9D"/>
<path d="M156.642 90.8207C156.372 90.4875 155.946 90.319 155.52 90.3777L148.292 91.369C147.658 91.4666 147.096 91.8288 146.746 92.3648L131.736 115.368L132.89 116.011L140.883 115.76L156.87 91.1013L156.642 90.8207Z" fill="#263238"/>
<path d="M151.525 93.808C151.679 93.943 151.951 93.8858 152.13 93.6807C152.31 93.4756 152.331 93.2003 152.178 93.0653C152.023 92.9304 151.752 92.9876 151.572 93.1927C151.392 93.3985 151.371 93.673 151.525 93.808Z" fill="white"/>
<path d="M156.869 91.1014C156.873 91.1311 156.375 91.2279 155.471 91.3766C154.494 91.5276 153.203 91.7274 151.641 91.9683C150.824 92.0881 149.938 92.2177 148.992 92.3557C148.537 92.3969 148.134 92.631 147.875 93.0122C147.598 93.4415 147.312 93.883 147.02 94.3344C145.838 96.1514 144.545 98.1393 143.187 100.226C140.457 104.399 137.965 108.165 136.143 110.878C135.255 112.184 134.522 113.263 133.966 114.079C133.445 114.83 133.144 115.237 133.119 115.221C133.094 115.205 133.347 114.766 133.825 113.987C134.35 113.151 135.045 112.047 135.885 110.711C137.641 107.954 140.092 104.162 142.823 99.9884C144.19 97.9083 145.494 95.9273 146.685 94.1156C146.984 93.6649 147.276 93.225 147.56 92.7972C147.877 92.3244 148.431 92.0354 148.935 92.0011C149.885 91.8814 150.774 91.7693 151.594 91.6656C153.166 91.4796 154.465 91.3263 155.449 91.2097C156.359 91.1121 156.865 91.0716 156.869 91.1014Z" fill="#455A64"/>
<path d="M148.851 99.3244C148.851 99.3244 148.206 99.2093 147.854 100.966C147.501 102.724 146.365 107.764 146.365 107.764L142.989 105.976L138.766 106.524C138.766 106.524 137.844 107.373 138.52 107.834C139.197 108.295 141.866 108.77 141.866 108.77L143.834 111.592L138.184 108.876C138.184 108.876 136.299 109.367 136.851 110.513C137.403 111.66 141.213 115.25 141.213 115.25L138.383 115.037L135.017 112.998C135.017 112.998 133.984 113.045 134.369 113.923C134.755 114.799 138.255 117.968 138.255 117.968L142.5 120.022C142.5 120.022 144.817 119.84 145.039 119.162C145.261 118.483 145.318 117.515 145.318 117.515C145.318 117.515 146.548 117.185 146.778 116.59C147.007 115.995 146.859 115.054 146.859 115.054C146.859 115.054 148.79 115.392 149.03 114.319C149.269 113.246 149.068 111.132 148.874 110.306C148.679 109.48 149.697 101.808 149.618 101.576C149.538 101.344 150.061 98.8173 148.851 99.3244Z" fill="#FFBE9D"/>
<path d="M145.187 119.172C145.201 119.222 144.791 119.401 144.08 119.515C143.371 119.63 142.357 119.641 141.282 119.388C140.207 119.131 139.307 118.665 138.726 118.245C138.142 117.825 137.857 117.48 137.893 117.442C137.973 117.333 139.317 118.495 141.382 118.966C143.439 119.472 145.164 119.038 145.187 119.172Z" fill="#EB996E"/>
<path d="M144.182 117.653C144.116 117.75 143.364 117.358 142.561 116.7C141.756 116.043 141.222 115.385 141.306 115.301C141.391 115.214 142.049 115.721 142.837 116.364C143.622 117.008 144.25 117.552 144.182 117.653Z" fill="#EB996E"/>
<path d="M146.414 114.003C146.35 114.1 145.603 113.717 144.851 113.021C144.096 112.328 143.654 111.617 143.746 111.545C143.842 111.468 144.418 112.035 145.146 112.703C145.871 113.373 146.483 113.901 146.414 114.003Z" fill="#EB996E"/>
<path d="M148.764 111.06C148.648 111.108 148.222 110.314 147.549 109.449C146.883 108.578 146.223 107.963 146.3 107.864C146.365 107.77 147.186 108.262 147.894 109.185C148.606 110.103 148.871 111.021 148.764 111.06Z" fill="#EB996E"/>
<path d="M142.423 129.249L134.894 118.614L131.39 123.054L122.506 130.596L129.233 156.934L134.49 151.665C134.49 151.665 139.74 136.648 139.965 133.668L142.423 129.249Z" fill="#376AEF"/>
<path d="M117.434 97.5278C113.232 98.4131 105.425 94.2704 97.51 91.0923L104.491 115.688L129.232 160.074L127.554 120.596L117.434 97.5278Z" fill="white"/>
<path d="M117.684 97.8022C117.684 97.8022 127.676 114.066 128.461 115.925C129.246 117.784 131.294 125.986 132.298 131.848C133.302 137.71 134.866 155.209 134.892 166.836C134.906 172.914 134.832 178.571 134.743 183.026C134.626 188.91 131.348 194.274 126.162 197.085C126.162 197.085 127.107 147.053 126.741 144.371C126.374 141.689 127.085 136.52 126.162 128.941C125.352 122.29 123.741 118.697 122.506 115.838C121.27 112.978 118.258 103.542 117.684 99.967C117.111 96.3916 117.684 97.8022 117.684 97.8022Z" fill="#376AEF"/>
<path d="M83.545 94.1513L93.6513 93.0106L97.1906 90.3906L100.865 94.0415C112.23 105.335 120.468 119.386 124.656 134.829C126.7 142.365 128.377 150.636 128.759 158.375C129.86 180.699 126.919 198.407 126.096 198.407C125.273 198.407 64.7479 181.955 64.7479 181.955L67.7113 160.989L76.7592 100.712C76.7592 100.712 79.3716 94.5554 83.545 94.1513Z" fill="#376AEF"/>
<path d="M56.8126 144.586C56.8126 144.586 57.0183 135.155 59.2804 130.644C61.5426 126.134 78.4293 97.8008 78.4293 97.8008C78.4293 97.8008 101.023 112.602 91.1534 141.305L87.8634 142.33C87.8634 142.33 89.9199 143.765 89.5084 145.816C89.5084 145.816 95.0981 145.406 96.724 149.199C96.724 149.199 99.1727 149.097 100.612 150.327C102.051 151.557 109.454 159.623 109.454 159.623C109.454 159.623 101.846 172.879 99.1727 173.084C96.4999 173.289 98.1449 173.084 98.1449 173.084L90.742 167.548C90.742 167.548 79.8434 169.393 74.7026 167.753C69.5619 166.113 66.0662 161.744 64.2155 159.623C62.3647 157.503 56.5128 149.066 56.8126 144.586Z" fill="#376AEF"/>
<path d="M76.2918 147.287C76.3744 147.393 78.3513 145.244 81.5755 143.855C84.7914 142.452 87.7097 142.411 87.6867 142.276C87.6852 142.235 86.9656 142.202 85.81 142.337C84.6575 142.472 83.0668 142.814 81.4302 143.523C79.7959 144.237 78.4645 145.172 77.5904 145.935C76.7147 146.7 76.262 147.261 76.2918 147.287Z" fill="#263238"/>
<path d="M70.6669 133.071C70.6577 133.095 70.9093 133.22 71.3704 133.426C71.9035 133.663 72.5558 133.953 73.3237 134.296C74.9702 135.035 77.2232 136.1 79.6482 137.4C82.0725 138.703 84.2047 139.992 85.7296 140.956C86.4393 141.408 87.0412 141.79 87.5329 142.104C87.9597 142.375 88.2021 142.515 88.2166 142.494C88.2312 142.474 88.0163 142.294 87.614 141.988C87.2133 141.679 86.6183 141.253 85.8711 140.742C84.3775 139.72 82.2561 138.39 79.8211 137.08C77.3853 135.774 75.1033 134.741 73.4254 134.06C72.5872 133.719 71.902 133.459 71.4225 133.295C70.9445 133.129 70.676 133.048 70.6669 133.071Z" fill="#263238"/>
<path d="M88.8645 156.071C88.9655 156.144 90.092 153.696 92.6585 151.749C95.1975 149.765 97.8581 149.298 97.8123 149.182C97.8061 149.144 97.1439 149.201 96.1214 149.521C95.1012 149.836 93.7368 150.464 92.436 151.462C91.1389 152.464 90.1853 153.622 89.6209 154.525C89.0519 155.43 88.8294 156.055 88.8645 156.071Z" fill="#263238"/>
<path d="M91.8745 167.737C91.9243 167.763 92.4489 166.834 93.3429 165.364C94.2361 163.893 95.5202 161.892 97.068 159.773C98.619 157.656 100.138 155.826 101.27 154.528C102.401 153.23 103.126 152.448 103.087 152.409C103.069 152.391 102.866 152.567 102.515 152.899C102.163 153.23 101.67 153.727 101.078 154.356C99.8938 155.614 98.3337 157.43 96.7744 159.56C95.2181 161.691 93.9608 163.725 93.1211 165.235C92.7005 165.989 92.3762 166.608 92.1682 167.044C91.9579 167.48 91.8524 167.725 91.8745 167.737Z" fill="#263238"/>
<path d="M99.4596 166.999C99.471 166.983 99.3877 166.89 99.1827 166.811C98.9808 166.733 98.6436 166.687 98.2619 166.822C97.891 166.941 97.4475 167.318 97.3886 167.888C97.3213 168.424 97.5813 169.088 98.1977 169.368C98.8271 169.626 99.4924 169.352 99.8289 168.922C100.198 168.474 100.12 167.875 99.9062 167.548C99.6982 167.199 99.3976 167.025 99.1865 166.971C98.9716 166.915 98.8493 166.949 98.85 166.969C98.8248 167.023 99.367 167.044 99.679 167.67C99.8266 167.964 99.8511 168.394 99.5682 168.713C99.3066 169.03 98.7743 169.222 98.3422 169.037C97.9094 168.848 97.6822 168.335 97.722 167.923C97.7488 167.497 98.0562 167.194 98.3591 167.06C98.9984 166.779 99.4458 167.06 99.4596 166.999Z" fill="#263238"/>
<path d="M114.645 189.392C114.645 189.392 115.749 188.727 117.271 187.042C118.774 185.364 120.584 182.563 121.623 178.72C122.142 176.806 122.47 174.654 122.596 172.337C122.725 170.019 122.653 167.538 122.478 164.94C122.131 159.745 121.476 154.047 120.402 148.126C118.293 136.263 114.905 125.812 111.954 118.456C109.042 111.077 106.681 106.738 106.681 106.738C106.676 106.741 106.703 106.813 106.762 106.95C106.83 107.104 106.918 107.305 107.03 107.559C107.282 108.11 107.639 108.889 108.094 109.883C108.542 110.905 109.086 112.147 109.715 113.584C110.301 115.044 111.024 116.687 111.713 118.541C114.597 125.908 117.939 136.346 120.043 148.183C121.115 154.093 121.779 159.777 122.144 164.962C122.327 167.553 122.41 170.02 122.295 172.324C122.183 174.626 121.872 176.761 121.374 178.662C120.376 182.475 118.62 185.266 117.162 186.958C116.432 187.811 115.777 188.4 115.336 188.799C115.119 188.981 114.947 189.125 114.815 189.235C114.699 189.334 114.641 189.388 114.645 189.392Z" fill="#263238"/>
<path d="M108.468 188.063C108.477 188.073 108.597 187.989 108.819 187.821C109.036 187.648 109.378 187.415 109.768 187.061C110.578 186.384 111.674 185.324 112.876 183.898C114.069 182.467 115.373 180.664 116.481 178.495C117.594 176.336 118.566 173.811 118.905 171.042C119.242 168.275 118.953 165.608 118.387 163.267C117.794 160.927 116.92 158.902 115.996 157.306C115.071 155.707 114.157 154.503 113.462 153.725C113.134 153.321 112.831 153.044 112.644 152.843C112.45 152.647 112.345 152.547 112.335 152.555C112.309 152.576 112.701 153 113.35 153.806C114.007 154.605 114.88 155.82 115.767 157.417C116.654 159.012 117.492 161.022 118.059 163.336C118.601 165.65 118.875 168.284 118.543 171.004C118.211 173.721 117.262 176.217 116.178 178.36C115.098 180.514 113.829 182.314 112.671 183.751C111.504 185.185 110.445 186.263 109.67 186.965C108.9 187.672 108.447 188.04 108.468 188.063Z" fill="#263238"/>
<path d="M64.2154 159.623C64.2154 159.623 64.3263 159.775 64.5588 160.055C64.7913 160.335 65.1362 160.75 65.6027 161.281C66.5364 162.334 67.9367 163.895 70.0857 165.471C71.1633 166.246 72.4351 167.026 73.9485 167.594C75.4582 168.186 77.2141 168.432 79.0701 168.538C82.7961 168.732 87.0114 168.461 91.5878 167.885L91.4761 167.856C93.6021 169.462 95.8398 171.152 98.1708 172.912L98.1915 172.928L98.2175 172.937C98.4943 173.03 98.8064 173.134 99.1207 173.239L99.1589 173.252L99.1857 173.248C99.9535 173.112 100.453 172.606 100.958 172.151C101.453 171.675 101.912 171.161 102.353 170.624C103.235 169.552 104.066 168.407 104.881 167.225C106.506 164.856 108.078 162.338 109.61 159.712L109.676 159.599L109.586 159.503C106.864 156.566 104.075 153.483 101.042 150.472C100.494 149.913 99.7547 149.516 99.0098 149.313C98.258 149.098 97.4948 149.008 96.717 149.018L96.8914 149.127C96.5755 148.449 96.1343 147.836 95.5775 147.345C95.0078 146.874 94.3608 146.518 93.6878 146.257C92.3281 145.753 90.9041 145.584 89.4961 145.637L89.6843 145.85C89.8258 145.13 89.6781 144.376 89.3386 143.754C88.9944 143.13 88.5279 142.61 87.9651 142.186L87.9169 142.497C89.0319 142.149 90.1271 141.807 91.2061 141.47L91.2903 141.443L91.3186 141.36C92.4596 137.999 93.2213 134.639 93.5853 131.38C93.9073 128.118 93.8729 124.962 93.4209 122.036C93.0033 119.104 92.2095 116.412 91.2505 114.009C90.2693 111.612 89.1099 109.508 87.9223 107.695C85.5446 104.057 83.0645 101.605 81.3124 100.028C80.4238 99.2473 79.7041 98.6869 79.2086 98.3216C78.9585 98.1417 78.7673 98.0067 78.635 97.9213C78.5042 97.8344 78.4316 97.7993 78.4316 97.7993C78.4285 97.8039 78.4927 97.8512 78.6174 97.9465C78.7535 98.0502 78.9363 98.189 79.1718 98.3689C79.6544 98.7494 80.3603 99.3228 81.2336 100.114C82.9559 101.713 85.4008 104.179 87.7395 107.813C88.908 109.623 90.0468 111.72 91.0088 114.105C91.9487 116.496 92.7242 119.169 93.1272 122.077C93.5647 124.98 93.5884 128.11 93.2611 131.345C92.8917 134.577 92.1284 137.911 90.9897 141.247L91.1021 141.138C90.0231 141.473 88.9272 141.813 87.8114 142.16L87.484 142.262L87.7624 142.471C88.7612 143.225 89.6047 144.482 89.3332 145.778L89.2866 145.999L89.5214 145.99C90.8612 145.94 92.2669 146.108 93.5585 146.59C94.2009 146.839 94.8089 147.177 95.3412 147.615C95.8582 148.072 96.2635 148.639 96.5579 149.266L96.6092 149.376H96.7323C98.1662 149.38 99.7547 149.666 100.792 150.732C103.799 153.717 106.603 156.812 109.323 159.74L109.3 159.531C107.777 162.147 106.209 164.666 104.596 167.026C103.786 168.205 102.962 169.344 102.092 170.406C101.657 170.937 101.207 171.445 100.728 171.907C100.256 172.352 99.7218 172.824 99.1612 172.917L99.2262 172.924C98.9119 172.82 98.5991 172.716 98.3223 172.624L98.3689 172.648C96.0326 170.895 93.7895 169.212 91.6589 167.613L91.6099 167.576L91.5472 167.585C86.9938 168.175 82.7846 168.464 79.0847 168.291C77.2378 168.195 75.5117 167.965 74.0242 167.395C72.5291 166.846 71.2634 166.086 70.1882 165.327C68.0423 163.785 66.6259 162.249 65.6723 161.216C65.2081 160.701 64.8494 160.302 64.5955 160.021C64.35 159.755 64.2154 159.623 64.2154 159.623Z" fill="#263238"/>
<path d="M117.685 97.8019C117.675 97.8073 117.74 97.9369 117.871 98.1801C118.019 98.4485 118.216 98.8016 118.462 99.2461C119.006 100.199 119.769 101.537 120.721 103.207C122.691 106.602 125.434 111.333 128.608 116.806L128.591 116.768C129.352 119.337 130.047 122.154 130.672 125.09C132.419 133.324 133.34 140.903 133.857 146.39C134.117 149.135 134.244 151.363 134.34 152.903C134.379 153.649 134.411 154.24 134.433 154.676C134.457 155.082 134.476 155.295 134.489 155.295C134.501 155.295 134.507 155.081 134.506 154.675C134.5 154.237 134.492 153.644 134.482 152.897C134.429 151.354 134.341 149.12 134.113 146.367C133.661 140.865 132.779 133.269 131.027 125.014C130.4 122.071 129.698 119.245 128.925 116.668L128.919 116.647L128.908 116.63C125.689 111.182 122.907 106.475 120.91 103.095C119.921 101.448 119.128 100.127 118.563 99.1866C118.296 98.7543 118.084 98.4104 117.923 98.1496C117.775 97.9155 117.694 97.7966 117.685 97.8019Z" fill="#263238"/>
<path d="M131.679 123.058C131.639 123.073 131.854 123.802 132.367 124.919C132.877 126.033 133.718 127.521 134.874 129.002C136.034 130.481 137.277 131.656 138.238 132.421C139.199 133.188 139.856 133.573 139.88 133.538C139.914 133.491 139.312 133.033 138.404 132.225C137.497 131.418 136.304 130.234 135.161 128.778C134.023 127.32 133.16 125.879 132.597 124.804C132.032 123.731 131.733 123.037 131.679 123.058Z" fill="#263238"/>
<path d="M139.977 128.973C140.026 128.962 139.824 128.629 139.312 128.705C139.078 128.736 138.763 128.942 138.696 129.295C138.627 129.626 138.754 130.045 139.131 130.25C139.514 130.438 139.93 130.306 140.164 130.066C140.418 129.817 140.429 129.455 140.344 129.237C140.162 128.764 139.791 128.727 139.798 128.772C139.771 128.82 140.027 128.945 140.096 129.305C140.128 129.478 140.093 129.688 139.931 129.825C139.776 129.967 139.498 130.032 139.297 129.927C139.098 129.825 138.993 129.559 139.025 129.356C139.05 129.147 139.208 129.01 139.375 128.953C139.723 128.836 139.947 129.016 139.977 128.973Z" fill="#263238"/>
<path d="M104.443 172.296L102.349 170.623C102.349 170.623 108.298 162.945 109.21 160.074C109.21 160.074 107.365 167.492 104.443 172.296Z" fill="#FFBE9D"/>
<path d="M100.106 180.761C100.128 180.772 100.298 180.496 100.586 179.985C100.903 179.407 101.303 178.677 101.779 177.808C102.772 175.962 104.134 173.404 105.504 170.509C106.872 167.612 107.933 164.905 108.574 162.904C108.896 161.904 109.133 161.088 109.269 160.517C109.411 159.948 109.477 159.63 109.453 159.624C109.428 159.617 109.316 159.922 109.133 160.478C108.955 161.036 108.682 161.837 108.33 162.822C107.629 164.792 106.538 167.468 105.175 170.355C103.809 173.24 102.484 175.814 101.55 177.69C101.082 178.628 100.708 179.389 100.458 179.921C100.211 180.451 100.084 180.75 100.106 180.761Z" fill="#263238"/>
<path d="M118.934 118.717C118.94 118.715 118.972 118.778 119.027 118.904C119.089 119.053 119.167 119.238 119.264 119.469C119.476 119.998 119.769 120.729 120.141 121.658C120.33 122.137 120.538 122.667 120.765 123.243C120.983 123.826 121.196 124.468 121.438 125.155C121.907 126.531 122.488 128.084 122.993 129.844C123.259 130.721 123.537 131.639 123.826 132.594C124.112 133.552 124.353 134.564 124.633 135.603C125.214 137.678 125.684 139.931 126.21 142.294C127.166 147.039 127.998 152.304 128.508 157.869C128.981 163.44 129.086 168.769 128.975 173.61C128.871 176.028 128.803 178.329 128.595 180.472C128.502 181.544 128.442 182.583 128.328 183.576C128.211 184.567 128.097 185.519 127.99 186.429C127.801 188.25 127.501 189.88 127.281 191.316C127.163 192.034 127.065 192.703 126.953 193.316C126.83 193.924 126.718 194.481 126.616 194.986C126.413 195.965 126.253 196.736 126.137 197.293C126.082 197.537 126.038 197.734 126.003 197.891C125.971 198.025 125.951 198.093 125.944 198.091C125.937 198.09 125.944 198.019 125.963 197.882C125.988 197.723 126.02 197.524 126.059 197.277C126.156 196.717 126.292 195.942 126.464 194.957C126.555 194.452 126.656 193.893 126.766 193.284C126.857 192.667 126.956 191.999 127.061 191.282C127.26 189.845 127.54 188.215 127.71 186.395C127.81 185.486 127.915 184.536 128.023 183.545C128.129 182.554 128.181 181.517 128.266 180.447C128.459 178.307 128.516 176.012 128.609 173.6C128.699 168.772 128.584 163.458 128.112 157.904C127.603 152.354 126.785 147.103 125.851 142.366C125.337 140.007 124.879 137.757 124.314 135.684C124.042 134.646 123.809 133.634 123.532 132.676C123.251 131.72 122.982 130.802 122.724 129.924C122.238 128.162 121.676 126.606 121.228 125.226C120.999 124.539 120.785 123.898 120.587 123.306C120.373 122.725 120.175 122.193 119.996 121.711C119.654 120.773 119.385 120.032 119.191 119.498C119.109 119.261 119.043 119.07 118.991 118.918C118.946 118.789 118.927 118.72 118.934 118.717Z" fill="#263238"/>
<path d="M127.31 192.223C127.284 192.33 113.484 189.06 96.49 184.921C79.4908 180.781 65.7358 177.34 65.7618 177.233C65.7878 177.126 79.5857 180.395 96.5848 184.536C113.578 188.674 127.336 192.116 127.31 192.223Z" fill="#263238"/>
<g opacity="0.3">
<path d="M96.5351 171.678C95.5944 171.077 91.8746 167.737 91.8746 167.737C91.8746 167.737 84.4946 168.345 78.6006 168.121C74.5856 167.969 70.7641 165.928 67.8588 163.161L67.4083 163.937C67.4221 167.195 69.8487 170.111 72.8389 171.425C75.8284 172.74 79.2614 172.679 82.4673 172.05C84.6361 171.623 86.9434 170.96 88.9876 171.799C90.6579 172.484 91.7851 174.04 93.2397 175.107C94.6943 176.175 97.4061 175.782 98.4997 174.349C99.5681 172.949 97.9132 172.558 96.5351 171.678Z" fill="black"/>
</g>
<g opacity="0.3">
<path d="M88.1755 142.278C83.5211 140.06 77.6126 140.759 73.6091 144.002C73.1211 144.398 72.6477 144.843 72.3923 145.417C72.1369 145.99 72.1445 146.718 72.5583 147.19C72.985 147.678 73.7299 147.773 74.3562 147.604C74.9818 147.434 75.5217 147.047 76.0594 146.686C79.7294 144.217 83.9785 142.611 88.3674 142.032" fill="black"/>
</g>
<rect x="252.308" y="101.186" width="41.5385" height="9.20353" fill="#D9D9D9"/>
<rect x="151.923" y="100.035" width="11.5385" height="9.20353" fill="#D9D9D9"/>
<rect x="151.923" y="116.142" width="11.5385" height="9.20353" fill="#D9D9D9"/>
<rect x="151.923" y="132.248" width="11.5385" height="9.20353" fill="#D9D9D9"/>
<rect x="151.923" y="148.354" width="11.5385" height="9.20353" fill="#D9D9D9"/>
<rect x="252.308" y="116.142" width="41.5385" height="9.20353" fill="#D9D9D9"/>
<rect x="252.308" y="132.248" width="41.5385" height="9.20353" fill="#D9D9D9"/>
<rect x="252.308" y="149.504" width="41.5385" height="9.20353" fill="#D9D9D9"/>
<rect x="252.308" y="201.274" width="41.5385" height="9.20353" fill="#D9D9D9"/>
</svg>
