<svg width="350" height="350" viewBox="0 0 350 350" fill="none" xmlns="http://www.w3.org/2000/svg">
<path d="M271.848 283.872C298.994 256.726 298.994 212.713 271.848 185.567C244.701 158.421 200.689 158.421 173.543 185.567C146.397 212.713 146.397 256.726 173.543 283.872C200.689 311.018 244.701 311.018 271.848 283.872Z" fill="#F9A140"/>
<path d="M222.188 151.176C176.048 151.456 138.871 189.087 139.151 235.227C139.432 281.367 177.062 318.543 223.202 318.263C269.342 317.983 306.519 280.352 306.239 234.212C305.959 188.072 268.328 150.896 222.188 151.176ZM223.117 304.23C184.727 304.463 153.417 273.531 153.184 235.142C152.951 196.752 183.883 165.442 222.273 165.209C260.663 164.976 291.973 195.908 292.206 234.297C292.439 272.687 261.507 303.997 223.117 304.23Z" fill="#FFE247"/>
<path d="M200.003 255.796C198.249 252.871 197.902 248.004 203.004 247.393C207.251 246.884 211.602 250.108 215.459 251.942C218.741 253.475 222.327 254.247 225.949 254.203C230.044 254.203 233.328 253.206 235.801 251.212C238.273 249.219 239.51 246.599 239.51 243.352C239.51 240.06 238.516 237.719 236.526 236.327C234.535 234.936 231.126 234.24 226.297 234.24H223.109C215.227 234.24 209.219 232.594 205.085 229.302C200.95 226.01 198.883 221.234 198.884 214.974C198.884 208.853 200.902 204.1 204.94 200.715C208.977 197.33 214.647 195.638 221.95 195.637C225.043 195.657 228.113 196.161 231.05 197.133C237.478 199.208 247.647 204.258 245.864 210.796C243.051 221.113 232.05 207.528 228.092 205.826C225.774 204.83 223.05 204.332 219.922 204.332C216.289 204.332 213.363 205.294 211.141 207.218C210.07 208.112 209.214 209.236 208.637 210.507C208.06 211.777 207.777 213.161 207.809 214.556C207.809 217.478 208.949 219.564 211.228 220.816C213.507 222.068 218.414 222.787 225.949 222.972C233.985 223.205 239.858 224.886 243.567 228.015C247.276 231.145 249.131 235.979 249.131 242.517C249.131 248.777 247.083 253.785 242.988 257.541C238.892 261.297 233.367 263.175 226.413 263.175C223.943 263.15 221.48 262.905 219.054 262.445C213.434 261.434 204.994 261.484 200.928 257.037C200.579 256.655 200.269 256.24 200.003 255.796Z" fill="#F4D242"/>
<path d="M224.132 279.669H224.045C221.644 279.669 219.698 277.418 219.698 274.642V188.943C219.698 186.166 221.644 183.916 224.045 183.916H224.132C226.533 183.916 228.479 186.166 228.479 188.943V274.642C228.479 277.418 226.533 279.669 224.132 279.669Z" fill="#F4D242"/>
<path opacity="0.08" d="M183.226 187.226C215.852 154.6 215.852 101.702 183.226 69.0755C150.6 36.4491 97.7018 36.4491 65.0754 69.0755C32.4489 101.702 32.4489 154.6 65.0754 187.226C97.7018 219.853 150.6 219.853 183.226 187.226Z" fill="#272525"/>
<path d="M170.292 172.923C197.438 145.777 197.438 101.765 170.292 74.6185C143.146 47.4724 99.1333 47.4724 71.9872 74.6185C44.841 101.765 44.841 145.777 71.9872 172.923C99.1333 200.07 143.146 200.07 170.292 172.923Z" fill="#F9A140"/>
<path d="M120.632 40.2272C74.4923 40.5073 37.3156 78.1383 37.5958 124.278C37.8759 170.418 75.5068 207.595 121.647 207.315C167.787 207.034 204.963 169.403 204.683 123.264C204.403 77.1237 166.772 39.947 120.632 40.2272ZM121.562 193.282C83.1717 193.515 51.8617 162.583 51.6287 124.193C51.3955 85.8032 82.3277 54.4932 120.717 54.26C159.107 54.027 190.417 84.959 190.65 123.349C190.883 161.739 159.951 193.049 121.562 193.282Z" fill="#FFE247"/>
<path d="M148.927 127.814C146.869 125.103 143.734 123.001 139.522 121.509C142.119 120.015 144.073 118.116 145.382 115.811C146.691 113.508 147.336 110.82 147.318 107.746C147.281 101.637 145.093 96.9914 140.754 93.8074C136.416 90.6232 130.122 89.056 121.874 89.1061L118.898 89.1241C118.881 86.357 118.865 83.5899 118.848 80.8228C118.832 78.2789 114.229 78.3067 114.245 80.8506C114.261 83.6178 114.278 86.385 114.295 89.152L111.303 89.1702C111.286 86.4031 111.269 83.636 111.252 80.8689C111.237 78.325 106.634 78.353 106.649 80.8968C106.666 83.6639 106.683 86.431 106.7 89.1981L94.6176 89.2715C93.2941 89.2795 92.2845 89.6459 91.5889 90.3706C90.8932 91.0943 90.5493 92.1372 90.5571 93.4992C90.5668 95.0954 91.0017 96.192 91.8616 96.7891C92.7212 97.3877 94.6491 97.6773 97.6454 97.6579L99.5715 97.6462L99.8908 150.232L97.9647 150.244C94.7346 150.264 92.6934 150.558 91.8409 151.127C90.9884 151.697 90.5672 152.76 90.577 154.317C90.5855 155.717 90.9322 156.765 91.617 157.461C92.3018 158.157 93.3252 158.501 94.6872 158.493L107.12 158.418C107.137 161.185 107.154 163.952 107.17 166.719C107.186 169.263 111.789 169.235 111.774 166.691L111.723 158.39L114.715 158.372C114.732 161.139 114.749 163.906 114.766 166.673C114.781 169.217 119.384 169.189 119.369 166.645C119.352 163.878 119.335 161.111 119.318 158.344L120.834 158.335L125.854 158.304C130.134 158.278 133.439 158.015 135.771 157.514C138 157.053 140.142 156.242 142.118 155.112C145.149 153.371 147.686 150.884 149.487 147.888C151.223 144.953 152.112 141.594 152.055 138.184C152.03 133.982 150.987 130.525 148.927 127.814ZM123.208 97.5027C127.721 97.4753 131.19 98.3785 133.614 100.212C136.037 102.046 137.259 104.694 137.281 108.157C137.303 111.815 135.987 114.527 133.332 116.294C130.678 118.061 126.588 118.961 121.063 118.994L119.08 119.006C119.036 111.847 118.993 104.688 118.949 97.5285L123.208 97.5027ZM114.346 97.5565C114.389 104.716 114.433 111.875 114.476 119.034L111.484 119.053C111.441 111.893 111.397 104.734 111.354 97.5746L114.346 97.5565ZM111.673 150.161C111.625 142.185 111.576 134.209 111.528 126.232L114.52 126.214C114.568 134.19 114.617 142.167 114.665 150.143L111.673 150.161ZM137.459 147.231C134.474 149.099 129.325 150.055 122.01 150.098L119.268 150.115C119.22 142.139 119.172 134.162 119.123 126.186L122.448 126.166C129.646 126.122 134.681 127.006 137.553 128.817C140.424 130.629 141.872 133.694 141.899 138.013C141.925 142.293 140.445 145.366 137.459 147.231Z" fill="#F4D242"/>
<path d="M127.534 293.32L109.971 274.013C109.848 273.878 109.687 273.784 109.51 273.745C109.332 273.706 109.146 273.722 108.978 273.792C108.81 273.862 108.668 273.983 108.571 274.137C108.475 274.291 108.428 274.472 108.438 274.653L109.024 285.592C93.6828 281.193 80.5975 271.769 71.8705 258.731C62.5839 244.857 59.3164 228.505 62.6299 212.592C62.6784 212.364 62.6353 212.127 62.5101 211.931C62.3848 211.736 62.1875 211.597 61.9608 211.546L56.894 210.415C56.7802 210.389 56.6624 210.386 56.5476 210.406C56.4327 210.427 56.323 210.469 56.2247 210.532C56.1265 210.595 56.0417 210.677 55.9752 210.773C55.9087 210.868 55.8619 210.976 55.8374 211.09C52.1103 228.875 55.7369 247.133 66.09 262.6C75.8208 277.138 90.4318 287.606 107.542 292.402L101.967 303.735C101.887 303.896 101.859 304.078 101.886 304.256C101.913 304.434 101.994 304.599 102.117 304.73C102.241 304.861 102.401 304.951 102.577 304.988C102.753 305.025 102.936 305.007 103.102 304.937L127.225 294.726C127.355 294.671 127.469 294.585 127.56 294.477C127.65 294.369 127.712 294.24 127.743 294.103C127.773 293.965 127.77 293.822 127.733 293.686C127.697 293.55 127.628 293.424 127.534 293.32Z" fill="#95AFF1"/>
<path d="M277.371 106.328C266.482 92.6364 251.062 83.4009 233.617 80.0236L238.266 68.2169C238.33 68.0537 238.343 67.8747 238.303 67.704C238.262 67.5333 238.171 67.3789 238.04 67.2617C237.91 67.1445 237.747 67.07 237.572 67.0482C237.398 67.0264 237.222 67.0583 237.066 67.1397L213.782 79.3347C213.66 79.3985 213.556 79.4905 213.477 79.6031C213.398 79.7157 213.347 79.8455 213.329 79.9818C213.31 80.118 213.325 80.2567 213.371 80.3861C213.417 80.5156 213.494 80.6321 213.595 80.7259L232.748 98.5918C232.878 98.7129 233.042 98.7908 233.218 98.815C233.393 98.8391 233.573 98.8082 233.73 98.7266C233.888 98.6449 234.016 98.5165 234.098 98.3589C234.18 98.2013 234.211 98.0223 234.187 97.8464L232.697 86.9323C248.348 90.0586 262.161 98.3787 271.927 110.658C282.324 123.73 286.92 139.767 284.915 155.906C284.886 156.131 284.947 156.358 285.084 156.539C285.222 156.719 285.425 156.838 285.649 156.869L290.835 157.588C290.948 157.603 291.062 157.597 291.172 157.568C291.282 157.539 291.385 157.489 291.476 157.42C291.566 157.351 291.642 157.265 291.699 157.166C291.756 157.068 291.793 156.959 291.808 156.846C294.072 138.809 288.962 120.901 277.371 106.328Z" fill="#376AEF"/>
</svg>
